<?xml version="1.0" encoding="utf-8" standalone="no"?>
<!DOCTYPE svg PUBLIC "-//W3C//DTD SVG 1.1//EN"
  "http://www.w3.org/Graphics/SVG/1.1/DTD/svg11.dtd">
<!-- Created with matplotlib (http://matplotlib.org/) -->
<svg height="336pt" version="1.1" viewBox="0 0 630 336" width="630pt" xmlns="http://www.w3.org/2000/svg" xmlns:xlink="http://www.w3.org/1999/xlink">
 <defs>
  <style type="text/css">
*{stroke-linecap:butt;stroke-linejoin:round;}
  </style>
 </defs>
 <g id="figure_1">
  <g id="patch_1">
   <path d="M 0 336.937629 
L 630.9 336.937629 
L 630.9 0 
L 0 0 
z
" style="fill:#ffffff;"/>
  </g>
  <g id="axes_1">
   <g id="patch_2">
    <path d="M 62.2 228.14 
L 620.2 228.14 
L 620.2 10.7 
L 62.2 10.7 
z
" style="fill:#ffffff;"/>
   </g>
   <g id="matplotlib.axis_1">
    <g id="xtick_1">
     <g id="line2d_1">
      <defs>
       <path d="M 0 0 
L 0 3.5 
" id="m881ba3ca96" style="stroke:#000000;stroke-width:0.8;"/>
      </defs>
      <g>
       <use style="stroke:#000000;stroke-width:0.8;" x="87.563636" xlink:href="#m881ba3ca96" y="228.14"/>
      </g>
     </g>
     <g id="text_1">
      <!-- 2016-01-12 -->
      <defs>
       <path d="M 45.84375 12.75 
L 41.21875 0 
L 2.15625 0 
L 2.15625 1.8125 
Q 19.390625 17.53125 26.421875 27.484375 
Q 33.453125 37.453125 33.453125 45.703125 
Q 33.453125 52 29.59375 56.046875 
Q 25.734375 60.109375 20.359375 60.109375 
Q 15.484375 60.109375 11.59375 57.25 
Q 7.71875 54.390625 5.859375 48.875 
L 4.046875 48.875 
Q 5.28125 57.90625 10.328125 62.734375 
Q 15.375 67.578125 22.953125 67.578125 
Q 31 67.578125 36.390625 62.40625 
Q 41.796875 57.234375 41.796875 50.203125 
Q 41.796875 45.171875 39.453125 40.140625 
Q 35.84375 32.234375 27.734375 23.390625 
Q 15.578125 10.109375 12.546875 7.375 
L 29.828125 7.375 
Q 35.109375 7.375 37.234375 7.765625 
Q 39.359375 8.15625 41.0625 9.34375 
Q 42.78125 10.546875 44.046875 12.75 
z
" id="TimesNewRomanPSMT-32"/>
       <path d="M 3.609375 32.71875 
Q 3.609375 44.046875 7.03125 52.21875 
Q 10.453125 60.40625 16.109375 64.40625 
Q 20.515625 67.578125 25.203125 67.578125 
Q 32.8125 67.578125 38.875 59.8125 
Q 46.4375 50.203125 46.4375 33.734375 
Q 46.4375 22.21875 43.109375 14.15625 
Q 39.796875 6.109375 34.640625 2.46875 
Q 29.5 -1.171875 24.703125 -1.171875 
Q 15.234375 -1.171875 8.9375 10.015625 
Q 3.609375 19.4375 3.609375 32.71875 
M 13.1875 31.5 
Q 13.1875 17.828125 16.546875 9.1875 
Q 19.34375 1.90625 24.859375 1.90625 
Q 27.484375 1.90625 30.3125 4.265625 
Q 33.15625 6.640625 34.625 12.203125 
Q 36.859375 20.609375 36.859375 35.890625 
Q 36.859375 47.21875 34.515625 54.78125 
Q 32.765625 60.40625 29.984375 62.75 
Q 27.984375 64.359375 25.140625 64.359375 
Q 21.828125 64.359375 19.234375 61.375 
Q 15.71875 57.328125 14.453125 48.625 
Q 13.1875 39.9375 13.1875 31.5 
" id="TimesNewRomanPSMT-30"/>
       <path d="M 11.71875 59.71875 
L 27.828125 67.578125 
L 29.4375 67.578125 
L 29.4375 11.671875 
Q 29.4375 6.109375 29.90625 4.734375 
Q 30.375 3.375 31.828125 2.640625 
Q 33.296875 1.90625 37.796875 1.8125 
L 37.796875 0 
L 12.890625 0 
L 12.890625 1.8125 
Q 17.578125 1.90625 18.9375 2.609375 
Q 20.3125 3.328125 20.84375 4.515625 
Q 21.390625 5.71875 21.390625 11.671875 
L 21.390625 47.40625 
Q 21.390625 54.640625 20.90625 56.6875 
Q 20.5625 58.25 19.65625 58.984375 
Q 18.75 59.71875 17.484375 59.71875 
Q 15.671875 59.71875 12.453125 58.203125 
z
" id="TimesNewRomanPSMT-31"/>
       <path d="M 44.828125 67.578125 
L 44.828125 65.765625 
Q 38.375 65.140625 34.296875 63.203125 
Q 30.21875 61.28125 26.234375 57.328125 
Q 22.265625 53.375 19.65625 48.515625 
Q 17.046875 43.65625 15.28125 36.96875 
Q 22.3125 41.796875 29.390625 41.796875 
Q 36.1875 41.796875 41.15625 36.328125 
Q 46.140625 30.859375 46.140625 22.265625 
Q 46.140625 13.96875 41.109375 7.125 
Q 35.0625 -1.171875 25.09375 -1.171875 
Q 18.3125 -1.171875 13.578125 3.328125 
Q 4.296875 12.0625 4.296875 25.984375 
Q 4.296875 34.859375 7.859375 42.859375 
Q 11.421875 50.875 18.03125 57.078125 
Q 24.65625 63.28125 30.703125 65.421875 
Q 36.765625 67.578125 42 67.578125 
z
M 14.453125 33.40625 
Q 13.578125 26.8125 13.578125 22.75 
Q 13.578125 18.0625 15.3125 12.5625 
Q 17.046875 7.078125 20.453125 3.859375 
Q 22.953125 1.5625 26.515625 1.5625 
Q 30.765625 1.5625 34.109375 5.5625 
Q 37.453125 9.578125 37.453125 17 
Q 37.453125 25.34375 34.125 31.4375 
Q 30.8125 37.546875 24.703125 37.546875 
Q 22.859375 37.546875 20.734375 36.765625 
Q 18.609375 35.984375 14.453125 33.40625 
" id="TimesNewRomanPSMT-36"/>
       <path d="M 4.046875 26.125 
L 29.296875 26.125 
L 29.296875 18.75 
L 4.046875 18.75 
z
" id="TimesNewRomanPSMT-2d"/>
      </defs>
      <g transform="translate(52.048756 326.10752)rotate(-45)scale(0.24 -0.24)">
       <use xlink:href="#TimesNewRomanPSMT-32"/>
       <use x="50" xlink:href="#TimesNewRomanPSMT-30"/>
       <use x="100" xlink:href="#TimesNewRomanPSMT-31"/>
       <use x="150" xlink:href="#TimesNewRomanPSMT-36"/>
       <use x="200" xlink:href="#TimesNewRomanPSMT-2d"/>
       <use x="233.300781" xlink:href="#TimesNewRomanPSMT-30"/>
       <use x="283.300781" xlink:href="#TimesNewRomanPSMT-31"/>
       <use x="333.300781" xlink:href="#TimesNewRomanPSMT-2d"/>
       <use x="366.601562" xlink:href="#TimesNewRomanPSMT-31"/>
       <use x="416.601562" xlink:href="#TimesNewRomanPSMT-32"/>
      </g>
     </g>
    </g>
    <g id="xtick_2">
     <g id="line2d_2">
      <g>
       <use style="stroke:#000000;stroke-width:0.8;" x="160.465106" xlink:href="#m881ba3ca96" y="228.14"/>
      </g>
     </g>
     <g id="text_2">
      <!-- 2016-01-13 -->
      <defs>
       <path d="M 5.078125 53.609375 
Q 7.90625 60.296875 12.21875 63.9375 
Q 16.546875 67.578125 23 67.578125 
Q 30.953125 67.578125 35.203125 62.40625 
Q 38.421875 58.546875 38.421875 54.15625 
Q 38.421875 46.921875 29.34375 39.203125 
Q 35.453125 36.8125 38.578125 32.375 
Q 41.703125 27.9375 41.703125 21.921875 
Q 41.703125 13.328125 36.234375 7.03125 
Q 29.109375 -1.171875 15.578125 -1.171875 
Q 8.890625 -1.171875 6.46875 0.484375 
Q 4.046875 2.15625 4.046875 4.046875 
Q 4.046875 5.46875 5.1875 6.546875 
Q 6.34375 7.625 7.953125 7.625 
Q 9.1875 7.625 10.453125 7.234375 
Q 11.28125 6.984375 14.203125 5.4375 
Q 17.140625 3.90625 18.265625 3.609375 
Q 20.0625 3.078125 22.125 3.078125 
Q 27.09375 3.078125 30.78125 6.9375 
Q 34.46875 10.796875 34.46875 16.0625 
Q 34.46875 19.921875 32.765625 23.578125 
Q 31.5 26.3125 29.984375 27.734375 
Q 27.875 29.6875 24.21875 31.265625 
Q 20.5625 32.859375 16.75 32.859375 
L 15.1875 32.859375 
L 15.1875 34.328125 
Q 19.046875 34.8125 22.921875 37.109375 
Q 26.8125 39.40625 28.5625 42.625 
Q 30.328125 45.84375 30.328125 49.703125 
Q 30.328125 54.734375 27.171875 57.828125 
Q 24.03125 60.9375 19.34375 60.9375 
Q 11.765625 60.9375 6.6875 52.828125 
z
" id="TimesNewRomanPSMT-33"/>
      </defs>
      <g transform="translate(124.950226 326.10752)rotate(-45)scale(0.24 -0.24)">
       <use xlink:href="#TimesNewRomanPSMT-32"/>
       <use x="50" xlink:href="#TimesNewRomanPSMT-30"/>
       <use x="100" xlink:href="#TimesNewRomanPSMT-31"/>
       <use x="150" xlink:href="#TimesNewRomanPSMT-36"/>
       <use x="200" xlink:href="#TimesNewRomanPSMT-2d"/>
       <use x="233.300781" xlink:href="#TimesNewRomanPSMT-30"/>
       <use x="283.300781" xlink:href="#TimesNewRomanPSMT-31"/>
       <use x="333.300781" xlink:href="#TimesNewRomanPSMT-2d"/>
       <use x="366.601562" xlink:href="#TimesNewRomanPSMT-31"/>
       <use x="416.601562" xlink:href="#TimesNewRomanPSMT-33"/>
      </g>
     </g>
    </g>
    <g id="xtick_3">
     <g id="line2d_3">
      <g>
       <use style="stroke:#000000;stroke-width:0.8;" x="233.366576" xlink:href="#m881ba3ca96" y="228.14"/>
      </g>
     </g>
     <g id="text_3">
      <!-- 2016-01-14 -->
      <defs>
       <path d="M 46.53125 24.421875 
L 46.53125 17.484375 
L 37.640625 17.484375 
L 37.640625 0 
L 29.59375 0 
L 29.59375 17.484375 
L 1.5625 17.484375 
L 1.5625 23.734375 
L 32.28125 67.578125 
L 37.640625 67.578125 
L 37.640625 24.421875 
z
M 29.59375 24.421875 
L 29.59375 57.28125 
L 6.34375 24.421875 
z
" id="TimesNewRomanPSMT-34"/>
      </defs>
      <g transform="translate(197.851696 326.10752)rotate(-45)scale(0.24 -0.24)">
       <use xlink:href="#TimesNewRomanPSMT-32"/>
       <use x="50" xlink:href="#TimesNewRomanPSMT-30"/>
       <use x="100" xlink:href="#TimesNewRomanPSMT-31"/>
       <use x="150" xlink:href="#TimesNewRomanPSMT-36"/>
       <use x="200" xlink:href="#TimesNewRomanPSMT-2d"/>
       <use x="233.300781" xlink:href="#TimesNewRomanPSMT-30"/>
       <use x="283.300781" xlink:href="#TimesNewRomanPSMT-31"/>
       <use x="333.300781" xlink:href="#TimesNewRomanPSMT-2d"/>
       <use x="366.601562" xlink:href="#TimesNewRomanPSMT-31"/>
       <use x="416.601562" xlink:href="#TimesNewRomanPSMT-34"/>
      </g>
     </g>
    </g>
    <g id="xtick_4">
     <g id="line2d_4">
      <g>
       <use style="stroke:#000000;stroke-width:0.8;" x="306.268046" xlink:href="#m881ba3ca96" y="228.14"/>
      </g>
     </g>
     <g id="text_4">
      <!-- 2016-01-15 -->
      <defs>
       <path d="M 43.40625 66.21875 
L 39.59375 57.90625 
L 19.671875 57.90625 
L 15.328125 49.03125 
Q 28.265625 47.125 35.84375 39.40625 
Q 42.328125 32.765625 42.328125 23.78125 
Q 42.328125 18.5625 40.203125 14.109375 
Q 38.09375 9.671875 34.859375 6.546875 
Q 31.640625 3.421875 27.6875 1.515625 
Q 22.078125 -1.171875 16.15625 -1.171875 
Q 10.203125 -1.171875 7.484375 0.84375 
Q 4.78125 2.875 4.78125 5.328125 
Q 4.78125 6.6875 5.90625 7.734375 
Q 7.03125 8.796875 8.734375 8.796875 
Q 10.015625 8.796875 10.96875 8.40625 
Q 11.921875 8.015625 14.203125 6.390625 
Q 17.875 3.859375 21.625 3.859375 
Q 27.34375 3.859375 31.65625 8.171875 
Q 35.984375 12.5 35.984375 18.703125 
Q 35.984375 24.703125 32.125 29.90625 
Q 28.265625 35.109375 21.484375 37.9375 
Q 16.15625 40.140625 6.984375 40.484375 
L 19.671875 66.21875 
z
" id="TimesNewRomanPSMT-35"/>
      </defs>
      <g transform="translate(270.753166 326.10752)rotate(-45)scale(0.24 -0.24)">
       <use xlink:href="#TimesNewRomanPSMT-32"/>
       <use x="50" xlink:href="#TimesNewRomanPSMT-30"/>
       <use x="100" xlink:href="#TimesNewRomanPSMT-31"/>
       <use x="150" xlink:href="#TimesNewRomanPSMT-36"/>
       <use x="200" xlink:href="#TimesNewRomanPSMT-2d"/>
       <use x="233.300781" xlink:href="#TimesNewRomanPSMT-30"/>
       <use x="283.300781" xlink:href="#TimesNewRomanPSMT-31"/>
       <use x="333.300781" xlink:href="#TimesNewRomanPSMT-2d"/>
       <use x="366.601562" xlink:href="#TimesNewRomanPSMT-31"/>
       <use x="416.601562" xlink:href="#TimesNewRomanPSMT-35"/>
      </g>
     </g>
    </g>
    <g id="xtick_5">
     <g id="line2d_5">
      <g>
       <use style="stroke:#000000;stroke-width:0.8;" x="379.169516" xlink:href="#m881ba3ca96" y="228.14"/>
      </g>
     </g>
     <g id="text_5">
      <!-- 2016-01-16 -->
      <g transform="translate(343.654635 326.10752)rotate(-45)scale(0.24 -0.24)">
       <use xlink:href="#TimesNewRomanPSMT-32"/>
       <use x="50" xlink:href="#TimesNewRomanPSMT-30"/>
       <use x="100" xlink:href="#TimesNewRomanPSMT-31"/>
       <use x="150" xlink:href="#TimesNewRomanPSMT-36"/>
       <use x="200" xlink:href="#TimesNewRomanPSMT-2d"/>
       <use x="233.300781" xlink:href="#TimesNewRomanPSMT-30"/>
       <use x="283.300781" xlink:href="#TimesNewRomanPSMT-31"/>
       <use x="333.300781" xlink:href="#TimesNewRomanPSMT-2d"/>
       <use x="366.601562" xlink:href="#TimesNewRomanPSMT-31"/>
       <use x="416.601562" xlink:href="#TimesNewRomanPSMT-36"/>
      </g>
     </g>
    </g>
    <g id="xtick_6">
     <g id="line2d_6">
      <g>
       <use style="stroke:#000000;stroke-width:0.8;" x="452.070985" xlink:href="#m881ba3ca96" y="228.14"/>
      </g>
     </g>
     <g id="text_6">
      <!-- 2016-01-17 -->
      <defs>
       <path d="M 10.0625 66.21875 
L 45.5625 66.21875 
L 45.5625 64.359375 
L 23.484375 -1.375 
L 18.015625 -1.375 
L 37.796875 58.25 
L 19.578125 58.25 
Q 14.0625 58.25 11.71875 56.9375 
Q 7.625 54.6875 5.125 50 
L 3.71875 50.53125 
z
" id="TimesNewRomanPSMT-37"/>
      </defs>
      <g transform="translate(416.556105 326.10752)rotate(-45)scale(0.24 -0.24)">
       <use xlink:href="#TimesNewRomanPSMT-32"/>
       <use x="50" xlink:href="#TimesNewRomanPSMT-30"/>
       <use x="100" xlink:href="#TimesNewRomanPSMT-31"/>
       <use x="150" xlink:href="#TimesNewRomanPSMT-36"/>
       <use x="200" xlink:href="#TimesNewRomanPSMT-2d"/>
       <use x="233.300781" xlink:href="#TimesNewRomanPSMT-30"/>
       <use x="283.300781" xlink:href="#TimesNewRomanPSMT-31"/>
       <use x="333.300781" xlink:href="#TimesNewRomanPSMT-2d"/>
       <use x="366.601562" xlink:href="#TimesNewRomanPSMT-31"/>
       <use x="416.601562" xlink:href="#TimesNewRomanPSMT-37"/>
      </g>
     </g>
    </g>
    <g id="xtick_7">
     <g id="line2d_7">
      <g>
       <use style="stroke:#000000;stroke-width:0.8;" x="524.972455" xlink:href="#m881ba3ca96" y="228.14"/>
      </g>
     </g>
     <g id="text_7">
      <!-- 2016-01-18 -->
      <defs>
       <path d="M 19.1875 33.34375 
Q 11.328125 39.796875 9.046875 43.703125 
Q 6.78125 47.609375 6.78125 51.8125 
Q 6.78125 58.25 11.765625 62.90625 
Q 16.75 67.578125 25 67.578125 
Q 33.015625 67.578125 37.890625 63.234375 
Q 42.78125 58.890625 42.78125 53.328125 
Q 42.78125 49.609375 40.140625 45.75 
Q 37.5 41.890625 29.15625 36.671875 
Q 37.75 30.03125 40.53125 26.21875 
Q 44.234375 21.234375 44.234375 15.71875 
Q 44.234375 8.734375 38.90625 3.78125 
Q 33.59375 -1.171875 24.953125 -1.171875 
Q 15.53125 -1.171875 10.25 4.734375 
Q 6.0625 9.46875 6.0625 15.09375 
Q 6.0625 19.484375 9.015625 23.796875 
Q 11.96875 28.125 19.1875 33.34375 
M 26.859375 38.578125 
Q 32.71875 43.84375 34.28125 46.890625 
Q 35.84375 49.953125 35.84375 53.8125 
Q 35.84375 58.9375 32.953125 61.84375 
Q 30.078125 64.75 25.09375 64.75 
Q 20.125 64.75 17 61.859375 
Q 13.875 58.984375 13.875 55.125 
Q 13.875 52.59375 15.15625 50.046875 
Q 16.453125 47.515625 18.84375 45.21875 
z
M 21.484375 31.5 
Q 17.4375 28.078125 15.484375 24.046875 
Q 13.53125 20.015625 13.53125 15.328125 
Q 13.53125 9.03125 16.96875 5.25 
Q 20.40625 1.46875 25.734375 1.46875 
Q 31 1.46875 34.171875 4.4375 
Q 37.359375 7.421875 37.359375 11.671875 
Q 37.359375 15.1875 35.5 17.96875 
Q 32.03125 23.140625 21.484375 31.5 
" id="TimesNewRomanPSMT-38"/>
      </defs>
      <g transform="translate(489.457575 326.10752)rotate(-45)scale(0.24 -0.24)">
       <use xlink:href="#TimesNewRomanPSMT-32"/>
       <use x="50" xlink:href="#TimesNewRomanPSMT-30"/>
       <use x="100" xlink:href="#TimesNewRomanPSMT-31"/>
       <use x="150" xlink:href="#TimesNewRomanPSMT-36"/>
       <use x="200" xlink:href="#TimesNewRomanPSMT-2d"/>
       <use x="233.300781" xlink:href="#TimesNewRomanPSMT-30"/>
       <use x="283.300781" xlink:href="#TimesNewRomanPSMT-31"/>
       <use x="333.300781" xlink:href="#TimesNewRomanPSMT-2d"/>
       <use x="366.601562" xlink:href="#TimesNewRomanPSMT-31"/>
       <use x="416.601562" xlink:href="#TimesNewRomanPSMT-38"/>
      </g>
     </g>
    </g>
   </g>
   <g id="matplotlib.axis_2">
    <g id="ytick_1">
     <g id="line2d_8">
      <defs>
       <path d="M 0 0 
L -3.5 0 
" id="mf40ea5bb58" style="stroke:#000000;stroke-width:0.8;"/>
      </defs>
      <g>
       <use style="stroke:#000000;stroke-width:0.8;" x="62.2" xlink:href="#mf40ea5bb58" y="167.587089"/>
      </g>
     </g>
     <g id="text_8">
      <!-- 1000 -->
      <g transform="translate(7.2 175.919589)scale(0.24 -0.24)">
       <use xlink:href="#TimesNewRomanPSMT-31"/>
       <use x="50" xlink:href="#TimesNewRomanPSMT-30"/>
       <use x="100" xlink:href="#TimesNewRomanPSMT-30"/>
       <use x="150" xlink:href="#TimesNewRomanPSMT-30"/>
      </g>
     </g>
    </g>
    <g id="ytick_2">
     <g id="line2d_9">
      <g>
       <use style="stroke:#000000;stroke-width:0.8;" x="62.2" xlink:href="#mf40ea5bb58" y="105.032428"/>
      </g>
     </g>
     <g id="text_9">
      <!-- 2000 -->
      <g transform="translate(7.2 113.364928)scale(0.24 -0.24)">
       <use xlink:href="#TimesNewRomanPSMT-32"/>
       <use x="50" xlink:href="#TimesNewRomanPSMT-30"/>
       <use x="100" xlink:href="#TimesNewRomanPSMT-30"/>
       <use x="150" xlink:href="#TimesNewRomanPSMT-30"/>
      </g>
     </g>
    </g>
    <g id="ytick_3">
     <g id="line2d_10">
      <g>
       <use style="stroke:#000000;stroke-width:0.8;" x="62.2" xlink:href="#mf40ea5bb58" y="42.477768"/>
      </g>
     </g>
     <g id="text_10">
      <!-- 3000 -->
      <g transform="translate(7.2 50.810268)scale(0.24 -0.24)">
       <use xlink:href="#TimesNewRomanPSMT-33"/>
       <use x="50" xlink:href="#TimesNewRomanPSMT-30"/>
       <use x="100" xlink:href="#TimesNewRomanPSMT-30"/>
       <use x="150" xlink:href="#TimesNewRomanPSMT-30"/>
      </g>
     </g>
    </g>
   </g>
   <g id="line2d_11">
    <path clip-path="url(#p2b889618af)" d="M 87.563636 176.970288 
L 90.601198 166.961542 
L 93.638759 213.251991 
L 96.67632 217.00527 
L 99.713881 213.251991 
L 102.751443 213.877537 
L 105.789004 215.128631 
L 108.826565 208.873165 
L 111.864126 197.613326 
L 114.901688 213.877537 
L 117.939249 143.816318 
L 120.97681 209.498711 
L 124.014371 160.080529 
L 127.051932 173.217008 
L 130.089494 178.846928 
L 133.127055 216.379724 
L 136.164616 215.128631 
L 139.202177 148.195144 
L 142.239739 208.247618 
L 148.314861 210.749804 
L 151.352422 214.503084 
L 154.389984 212.626444 
L 157.427545 213.877537 
L 160.465106 218.256364 
L 163.502667 212.000898 
L 166.540229 213.251991 
L 169.57779 218.256364 
L 172.615351 213.251991 
L 175.652912 214.503084 
L 178.690474 205.119885 
L 181.728035 206.370978 
L 184.765596 151.948423 
L 187.803157 147.569597 
L 190.840719 205.119885 
L 193.87828 207.622071 
L 196.915841 214.503084 
L 199.953402 217.00527 
L 202.990964 213.251991 
L 206.028525 214.503084 
L 209.066086 200.115512 
L 212.103647 193.860046 
L 215.141208 188.230127 
L 218.17877 150.071784 
L 221.216331 136.935305 
L 224.253892 112.538987 
L 227.291453 180.723567 
L 230.329015 214.503084 
L 233.366576 212.626444 
L 236.404137 216.379724 
L 239.441698 213.877537 
L 242.47926 213.251991 
L 245.516821 217.00527 
L 248.554382 213.251991 
L 251.591943 215.128631 
L 254.629505 145.067411 
L 257.667066 170.089275 
L 260.704627 166.961542 
L 263.742188 28.090196 
L 266.77975 140.688585 
L 269.817311 123.798826 
L 272.854872 203.868792 
L 275.892433 181.349114 
L 278.929995 210.749804 
L 281.967556 114.415627 
L 285.005117 78.133924 
L 288.042678 148.82069 
L 291.08024 143.190771 
L 294.117801 188.855673 
L 297.155362 186.353487 
L 300.192923 212.000898 
L 303.230484 215.754177 
L 306.268046 210.124258 
L 309.305607 210.749804 
L 312.343168 212.626444 
L 315.380729 213.877537 
L 318.418291 211.375351 
L 321.455852 211.375351 
L 324.493413 213.251991 
L 327.530974 210.749804 
L 330.568536 141.939678 
L 333.606097 152.57397 
L 336.643658 183.225754 
L 339.681219 183.225754 
L 342.718781 151.322877 
L 345.756342 156.32725 
L 348.793903 206.370978 
L 351.831464 208.873165 
L 354.869026 208.873165 
L 357.906587 193.234499 
L 360.944148 125.675466 
L 363.981709 147.569597 
L 367.019271 142.565224 
L 370.056832 143.816318 
L 373.094393 148.195144 
L 376.131954 206.370978 
L 379.169516 215.128631 
L 382.207077 210.124258 
L 385.244638 212.626444 
L 388.282199 214.503084 
L 391.31976 211.375351 
L 394.357322 215.128631 
L 397.394883 210.749804 
L 400.432444 137.560852 
L 403.470005 177.595834 
L 406.507567 206.996525 
L 409.545128 203.243245 
L 412.582689 210.124258 
L 415.62025 201.992152 
L 418.657812 197.613326 
L 421.695373 203.243245 
L 424.732934 151.948423 
L 427.770495 201.992152 
L 430.808057 130.679839 
L 433.845618 52.486513 
L 436.883179 83.138297 
L 439.92074 185.72794 
L 442.958302 185.102394 
L 445.995863 166.335995 
L 449.033424 209.498711 
L 452.070985 212.626444 
L 455.108547 210.749804 
L 458.146108 213.877537 
L 461.183669 211.375351 
L 464.22123 210.749804 
L 467.258792 213.877537 
L 470.296353 213.251991 
L 473.333914 99.402509 
L 476.371475 128.177652 
L 479.409036 120.671093 
L 482.446598 196.362232 
L 485.484159 110.662348 
L 488.52172 185.72794 
L 491.559281 166.335995 
L 494.596843 178.221381 
L 497.634404 199.489965 
L 500.671965 199.489965 
L 503.709526 59.367526 
L 506.747088 129.428746 
L 509.784649 191.983406 
L 512.82221 188.855673 
L 515.859771 181.349114 
L 518.897333 209.498711 
L 521.934894 206.370978 
L 524.972455 213.251991 
L 528.010016 213.877537 
L 531.047578 213.877537 
L 534.085139 214.503084 
L 537.1227 213.251991 
L 540.160261 217.630817 
L 543.197823 209.498711 
L 546.235384 209.498711 
L 549.272945 217.00527 
L 552.310506 213.251991 
L 555.348068 218.256364 
L 558.385629 213.251991 
L 561.42319 215.128631 
L 564.460751 215.128631 
L 567.498312 214.503084 
L 570.535874 217.630817 
L 573.573435 212.626444 
L 576.610996 217.00527 
L 579.648557 117.54336 
L 582.686119 156.952796 
L 585.72368 20.583636 
L 588.761241 100.653602 
L 591.798802 208.873165 
L 594.836364 213.251991 
L 594.836364 213.251991 
" style="fill:none;stroke:#000000;stroke-linecap:square;stroke-width:1.5;"/>
   </g>
   <g id="patch_3">
    <path d="M 62.2 228.14 
L 62.2 10.7 
" style="fill:none;stroke:#000000;stroke-linecap:square;stroke-linejoin:miter;stroke-width:0.8;"/>
   </g>
   <g id="patch_4">
    <path d="M 620.2 228.14 
L 620.2 10.7 
" style="fill:none;stroke:#000000;stroke-linecap:square;stroke-linejoin:miter;stroke-width:0.8;"/>
   </g>
   <g id="patch_5">
    <path d="M 62.2 228.14 
L 620.2 228.14 
" style="fill:none;stroke:#000000;stroke-linecap:square;stroke-linejoin:miter;stroke-width:0.8;"/>
   </g>
   <g id="patch_6">
    <path d="M 62.2 10.7 
L 620.2 10.7 
" style="fill:none;stroke:#000000;stroke-linecap:square;stroke-linejoin:miter;stroke-width:0.8;"/>
   </g>
  </g>
 </g>
 <defs>
  <clipPath id="p2b889618af">
   <rect height="217.44" width="558" x="62.2" y="10.7"/>
  </clipPath>
 </defs>
</svg>
