<?xml version="1.0" encoding="utf-8" standalone="no"?>
<!DOCTYPE svg PUBLIC "-//W3C//DTD SVG 1.1//EN"
  "http://www.w3.org/Graphics/SVG/1.1/DTD/svg11.dtd">
<!-- Created with matplotlib (http://matplotlib.org/) -->
<svg height="289pt" version="1.1" viewBox="0 0 656 289" width="656pt" xmlns="http://www.w3.org/2000/svg" xmlns:xlink="http://www.w3.org/1999/xlink">
 <defs>
  <style type="text/css">
*{stroke-linecap:butt;stroke-linejoin:round;}
  </style>
 </defs>
 <g id="figure_1">
  <g id="patch_1">
   <path d="M 0 289.9375 
L 656.69875 289.9375 
L 656.69875 0 
L 0 0 
z
" style="fill:#ffffff;"/>
  </g>
  <g id="axes_1">
   <g id="patch_2">
    <path d="M 87.99875 228.14 
L 645.99875 228.14 
L 645.99875 10.7 
L 87.99875 10.7 
z
" style="fill:#ffffff;"/>
   </g>
   <g id="matplotlib.axis_1">
    <g id="xtick_1">
     <g id="line2d_1">
      <defs>
       <path d="M 0 0 
L 0 3.5 
" id="m2f1edc7fb8" style="stroke:#000000;stroke-width:0.8;"/>
      </defs>
      <g>
       <use style="stroke:#000000;stroke-width:0.8;" x="113.362386" xlink:href="#m2f1edc7fb8" y="228.14"/>
      </g>
     </g>
     <g id="text_1">
      <!-- 1 -->
      <defs>
       <path d="M 11.71875 59.71875 
L 27.828125 67.578125 
L 29.4375 67.578125 
L 29.4375 11.671875 
Q 29.4375 6.109375 29.90625 4.734375 
Q 30.375 3.375 31.828125 2.640625 
Q 33.296875 1.90625 37.796875 1.8125 
L 37.796875 0 
L 12.890625 0 
L 12.890625 1.8125 
Q 17.578125 1.90625 18.9375 2.609375 
Q 20.3125 3.328125 20.84375 4.515625 
Q 21.390625 5.71875 21.390625 11.671875 
L 21.390625 47.40625 
Q 21.390625 54.640625 20.90625 56.6875 
Q 20.5625 58.25 19.65625 58.984375 
Q 18.75 59.71875 17.484375 59.71875 
Q 15.671875 59.71875 12.453125 58.203125 
z
" id="TimesNewRomanPSMT-31"/>
      </defs>
      <g transform="translate(107.362386 251.805)scale(0.24 -0.24)">
       <use xlink:href="#TimesNewRomanPSMT-31"/>
      </g>
     </g>
    </g>
    <g id="xtick_2">
     <g id="line2d_2">
      <g>
       <use style="stroke:#000000;stroke-width:0.8;" x="185.901883" xlink:href="#m2f1edc7fb8" y="228.14"/>
      </g>
     </g>
     <g id="text_2">
      <!-- 2 -->
      <defs>
       <path d="M 45.84375 12.75 
L 41.21875 0 
L 2.15625 0 
L 2.15625 1.8125 
Q 19.390625 17.53125 26.421875 27.484375 
Q 33.453125 37.453125 33.453125 45.703125 
Q 33.453125 52 29.59375 56.046875 
Q 25.734375 60.109375 20.359375 60.109375 
Q 15.484375 60.109375 11.59375 57.25 
Q 7.71875 54.390625 5.859375 48.875 
L 4.046875 48.875 
Q 5.28125 57.90625 10.328125 62.734375 
Q 15.375 67.578125 22.953125 67.578125 
Q 31 67.578125 36.390625 62.40625 
Q 41.796875 57.234375 41.796875 50.203125 
Q 41.796875 45.171875 39.453125 40.140625 
Q 35.84375 32.234375 27.734375 23.390625 
Q 15.578125 10.109375 12.546875 7.375 
L 29.828125 7.375 
Q 35.109375 7.375 37.234375 7.765625 
Q 39.359375 8.15625 41.0625 9.34375 
Q 42.78125 10.546875 44.046875 12.75 
z
" id="TimesNewRomanPSMT-32"/>
      </defs>
      <g transform="translate(179.901883 251.805)scale(0.24 -0.24)">
       <use xlink:href="#TimesNewRomanPSMT-32"/>
      </g>
     </g>
    </g>
    <g id="xtick_3">
     <g id="line2d_3">
      <g>
       <use style="stroke:#000000;stroke-width:0.8;" x="258.441379" xlink:href="#m2f1edc7fb8" y="228.14"/>
      </g>
     </g>
     <g id="text_3">
      <!-- 3 -->
      <defs>
       <path d="M 5.078125 53.609375 
Q 7.90625 60.296875 12.21875 63.9375 
Q 16.546875 67.578125 23 67.578125 
Q 30.953125 67.578125 35.203125 62.40625 
Q 38.421875 58.546875 38.421875 54.15625 
Q 38.421875 46.921875 29.34375 39.203125 
Q 35.453125 36.8125 38.578125 32.375 
Q 41.703125 27.9375 41.703125 21.921875 
Q 41.703125 13.328125 36.234375 7.03125 
Q 29.109375 -1.171875 15.578125 -1.171875 
Q 8.890625 -1.171875 6.46875 0.484375 
Q 4.046875 2.15625 4.046875 4.046875 
Q 4.046875 5.46875 5.1875 6.546875 
Q 6.34375 7.625 7.953125 7.625 
Q 9.1875 7.625 10.453125 7.234375 
Q 11.28125 6.984375 14.203125 5.4375 
Q 17.140625 3.90625 18.265625 3.609375 
Q 20.0625 3.078125 22.125 3.078125 
Q 27.09375 3.078125 30.78125 6.9375 
Q 34.46875 10.796875 34.46875 16.0625 
Q 34.46875 19.921875 32.765625 23.578125 
Q 31.5 26.3125 29.984375 27.734375 
Q 27.875 29.6875 24.21875 31.265625 
Q 20.5625 32.859375 16.75 32.859375 
L 15.1875 32.859375 
L 15.1875 34.328125 
Q 19.046875 34.8125 22.921875 37.109375 
Q 26.8125 39.40625 28.5625 42.625 
Q 30.328125 45.84375 30.328125 49.703125 
Q 30.328125 54.734375 27.171875 57.828125 
Q 24.03125 60.9375 19.34375 60.9375 
Q 11.765625 60.9375 6.6875 52.828125 
z
" id="TimesNewRomanPSMT-33"/>
      </defs>
      <g transform="translate(252.441379 251.805)scale(0.24 -0.24)">
       <use xlink:href="#TimesNewRomanPSMT-33"/>
      </g>
     </g>
    </g>
    <g id="xtick_4">
     <g id="line2d_4">
      <g>
       <use style="stroke:#000000;stroke-width:0.8;" x="330.980875" xlink:href="#m2f1edc7fb8" y="228.14"/>
      </g>
     </g>
     <g id="text_4">
      <!-- 4 -->
      <defs>
       <path d="M 46.53125 24.421875 
L 46.53125 17.484375 
L 37.640625 17.484375 
L 37.640625 0 
L 29.59375 0 
L 29.59375 17.484375 
L 1.5625 17.484375 
L 1.5625 23.734375 
L 32.28125 67.578125 
L 37.640625 67.578125 
L 37.640625 24.421875 
z
M 29.59375 24.421875 
L 29.59375 57.28125 
L 6.34375 24.421875 
z
" id="TimesNewRomanPSMT-34"/>
      </defs>
      <g transform="translate(324.980875 251.805)scale(0.24 -0.24)">
       <use xlink:href="#TimesNewRomanPSMT-34"/>
      </g>
     </g>
    </g>
    <g id="xtick_5">
     <g id="line2d_5">
      <g>
       <use style="stroke:#000000;stroke-width:0.8;" x="403.520371" xlink:href="#m2f1edc7fb8" y="228.14"/>
      </g>
     </g>
     <g id="text_5">
      <!-- 5 -->
      <defs>
       <path d="M 43.40625 66.21875 
L 39.59375 57.90625 
L 19.671875 57.90625 
L 15.328125 49.03125 
Q 28.265625 47.125 35.84375 39.40625 
Q 42.328125 32.765625 42.328125 23.78125 
Q 42.328125 18.5625 40.203125 14.109375 
Q 38.09375 9.671875 34.859375 6.546875 
Q 31.640625 3.421875 27.6875 1.515625 
Q 22.078125 -1.171875 16.15625 -1.171875 
Q 10.203125 -1.171875 7.484375 0.84375 
Q 4.78125 2.875 4.78125 5.328125 
Q 4.78125 6.6875 5.90625 7.734375 
Q 7.03125 8.796875 8.734375 8.796875 
Q 10.015625 8.796875 10.96875 8.40625 
Q 11.921875 8.015625 14.203125 6.390625 
Q 17.875 3.859375 21.625 3.859375 
Q 27.34375 3.859375 31.65625 8.171875 
Q 35.984375 12.5 35.984375 18.703125 
Q 35.984375 24.703125 32.125 29.90625 
Q 28.265625 35.109375 21.484375 37.9375 
Q 16.15625 40.140625 6.984375 40.484375 
L 19.671875 66.21875 
z
" id="TimesNewRomanPSMT-35"/>
      </defs>
      <g transform="translate(397.520371 251.805)scale(0.24 -0.24)">
       <use xlink:href="#TimesNewRomanPSMT-35"/>
      </g>
     </g>
    </g>
    <g id="xtick_6">
     <g id="line2d_6">
      <g>
       <use style="stroke:#000000;stroke-width:0.8;" x="476.059868" xlink:href="#m2f1edc7fb8" y="228.14"/>
      </g>
     </g>
     <g id="text_6">
      <!-- 6 -->
      <defs>
       <path d="M 44.828125 67.578125 
L 44.828125 65.765625 
Q 38.375 65.140625 34.296875 63.203125 
Q 30.21875 61.28125 26.234375 57.328125 
Q 22.265625 53.375 19.65625 48.515625 
Q 17.046875 43.65625 15.28125 36.96875 
Q 22.3125 41.796875 29.390625 41.796875 
Q 36.1875 41.796875 41.15625 36.328125 
Q 46.140625 30.859375 46.140625 22.265625 
Q 46.140625 13.96875 41.109375 7.125 
Q 35.0625 -1.171875 25.09375 -1.171875 
Q 18.3125 -1.171875 13.578125 3.328125 
Q 4.296875 12.0625 4.296875 25.984375 
Q 4.296875 34.859375 7.859375 42.859375 
Q 11.421875 50.875 18.03125 57.078125 
Q 24.65625 63.28125 30.703125 65.421875 
Q 36.765625 67.578125 42 67.578125 
z
M 14.453125 33.40625 
Q 13.578125 26.8125 13.578125 22.75 
Q 13.578125 18.0625 15.3125 12.5625 
Q 17.046875 7.078125 20.453125 3.859375 
Q 22.953125 1.5625 26.515625 1.5625 
Q 30.765625 1.5625 34.109375 5.5625 
Q 37.453125 9.578125 37.453125 17 
Q 37.453125 25.34375 34.125 31.4375 
Q 30.8125 37.546875 24.703125 37.546875 
Q 22.859375 37.546875 20.734375 36.765625 
Q 18.609375 35.984375 14.453125 33.40625 
" id="TimesNewRomanPSMT-36"/>
      </defs>
      <g transform="translate(470.059868 251.805)scale(0.24 -0.24)">
       <use xlink:href="#TimesNewRomanPSMT-36"/>
      </g>
     </g>
    </g>
    <g id="xtick_7">
     <g id="line2d_7">
      <g>
       <use style="stroke:#000000;stroke-width:0.8;" x="548.599364" xlink:href="#m2f1edc7fb8" y="228.14"/>
      </g>
     </g>
     <g id="text_7">
      <!-- 7 -->
      <defs>
       <path d="M 10.0625 66.21875 
L 45.5625 66.21875 
L 45.5625 64.359375 
L 23.484375 -1.375 
L 18.015625 -1.375 
L 37.796875 58.25 
L 19.578125 58.25 
Q 14.0625 58.25 11.71875 56.9375 
Q 7.625 54.6875 5.125 50 
L 3.71875 50.53125 
z
" id="TimesNewRomanPSMT-37"/>
      </defs>
      <g transform="translate(542.599364 251.805)scale(0.24 -0.24)">
       <use xlink:href="#TimesNewRomanPSMT-37"/>
      </g>
     </g>
    </g>
    <g id="text_8">
     <!-- Week -->
     <defs>
      <path d="M 93.609375 66.21875 
L 93.609375 64.40625 
Q 91.015625 64.40625 89.40625 63.46875 
Q 87.796875 62.546875 86.328125 60.015625 
Q 85.359375 58.296875 83.25 51.859375 
L 64.796875 -1.515625 
L 62.84375 -1.515625 
L 47.75 40.828125 
L 32.765625 -1.515625 
L 31 -1.515625 
L 11.328125 53.46875 
Q 9.125 59.625 8.546875 60.75 
Q 7.5625 62.59375 5.875 63.5 
Q 4.203125 64.40625 1.3125 64.40625 
L 1.3125 66.21875 
L 25.828125 66.21875 
L 25.828125 64.40625 
L 24.65625 64.40625 
Q 22.078125 64.40625 20.703125 63.234375 
Q 19.34375 62.0625 19.34375 60.40625 
Q 19.34375 58.6875 21.484375 52.546875 
L 34.515625 15.375 
L 45.515625 46.96875 
L 43.5625 52.546875 
L 42 56.984375 
Q 40.96875 59.421875 39.703125 61.28125 
Q 39.0625 62.203125 38.140625 62.84375 
Q 36.921875 63.71875 35.6875 64.109375 
Q 34.765625 64.40625 32.765625 64.40625 
L 32.765625 66.21875 
L 58.546875 66.21875 
L 58.546875 64.40625 
L 56.78125 64.40625 
Q 54.046875 64.40625 52.78125 63.234375 
Q 51.515625 62.0625 51.515625 60.0625 
Q 51.515625 57.5625 53.71875 51.375 
L 66.40625 15.375 
L 79 51.859375 
Q 81.15625 57.90625 81.15625 60.25 
Q 81.15625 61.375 80.4375 62.34375 
Q 79.734375 63.328125 78.65625 63.71875 
Q 76.8125 64.40625 73.828125 64.40625 
L 73.828125 66.21875 
z
" id="TimesNewRomanPSMT-57"/>
      <path d="M 10.640625 27.875 
Q 10.59375 17.921875 15.484375 12.25 
Q 20.359375 6.59375 26.953125 6.59375 
Q 31.34375 6.59375 34.59375 9 
Q 37.84375 11.421875 40.046875 17.28125 
L 41.546875 16.3125 
Q 40.53125 9.625 35.59375 4.125 
Q 30.671875 -1.375 23.25 -1.375 
Q 15.1875 -1.375 9.453125 4.90625 
Q 3.71875 11.1875 3.71875 21.78125 
Q 3.71875 33.25 9.59375 39.671875 
Q 15.484375 46.09375 24.359375 46.09375 
Q 31.890625 46.09375 36.71875 41.140625 
Q 41.546875 36.1875 41.546875 27.875 
z
M 10.640625 30.71875 
L 31.34375 30.71875 
Q 31.109375 35.015625 30.328125 36.765625 
Q 29.109375 39.5 26.6875 41.0625 
Q 24.265625 42.625 21.625 42.625 
Q 17.578125 42.625 14.375 39.46875 
Q 11.1875 36.328125 10.640625 30.71875 
" id="TimesNewRomanPSMT-65"/>
      <path d="M 16.359375 69.4375 
L 16.359375 24.953125 
L 27.734375 35.296875 
Q 31.34375 38.625 31.9375 39.5 
Q 32.328125 40.09375 32.328125 40.671875 
Q 32.328125 41.65625 31.515625 42.359375 
Q 30.71875 43.0625 28.859375 43.171875 
L 28.859375 44.734375 
L 48.296875 44.734375 
L 48.296875 43.171875 
Q 44.28125 43.0625 41.625 41.9375 
Q 38.96875 40.828125 35.796875 37.9375 
L 24.3125 27.34375 
L 35.796875 12.84375 
Q 40.578125 6.84375 42.234375 5.21875 
Q 44.578125 2.9375 46.34375 2.25 
Q 47.5625 1.765625 50.59375 1.765625 
L 50.59375 0 
L 28.859375 0 
L 28.859375 1.765625 
Q 30.71875 1.8125 31.375 2.3125 
Q 32.03125 2.828125 32.03125 3.765625 
Q 32.03125 4.890625 30.078125 7.375 
L 16.359375 24.90625 
L 16.359375 10.0625 
Q 16.359375 5.71875 16.96875 4.34375 
Q 17.578125 2.984375 18.703125 2.390625 
Q 19.828125 1.8125 23.578125 1.765625 
L 23.578125 0 
L 0.828125 0 
L 0.828125 1.765625 
Q 4.25 1.765625 5.953125 2.59375 
Q 6.984375 3.125 7.515625 4.25 
Q 8.25 5.859375 8.25 9.8125 
L 8.25 50.53125 
Q 8.25 58.296875 7.90625 60.03125 
Q 7.5625 61.765625 6.78125 62.421875 
Q 6 63.09375 4.734375 63.09375 
Q 3.71875 63.09375 1.65625 62.25 
L 0.828125 63.96875 
L 14.109375 69.4375 
z
" id="TimesNewRomanPSMT-6b"/>
     </defs>
     <g transform="translate(339.033125 277.60375)scale(0.24 -0.24)">
      <use xlink:href="#TimesNewRomanPSMT-57"/>
      <use x="94.259766" xlink:href="#TimesNewRomanPSMT-65"/>
      <use x="138.644531" xlink:href="#TimesNewRomanPSMT-65"/>
      <use x="183.029297" xlink:href="#TimesNewRomanPSMT-6b"/>
     </g>
    </g>
   </g>
   <g id="matplotlib.axis_2">
    <g id="ytick_1">
     <g id="line2d_8">
      <defs>
       <path d="M 0 0 
L -3.5 0 
" id="mdb858dc280" style="stroke:#000000;stroke-width:0.8;"/>
      </defs>
      <g>
       <use style="stroke:#000000;stroke-width:0.8;" x="87.99875" xlink:href="#mdb858dc280" y="221.986038"/>
      </g>
     </g>
     <g id="text_9">
      <!-- 0 -->
      <defs>
       <path d="M 3.609375 32.71875 
Q 3.609375 44.046875 7.03125 52.21875 
Q 10.453125 60.40625 16.109375 64.40625 
Q 20.515625 67.578125 25.203125 67.578125 
Q 32.8125 67.578125 38.875 59.8125 
Q 46.4375 50.203125 46.4375 33.734375 
Q 46.4375 22.21875 43.109375 14.15625 
Q 39.796875 6.109375 34.640625 2.46875 
Q 29.5 -1.171875 24.703125 -1.171875 
Q 15.234375 -1.171875 8.9375 10.015625 
Q 3.609375 19.4375 3.609375 32.71875 
M 13.1875 31.5 
Q 13.1875 17.828125 16.546875 9.1875 
Q 19.34375 1.90625 24.859375 1.90625 
Q 27.484375 1.90625 30.3125 4.265625 
Q 33.15625 6.640625 34.625 12.203125 
Q 36.859375 20.609375 36.859375 35.890625 
Q 36.859375 47.21875 34.515625 54.78125 
Q 32.765625 60.40625 29.984375 62.75 
Q 27.984375 64.359375 25.140625 64.359375 
Q 21.828125 64.359375 19.234375 61.375 
Q 15.71875 57.328125 14.453125 48.625 
Q 13.1875 39.9375 13.1875 31.5 
" id="TimesNewRomanPSMT-30"/>
      </defs>
      <g transform="translate(68.99875 230.318538)scale(0.24 -0.24)">
       <use xlink:href="#TimesNewRomanPSMT-30"/>
      </g>
     </g>
    </g>
    <g id="ytick_2">
     <g id="line2d_9">
      <g>
       <use style="stroke:#000000;stroke-width:0.8;" x="87.99875" xlink:href="#mdb858dc280" y="184.689297"/>
      </g>
     </g>
     <g id="text_10">
      <!-- 200 -->
      <g transform="translate(44.99875 193.021797)scale(0.24 -0.24)">
       <use xlink:href="#TimesNewRomanPSMT-32"/>
       <use x="50" xlink:href="#TimesNewRomanPSMT-30"/>
       <use x="100" xlink:href="#TimesNewRomanPSMT-30"/>
      </g>
     </g>
    </g>
    <g id="ytick_3">
     <g id="line2d_10">
      <g>
       <use style="stroke:#000000;stroke-width:0.8;" x="87.99875" xlink:href="#mdb858dc280" y="147.392556"/>
      </g>
     </g>
     <g id="text_11">
      <!-- 400 -->
      <g transform="translate(44.99875 155.725056)scale(0.24 -0.24)">
       <use xlink:href="#TimesNewRomanPSMT-34"/>
       <use x="50" xlink:href="#TimesNewRomanPSMT-30"/>
       <use x="100" xlink:href="#TimesNewRomanPSMT-30"/>
      </g>
     </g>
    </g>
    <g id="ytick_4">
     <g id="line2d_11">
      <g>
       <use style="stroke:#000000;stroke-width:0.8;" x="87.99875" xlink:href="#mdb858dc280" y="110.095815"/>
      </g>
     </g>
     <g id="text_12">
      <!-- 600 -->
      <g transform="translate(44.99875 118.428315)scale(0.24 -0.24)">
       <use xlink:href="#TimesNewRomanPSMT-36"/>
       <use x="50" xlink:href="#TimesNewRomanPSMT-30"/>
       <use x="100" xlink:href="#TimesNewRomanPSMT-30"/>
      </g>
     </g>
    </g>
    <g id="ytick_5">
     <g id="line2d_12">
      <g>
       <use style="stroke:#000000;stroke-width:0.8;" x="87.99875" xlink:href="#mdb858dc280" y="72.799074"/>
      </g>
     </g>
     <g id="text_13">
      <!-- 800 -->
      <defs>
       <path d="M 19.1875 33.34375 
Q 11.328125 39.796875 9.046875 43.703125 
Q 6.78125 47.609375 6.78125 51.8125 
Q 6.78125 58.25 11.765625 62.90625 
Q 16.75 67.578125 25 67.578125 
Q 33.015625 67.578125 37.890625 63.234375 
Q 42.78125 58.890625 42.78125 53.328125 
Q 42.78125 49.609375 40.140625 45.75 
Q 37.5 41.890625 29.15625 36.671875 
Q 37.75 30.03125 40.53125 26.21875 
Q 44.234375 21.234375 44.234375 15.71875 
Q 44.234375 8.734375 38.90625 3.78125 
Q 33.59375 -1.171875 24.953125 -1.171875 
Q 15.53125 -1.171875 10.25 4.734375 
Q 6.0625 9.46875 6.0625 15.09375 
Q 6.0625 19.484375 9.015625 23.796875 
Q 11.96875 28.125 19.1875 33.34375 
M 26.859375 38.578125 
Q 32.71875 43.84375 34.28125 46.890625 
Q 35.84375 49.953125 35.84375 53.8125 
Q 35.84375 58.9375 32.953125 61.84375 
Q 30.078125 64.75 25.09375 64.75 
Q 20.125 64.75 17 61.859375 
Q 13.875 58.984375 13.875 55.125 
Q 13.875 52.59375 15.15625 50.046875 
Q 16.453125 47.515625 18.84375 45.21875 
z
M 21.484375 31.5 
Q 17.4375 28.078125 15.484375 24.046875 
Q 13.53125 20.015625 13.53125 15.328125 
Q 13.53125 9.03125 16.96875 5.25 
Q 20.40625 1.46875 25.734375 1.46875 
Q 31 1.46875 34.171875 4.4375 
Q 37.359375 7.421875 37.359375 11.671875 
Q 37.359375 15.1875 35.5 17.96875 
Q 32.03125 23.140625 21.484375 31.5 
" id="TimesNewRomanPSMT-38"/>
      </defs>
      <g transform="translate(44.99875 81.131574)scale(0.24 -0.24)">
       <use xlink:href="#TimesNewRomanPSMT-38"/>
       <use x="50" xlink:href="#TimesNewRomanPSMT-30"/>
       <use x="100" xlink:href="#TimesNewRomanPSMT-30"/>
      </g>
     </g>
    </g>
    <g id="ytick_6">
     <g id="line2d_13">
      <g>
       <use style="stroke:#000000;stroke-width:0.8;" x="87.99875" xlink:href="#mdb858dc280" y="35.502333"/>
      </g>
     </g>
     <g id="text_14">
      <!-- 1000 -->
      <g transform="translate(32.99875 43.834833)scale(0.24 -0.24)">
       <use xlink:href="#TimesNewRomanPSMT-31"/>
       <use x="50" xlink:href="#TimesNewRomanPSMT-30"/>
       <use x="100" xlink:href="#TimesNewRomanPSMT-30"/>
       <use x="150" xlink:href="#TimesNewRomanPSMT-30"/>
      </g>
     </g>
    </g>
    <g id="text_15">
     <!-- Wh -->
     <defs>
      <path d="M 16.265625 69.4375 
L 16.265625 36.71875 
Q 21.6875 42.671875 24.859375 44.359375 
Q 28.03125 46.046875 31.203125 46.046875 
Q 35.015625 46.046875 37.75 43.9375 
Q 40.484375 41.84375 41.796875 37.359375 
Q 42.71875 34.234375 42.71875 25.921875 
L 42.71875 10.109375 
Q 42.71875 5.859375 43.40625 4.296875 
Q 43.890625 3.125 45.0625 2.4375 
Q 46.234375 1.765625 49.359375 1.765625 
L 49.359375 0 
L 27.390625 0 
L 27.390625 1.765625 
L 28.421875 1.765625 
Q 31.546875 1.765625 32.765625 2.703125 
Q 33.984375 3.65625 34.46875 5.515625 
Q 34.625 6.296875 34.625 10.109375 
L 34.625 25.921875 
Q 34.625 33.25 33.859375 35.546875 
Q 33.109375 37.84375 31.4375 38.984375 
Q 29.78125 40.140625 27.4375 40.140625 
Q 25.046875 40.140625 22.453125 38.859375 
Q 19.875 37.59375 16.265625 33.734375 
L 16.265625 10.109375 
Q 16.265625 5.515625 16.765625 4.390625 
Q 17.28125 3.265625 18.671875 2.515625 
Q 20.0625 1.765625 23.484375 1.765625 
L 23.484375 0 
L 1.3125 0 
L 1.3125 1.765625 
Q 4.296875 1.765625 6 2.6875 
Q 6.984375 3.171875 7.5625 4.53125 
Q 8.15625 5.90625 8.15625 10.109375 
L 8.15625 50.59375 
Q 8.15625 58.25 7.78125 60 
Q 7.421875 61.765625 6.65625 62.390625 
Q 5.90625 63.03125 4.640625 63.03125 
Q 3.609375 63.03125 1.3125 62.25 
L 0.640625 63.96875 
L 14.015625 69.4375 
z
" id="TimesNewRomanPSMT-68"/>
     </defs>
     <g transform="translate(23.865 136.746875)rotate(-90)scale(0.24 -0.24)">
      <use xlink:href="#TimesNewRomanPSMT-57"/>
      <use x="94.384766" xlink:href="#TimesNewRomanPSMT-68"/>
     </g>
    </g>
   </g>
   <g id="line2d_14">
    <path clip-path="url(#p1df5993887)" d="M 113.362386 216.391527 
L 114.369879 212.661852 
L 114.873626 164.176089 
L 115.377372 151.12223 
L 115.881119 151.12223 
L 116.384865 152.987067 
L 116.888612 199.607993 
L 117.392358 212.661852 
L 117.896105 214.52669 
L 118.399851 212.661852 
L 118.903598 214.52669 
L 119.407344 212.661852 
L 120.414837 212.661852 
L 120.918584 214.52669 
L 121.42233 214.52669 
L 122.429823 218.256364 
L 122.93357 218.256364 
L 123.437316 214.52669 
L 123.941063 212.661852 
L 124.444809 212.661852 
L 124.948556 214.52669 
L 125.452302 212.661852 
L 125.956049 214.52669 
L 126.963542 214.52669 
L 127.467288 210.797015 
L 127.971035 212.661852 
L 128.474781 212.661852 
L 128.978528 214.52669 
L 130.489767 214.52669 
L 130.993514 212.661852 
L 131.49726 208.932178 
L 132.001007 214.52669 
L 133.0085 218.256364 
L 135.023486 210.797015 
L 135.527232 210.797015 
L 136.030979 208.932178 
L 136.534725 210.797015 
L 137.038472 195.878319 
L 137.542218 201.47283 
L 138.045965 205.202504 
L 138.549711 210.797015 
L 139.557204 210.797015 
L 140.060951 212.661852 
L 140.564697 210.797015 
L 141.068444 212.661852 
L 141.57219 216.391527 
L 142.075937 214.52669 
L 142.579683 216.391527 
L 143.587176 128.744185 
L 144.090923 138.06837 
L 144.594669 212.661852 
L 145.098416 210.797015 
L 145.602162 210.797015 
L 146.105909 212.661852 
L 147.113402 212.661852 
L 147.617148 210.797015 
L 149.128388 210.797015 
L 149.632134 186.554134 
L 150.135881 180.959623 
L 150.639627 190.283808 
L 151.143374 149.257393 
L 151.64712 205.202504 
L 152.150867 210.797015 
L 152.654614 167.905763 
L 153.15836 197.743156 
L 153.662107 195.878319 
L 154.165853 177.229949 
L 154.6696 212.661852 
L 155.173346 210.797015 
L 156.180839 210.797015 
L 156.684586 152.987067 
L 157.188332 184.689297 
L 157.692079 208.932178 
L 158.195825 212.661852 
L 158.699572 214.52669 
L 159.203318 214.52669 
L 159.707065 216.391527 
L 161.218304 216.391527 
L 162.225797 212.661852 
L 162.729544 214.52669 
L 163.737037 214.52669 
L 164.240783 210.797015 
L 164.74453 210.797015 
L 165.752023 151.12223 
L 166.255769 152.987067 
L 167.263262 207.067341 
L 167.767009 205.202504 
L 168.270755 208.932178 
L 168.774502 214.52669 
L 169.278248 214.52669 
L 169.781995 216.391527 
L 170.285741 212.661852 
L 170.789488 212.661852 
L 171.293234 210.797015 
L 171.796981 212.661852 
L 172.300727 210.797015 
L 173.30822 210.797015 
L 173.811967 212.661852 
L 175.826953 212.661852 
L 176.330699 210.797015 
L 176.834446 210.797015 
L 177.338192 214.52669 
L 177.841939 216.391527 
L 178.849432 216.391527 
L 179.856925 212.661852 
L 180.864418 212.661852 
L 181.368164 214.52669 
L 181.871911 212.661852 
L 182.375657 214.52669 
L 183.886897 214.52669 
L 184.390643 212.661852 
L 185.398136 212.661852 
L 185.901883 216.391527 
L 186.405629 218.256364 
L 186.909376 216.391527 
L 187.413122 218.256364 
L 187.916869 214.52669 
L 188.924362 210.797015 
L 189.931855 214.52669 
L 190.435601 214.52669 
L 190.939348 212.661852 
L 191.443094 214.52669 
L 191.946841 214.52669 
L 192.450587 212.661852 
L 193.45808 212.661852 
L 194.96932 218.256364 
L 195.976813 218.256364 
L 196.480559 212.661852 
L 197.488052 212.661852 
L 197.991799 214.52669 
L 198.495545 214.52669 
L 198.999292 212.661852 
L 199.503038 214.52669 
L 200.006785 212.661852 
L 201.014278 212.661852 
L 201.518024 214.52669 
L 202.021771 214.52669 
L 202.525517 212.661852 
L 203.029264 218.256364 
L 203.53301 218.256364 
L 204.036757 212.661852 
L 204.540503 216.391527 
L 205.04425 212.661852 
L 205.547996 212.661852 
L 206.051743 184.689297 
L 206.555489 201.47283 
L 207.562982 212.661852 
L 208.570475 212.661852 
L 209.074222 214.52669 
L 209.577968 214.52669 
L 210.081715 216.391527 
L 211.089208 156.716741 
L 211.592954 156.716741 
L 212.096701 166.040926 
L 212.600447 147.392556 
L 213.104194 149.257393 
L 213.60794 167.905763 
L 214.111687 210.797015 
L 214.615433 208.932178 
L 215.11918 201.47283 
L 215.622926 205.202504 
L 216.126673 210.797015 
L 217.134166 207.067341 
L 218.141659 214.52669 
L 218.645405 216.391527 
L 219.149152 208.932178 
L 219.652898 212.661852 
L 220.156645 207.067341 
L 220.660391 207.067341 
L 221.164138 212.661852 
L 221.667884 214.52669 
L 222.171631 212.661852 
L 222.675377 214.52669 
L 223.179124 214.52669 
L 223.68287 212.661852 
L 224.186617 216.391527 
L 224.690363 216.391527 
L 225.19411 218.256364 
L 225.697856 218.256364 
L 226.201603 212.661852 
L 226.705349 214.52669 
L 227.209096 212.661852 
L 227.712842 214.52669 
L 228.216589 210.797015 
L 228.720335 214.52669 
L 229.224082 214.52669 
L 229.727828 212.661852 
L 230.231575 214.52669 
L 230.735321 214.52669 
L 231.239068 216.391527 
L 232.246561 216.391527 
L 232.750307 214.52669 
L 233.254054 207.067341 
L 233.7578 208.932178 
L 234.261547 207.067341 
L 234.765293 208.932178 
L 235.26904 207.067341 
L 235.772786 207.067341 
L 236.276533 203.337667 
L 236.780279 205.202504 
L 237.284026 203.337667 
L 237.787772 205.202504 
L 238.291519 201.47283 
L 238.795265 205.202504 
L 239.299012 203.337667 
L 239.802758 203.337667 
L 240.306505 201.47283 
L 241.313998 205.202504 
L 241.817744 205.202504 
L 242.321491 188.418971 
L 243.328984 203.337667 
L 243.83273 201.47283 
L 244.336477 158.581578 
L 244.840223 151.12223 
L 245.34397 182.82446 
L 245.847716 194.013482 
L 246.351463 160.446415 
L 246.855209 143.662882 
L 247.358956 160.446415 
L 247.862702 197.743156 
L 248.366449 197.743156 
L 248.870195 201.47283 
L 249.373942 175.365111 
L 249.877688 125.014511 
L 250.381435 154.851904 
L 250.885181 160.446415 
L 251.388928 164.176089 
L 252.396421 179.094786 
L 252.900167 190.283808 
L 253.403914 210.797015 
L 253.90766 216.391527 
L 254.915153 216.391527 
L 255.922646 212.661852 
L 256.426393 212.661852 
L 256.930139 214.52669 
L 257.433886 214.52669 
L 257.937632 212.661852 
L 258.441379 212.661852 
L 258.945125 214.52669 
L 259.448872 210.797015 
L 259.952618 214.52669 
L 260.456365 214.52669 
L 260.960111 212.661852 
L 261.967604 216.391527 
L 262.975097 216.391527 
L 263.478844 214.52669 
L 263.98259 214.52669 
L 264.486337 212.661852 
L 264.990083 214.52669 
L 265.997576 214.52669 
L 266.501323 212.661852 
L 267.508816 212.661852 
L 268.012562 214.52669 
L 268.516309 212.661852 
L 269.020055 214.52669 
L 269.523802 214.52669 
L 270.027548 218.256364 
L 270.531295 216.391527 
L 271.035041 216.391527 
L 272.042534 212.661852 
L 272.546281 214.52669 
L 273.050027 214.52669 
L 273.553774 212.661852 
L 274.05752 214.52669 
L 274.561267 212.661852 
L 275.065013 212.661852 
L 275.56876 214.52669 
L 276.072506 212.661852 
L 276.576253 214.52669 
L 278.087492 214.52669 
L 278.591239 216.391527 
L 279.094985 208.932178 
L 279.598732 154.851904 
L 280.102478 147.392556 
L 280.606225 208.932178 
L 281.109971 208.932178 
L 281.613718 149.257393 
L 282.117464 203.337667 
L 282.621211 207.067341 
L 283.124957 208.932178 
L 283.628704 190.283808 
L 284.13245 154.851904 
L 284.636197 188.418971 
L 285.64369 208.932178 
L 286.147436 208.932178 
L 286.651183 188.418971 
L 287.154929 190.283808 
L 287.658676 149.257393 
L 288.162422 143.662882 
L 288.666169 158.581578 
L 289.169915 119.42 
L 289.673662 93.312281 
L 290.177408 106.366141 
L 290.681155 108.230978 
L 291.184901 130.609022 
L 291.688648 173.500274 
L 292.696141 180.959623 
L 293.199887 197.743156 
L 293.703634 205.202504 
L 294.20738 167.905763 
L 294.711127 145.527719 
L 295.214873 162.311252 
L 296.222367 182.82446 
L 296.726113 182.82446 
L 297.733606 210.797015 
L 298.237353 212.661852 
L 298.741099 210.797015 
L 299.244846 212.661852 
L 299.748592 210.797015 
L 300.252339 195.878319 
L 300.756085 171.635437 
L 301.259832 184.689297 
L 301.763578 210.797015 
L 302.267325 212.661852 
L 302.771071 210.797015 
L 303.274818 207.067341 
L 303.778564 212.661852 
L 304.282311 214.52669 
L 304.786057 212.661852 
L 305.289804 212.661852 
L 306.297297 216.391527 
L 306.801043 216.391527 
L 307.30479 184.689297 
L 307.808536 138.06837 
L 308.312283 147.392556 
L 308.816029 83.988096 
L 309.319776 52.285866 
L 309.823522 108.230978 
L 310.327269 126.879348 
L 310.831015 186.554134 
L 311.334762 201.47283 
L 312.342255 205.202504 
L 312.846001 201.47283 
L 313.349748 203.337667 
L 313.853494 201.47283 
L 314.357241 203.337667 
L 314.860987 74.663911 
L 315.364734 151.12223 
L 315.86848 154.851904 
L 316.372227 154.851904 
L 316.875973 203.337667 
L 317.37972 203.337667 
L 317.883466 205.202504 
L 318.387213 205.202504 
L 318.890959 201.47283 
L 319.394706 195.878319 
L 319.898452 201.47283 
L 320.402199 203.337667 
L 320.905945 201.47283 
L 321.409692 197.743156 
L 321.913438 195.878319 
L 322.920931 199.607993 
L 323.928424 207.067341 
L 324.432171 212.661852 
L 325.439664 212.661852 
L 325.94341 214.52669 
L 326.447157 212.661852 
L 327.45465 212.661852 
L 328.462143 216.391527 
L 328.965889 216.391527 
L 329.469636 214.52669 
L 329.973382 214.52669 
L 330.980875 210.797015 
L 331.484622 212.661852 
L 331.988368 210.797015 
L 332.492115 212.661852 
L 335.010847 212.661852 
L 335.514594 210.797015 
L 336.01834 212.661852 
L 337.52958 212.661852 
L 338.033326 214.52669 
L 338.537073 212.661852 
L 339.544566 216.391527 
L 340.048312 214.52669 
L 340.552059 216.391527 
L 341.055805 210.797015 
L 341.559552 212.661852 
L 342.063298 212.661852 
L 342.567045 214.52669 
L 343.574538 210.797015 
L 344.078284 212.661852 
L 345.589524 212.661852 
L 346.09327 214.52669 
L 346.597017 212.661852 
L 347.60451 212.661852 
L 348.108256 210.797015 
L 349.115749 214.52669 
L 349.619496 212.661852 
L 350.626989 212.661852 
L 351.130735 216.391527 
L 351.634482 208.932178 
L 352.138228 212.661852 
L 353.649468 212.661852 
L 354.153214 214.52669 
L 354.656961 212.661852 
L 355.160707 212.661852 
L 355.664454 194.013482 
L 356.1682 149.257393 
L 356.671947 149.257393 
L 357.175693 151.12223 
L 357.67944 147.392556 
L 358.183186 152.987067 
L 358.686933 164.176089 
L 359.190679 214.52669 
L 359.694426 212.661852 
L 360.198172 208.932178 
L 360.701919 210.797015 
L 361.205665 205.202504 
L 361.709412 210.797015 
L 362.213158 210.797015 
L 362.716905 203.337667 
L 363.220651 151.12223 
L 363.724398 149.257393 
L 364.228144 197.743156 
L 364.731891 210.797015 
L 365.235637 210.797015 
L 365.739384 212.661852 
L 366.24313 210.797015 
L 366.746877 210.797015 
L 367.250623 177.229949 
L 367.75437 207.067341 
L 368.258116 207.067341 
L 368.761863 147.392556 
L 369.265609 147.392556 
L 369.769356 136.203533 
L 370.273102 190.283808 
L 370.776849 182.82446 
L 371.280595 186.554134 
L 371.784342 208.932178 
L 372.288088 207.067341 
L 372.791835 210.797015 
L 373.295581 208.932178 
L 373.799328 210.797015 
L 374.303074 208.932178 
L 374.806821 210.797015 
L 376.821807 210.797015 
L 377.325553 212.661852 
L 377.8293 212.661852 
L 378.333046 210.797015 
L 378.836793 212.661852 
L 379.340539 212.661852 
L 379.844286 208.932178 
L 380.348032 212.661852 
L 380.851779 210.797015 
L 381.355525 210.797015 
L 381.859272 205.202504 
L 382.363018 203.337667 
L 382.866765 205.202504 
L 383.874258 201.47283 
L 384.378004 203.337667 
L 384.881751 207.067341 
L 385.385497 201.47283 
L 385.889244 173.500274 
L 386.39299 156.716741 
L 386.896737 128.744185 
L 387.400483 152.987067 
L 387.90423 160.446415 
L 388.407976 203.337667 
L 388.911723 201.47283 
L 389.415469 195.878319 
L 389.919216 164.176089 
L 390.422962 160.446415 
L 390.926709 186.554134 
L 391.430455 192.148645 
L 391.934202 192.148645 
L 392.437948 132.473859 
L 392.941695 169.7706 
L 393.445441 197.743156 
L 393.949188 194.013482 
L 394.956681 197.743156 
L 395.460427 197.743156 
L 395.964174 158.581578 
L 396.46792 130.609022 
L 396.971667 179.094786 
L 397.475413 154.851904 
L 397.97916 145.527719 
L 398.482906 194.013482 
L 398.986653 207.067341 
L 399.490399 207.067341 
L 399.994146 208.932178 
L 401.001639 208.932178 
L 401.505385 210.797015 
L 402.009132 210.797015 
L 402.512878 212.661852 
L 403.520371 212.661852 
L 404.024118 216.391527 
L 404.527864 218.256364 
L 405.031611 214.52669 
L 405.535357 212.661852 
L 406.54285 212.661852 
L 407.046597 210.797015 
L 407.550343 212.661852 
L 408.05409 210.797015 
L 409.061583 214.52669 
L 409.565329 212.661852 
L 411.076569 212.661852 
L 412.084062 216.391527 
L 412.587808 216.391527 
L 413.595301 212.661852 
L 415.106541 212.661852 
L 415.610287 210.797015 
L 416.114034 212.661852 
L 416.61778 212.661852 
L 417.121527 214.52669 
L 417.625273 212.661852 
L 419.136513 212.661852 
L 419.640259 216.391527 
L 420.647752 216.391527 
L 421.151499 212.661852 
L 421.655245 212.661852 
L 422.158992 214.52669 
L 422.662738 210.797015 
L 423.166485 210.797015 
L 423.670231 212.661852 
L 424.677724 212.661852 
L 425.685217 149.257393 
L 426.188964 151.12223 
L 426.69271 149.257393 
L 427.196457 149.257393 
L 427.700203 177.229949 
L 428.20395 214.52669 
L 428.707696 208.932178 
L 429.211443 212.661852 
L 429.715189 212.661852 
L 430.218936 208.932178 
L 430.722682 210.797015 
L 431.226429 208.932178 
L 432.233922 212.661852 
L 432.737668 210.797015 
L 433.241415 210.797015 
L 434.248908 203.337667 
L 434.752654 210.797015 
L 435.256401 208.932178 
L 435.760147 210.797015 
L 436.263894 210.797015 
L 436.76764 212.661852 
L 437.271387 212.661852 
L 437.775133 214.52669 
L 438.27888 212.661852 
L 438.782627 208.932178 
L 439.286373 210.797015 
L 439.79012 210.797015 
L 440.293866 207.067341 
L 441.301359 207.067341 
L 441.805106 205.202504 
L 442.308852 205.202504 
L 442.812599 203.337667 
L 443.316345 207.067341 
L 443.820092 205.202504 
L 444.323838 207.067341 
L 445.835078 207.067341 
L 446.338824 205.202504 
L 447.346317 212.661852 
L 448.857557 207.067341 
L 449.361303 208.932178 
L 449.86505 152.987067 
L 450.368796 145.527719 
L 451.376289 207.067341 
L 451.880036 208.932178 
L 452.383782 208.932178 
L 452.887529 207.067341 
L 453.391275 208.932178 
L 453.895022 207.067341 
L 454.398768 207.067341 
L 454.902515 194.013482 
L 455.406261 151.12223 
L 455.910008 167.905763 
L 456.413754 171.635437 
L 456.917501 143.662882 
L 457.421247 169.7706 
L 457.924994 166.040926 
L 458.42874 156.716741 
L 458.932487 171.635437 
L 459.436233 117.555163 
L 459.93998 20.583636 
L 460.947473 149.257393 
L 461.451219 156.716741 
L 461.954966 158.581578 
L 462.962459 179.094786 
L 463.466205 199.607993 
L 464.473698 203.337667 
L 464.977445 201.47283 
L 465.481191 197.743156 
L 465.984938 195.878319 
L 466.488684 201.47283 
L 466.992431 203.337667 
L 467.496177 203.337667 
L 467.999924 201.47283 
L 468.50367 201.47283 
L 469.007417 186.554134 
L 469.511163 138.06837 
L 470.01491 182.82446 
L 470.518656 203.337667 
L 471.022403 205.202504 
L 471.526149 205.202504 
L 472.533642 208.932178 
L 473.541135 208.932178 
L 474.044882 210.797015 
L 474.548628 216.391527 
L 475.556121 216.391527 
L 477.067361 210.797015 
L 477.571107 212.661852 
L 480.593586 212.661852 
L 481.097333 210.797015 
L 481.601079 212.661852 
L 482.104826 210.797015 
L 483.616065 216.391527 
L 484.623558 216.391527 
L 485.127305 210.797015 
L 485.631051 212.661852 
L 486.134798 210.797015 
L 486.638544 212.661852 
L 487.646037 212.661852 
L 488.149784 214.52669 
L 488.65353 210.797015 
L 489.157277 212.661852 
L 489.661023 210.797015 
L 490.16477 212.661852 
L 490.668516 212.661852 
L 491.172263 214.52669 
L 491.676009 212.661852 
L 492.179756 212.661852 
L 492.683502 216.391527 
L 493.187249 214.52669 
L 493.690995 216.391527 
L 494.194742 212.661852 
L 494.698488 212.661852 
L 495.202235 214.52669 
L 495.705981 212.661852 
L 496.209728 212.661852 
L 496.713474 190.283808 
L 497.217221 147.392556 
L 497.720967 149.257393 
L 498.224714 152.987067 
L 498.72846 149.257393 
L 499.232207 152.987067 
L 499.735953 151.12223 
L 500.2397 203.337667 
L 500.743446 205.202504 
L 501.247193 134.338696 
L 501.750939 162.311252 
L 502.254686 171.635437 
L 502.758432 173.500274 
L 503.262179 179.094786 
L 503.765925 134.338696 
L 504.269672 147.392556 
L 504.773418 167.905763 
L 505.277165 203.337667 
L 505.780911 205.202504 
L 507.292151 205.202504 
L 507.795897 203.337667 
L 508.299644 207.067341 
L 508.80339 188.418971 
L 509.307137 139.933208 
L 509.810883 166.040926 
L 510.31463 175.365111 
L 510.818376 169.7706 
L 511.322123 136.203533 
L 511.825869 199.607993 
L 512.329616 199.607993 
L 512.833362 201.47283 
L 513.337109 197.743156 
L 513.840855 201.47283 
L 514.344602 199.607993 
L 515.352095 199.607993 
L 515.855841 197.743156 
L 516.359588 199.607993 
L 516.863334 199.607993 
L 517.367081 145.527719 
L 517.870827 143.662882 
L 518.374574 195.878319 
L 518.87832 210.797015 
L 519.382067 210.797015 
L 520.38956 207.067341 
L 520.893306 203.337667 
L 521.397053 207.067341 
L 521.900799 207.067341 
L 522.404546 208.932178 
L 522.908292 207.067341 
L 523.412039 207.067341 
L 523.915785 205.202504 
L 524.419532 207.067341 
L 526.434518 207.067341 
L 526.938264 205.202504 
L 527.442011 197.743156 
L 527.945757 151.12223 
L 528.449504 72.799074 
L 528.95325 74.663911 
L 529.456997 121.284837 
L 529.960743 199.607993 
L 530.46449 201.47283 
L 530.968236 192.148645 
L 531.471983 195.878319 
L 531.975729 119.42 
L 532.479476 123.149674 
L 532.983222 203.337667 
L 533.486969 203.337667 
L 533.990715 205.202504 
L 534.494462 205.202504 
L 534.998208 203.337667 
L 535.501955 197.743156 
L 536.005701 201.47283 
L 536.509448 199.607993 
L 537.013194 203.337667 
L 537.516941 201.47283 
L 538.020687 203.337667 
L 538.524434 199.607993 
L 539.02818 175.365111 
L 539.531927 201.47283 
L 540.035673 201.47283 
L 540.53942 194.013482 
L 541.043166 201.47283 
L 541.546913 212.661852 
L 542.050659 214.52669 
L 542.554406 212.661852 
L 543.058152 212.661852 
L 543.561899 208.932178 
L 544.065645 210.797015 
L 544.569392 210.797015 
L 545.073138 208.932178 
L 545.576885 212.661852 
L 546.080631 208.932178 
L 546.584378 210.797015 
L 547.088124 208.932178 
L 547.591871 210.797015 
L 548.095617 210.797015 
L 549.606857 216.391527 
L 550.61435 212.661852 
L 551.118096 212.661852 
L 551.621843 214.52669 
L 552.125589 212.661852 
L 552.629336 214.52669 
L 553.636829 214.52669 
L 554.140575 210.797015 
L 554.644322 212.661852 
L 555.148068 212.661852 
L 555.651815 214.52669 
L 556.155561 214.52669 
L 556.659308 218.256364 
L 557.163054 216.391527 
L 557.666801 218.256364 
L 558.170547 212.661852 
L 558.674294 210.797015 
L 559.17804 214.52669 
L 559.681787 212.661852 
L 560.185533 214.52669 
L 560.68928 214.52669 
L 561.193026 212.661852 
L 561.696773 212.661852 
L 562.200519 214.52669 
L 562.704266 212.661852 
L 563.208012 214.52669 
L 563.711759 212.661852 
L 564.215505 216.391527 
L 564.719252 218.256364 
L 565.222998 216.391527 
L 565.726745 216.391527 
L 566.230491 212.661852 
L 566.734238 207.067341 
L 567.237984 214.52669 
L 567.741731 212.661852 
L 568.245477 214.52669 
L 569.25297 203.337667 
L 569.756717 210.797015 
L 570.76421 214.52669 
L 571.771703 214.52669 
L 572.275449 218.256364 
L 572.779196 218.256364 
L 573.282942 216.391527 
L 573.786689 212.661852 
L 574.290435 212.661852 
L 574.794182 214.52669 
L 576.305421 214.52669 
L 576.809168 212.661852 
L 577.816661 212.661852 
L 578.320407 214.52669 
L 578.824154 214.52669 
L 579.3279 218.256364 
L 579.831647 218.256364 
L 581.342886 212.661852 
L 581.846633 212.661852 
L 582.35038 214.52669 
L 582.854126 214.52669 
L 583.357873 212.661852 
L 583.861619 214.52669 
L 584.365366 214.52669 
L 584.869112 212.661852 
L 585.372859 214.52669 
L 585.876605 212.661852 
L 586.380352 214.52669 
L 586.884098 218.256364 
L 587.387845 218.256364 
L 588.899084 212.661852 
L 589.906577 212.661852 
L 590.410324 214.52669 
L 592.42531 214.52669 
L 592.929056 212.661852 
L 593.432803 212.661852 
L 593.936549 216.391527 
L 594.440296 218.256364 
L 594.944042 216.391527 
L 595.447789 216.391527 
L 596.455282 212.661852 
L 597.462775 212.661852 
L 597.966521 214.52669 
L 598.470268 214.52669 
L 598.974014 212.661852 
L 599.477761 214.52669 
L 600.989 214.52669 
L 601.492747 218.256364 
L 601.996493 216.391527 
L 602.50024 216.391527 
L 603.003986 208.932178 
L 603.507733 179.094786 
L 604.011479 98.906792 
L 604.515226 126.879348 
L 605.018972 166.040926 
L 605.522719 166.040926 
L 606.026465 156.716741 
L 606.530212 205.202504 
L 607.033958 203.337667 
L 607.537705 197.743156 
L 608.041451 184.689297 
L 608.545198 132.473859 
L 609.048944 141.798045 
L 609.552691 104.501304 
L 610.056437 110.095815 
L 610.560184 134.338696 
L 611.06393 83.988096 
L 611.567677 110.095815 
L 612.071423 117.555163 
L 612.57517 139.933208 
L 613.582663 201.47283 
L 614.086409 207.067341 
L 614.590156 208.932178 
L 615.093902 212.661852 
L 615.597649 212.661852 
L 616.101395 210.797015 
L 616.605142 210.797015 
L 617.108888 212.661852 
L 617.612635 210.797015 
L 618.116381 212.661852 
L 618.620128 212.661852 
L 619.627621 216.391527 
L 620.635114 212.661852 
L 620.635114 212.661852 
" style="fill:none;stroke:#000000;stroke-linecap:square;"/>
   </g>
   <g id="patch_3">
    <path d="M 87.99875 228.14 
L 87.99875 10.7 
" style="fill:none;stroke:#000000;stroke-linecap:square;stroke-linejoin:miter;stroke-width:0.8;"/>
   </g>
   <g id="patch_4">
    <path d="M 645.99875 228.14 
L 645.99875 10.7 
" style="fill:none;stroke:#000000;stroke-linecap:square;stroke-linejoin:miter;stroke-width:0.8;"/>
   </g>
   <g id="patch_5">
    <path d="M 87.99875 228.14 
L 645.99875 228.14 
" style="fill:none;stroke:#000000;stroke-linecap:square;stroke-linejoin:miter;stroke-width:0.8;"/>
   </g>
   <g id="patch_6">
    <path d="M 87.99875 10.7 
L 645.99875 10.7 
" style="fill:none;stroke:#000000;stroke-linecap:square;stroke-linejoin:miter;stroke-width:0.8;"/>
   </g>
  </g>
 </g>
 <defs>
  <clipPath id="p1df5993887">
   <rect height="217.44" width="558" x="87.99875" y="10.7"/>
  </clipPath>
 </defs>
</svg>
