<?xml version="1.0" encoding="utf-8" standalone="no"?>
<!DOCTYPE svg PUBLIC "-//W3C//DTD SVG 1.1//EN"
  "http://www.w3.org/Graphics/SVG/1.1/DTD/svg11.dtd">
<!-- Created with matplotlib (http://matplotlib.org/) -->
<svg height="336pt" version="1.1" viewBox="0 0 668 336" width="668pt" xmlns="http://www.w3.org/2000/svg" xmlns:xlink="http://www.w3.org/1999/xlink">
 <defs>
  <style type="text/css">
*{stroke-linecap:butt;stroke-linejoin:round;}
  </style>
 </defs>
 <g id="figure_1">
  <g id="patch_1">
   <path d="M 0 336.937629 
L 668.69875 336.937629 
L 668.69875 0 
L 0 0 
z
" style="fill:#ffffff;"/>
  </g>
  <g id="axes_1">
   <g id="patch_2">
    <path d="M 99.99875 228.14 
L 657.99875 228.14 
L 657.99875 10.7 
L 99.99875 10.7 
z
" style="fill:#ffffff;"/>
   </g>
   <g id="matplotlib.axis_1">
    <g id="xtick_1">
     <g id="line2d_1">
      <defs>
       <path d="M 0 0 
L 0 3.5 
" id="m20c18801c3" style="stroke:#000000;stroke-width:0.8;"/>
      </defs>
      <g>
       <use style="stroke:#000000;stroke-width:0.8;" x="125.362386" xlink:href="#m20c18801c3" y="228.14"/>
      </g>
     </g>
     <g id="text_1">
      <!-- 2016-01-12 -->
      <defs>
       <path d="M 45.84375 12.75 
L 41.21875 0 
L 2.15625 0 
L 2.15625 1.8125 
Q 19.390625 17.53125 26.421875 27.484375 
Q 33.453125 37.453125 33.453125 45.703125 
Q 33.453125 52 29.59375 56.046875 
Q 25.734375 60.109375 20.359375 60.109375 
Q 15.484375 60.109375 11.59375 57.25 
Q 7.71875 54.390625 5.859375 48.875 
L 4.046875 48.875 
Q 5.28125 57.90625 10.328125 62.734375 
Q 15.375 67.578125 22.953125 67.578125 
Q 31 67.578125 36.390625 62.40625 
Q 41.796875 57.234375 41.796875 50.203125 
Q 41.796875 45.171875 39.453125 40.140625 
Q 35.84375 32.234375 27.734375 23.390625 
Q 15.578125 10.109375 12.546875 7.375 
L 29.828125 7.375 
Q 35.109375 7.375 37.234375 7.765625 
Q 39.359375 8.15625 41.0625 9.34375 
Q 42.78125 10.546875 44.046875 12.75 
z
" id="TimesNewRomanPSMT-32"/>
       <path d="M 3.609375 32.71875 
Q 3.609375 44.046875 7.03125 52.21875 
Q 10.453125 60.40625 16.109375 64.40625 
Q 20.515625 67.578125 25.203125 67.578125 
Q 32.8125 67.578125 38.875 59.8125 
Q 46.4375 50.203125 46.4375 33.734375 
Q 46.4375 22.21875 43.109375 14.15625 
Q 39.796875 6.109375 34.640625 2.46875 
Q 29.5 -1.171875 24.703125 -1.171875 
Q 15.234375 -1.171875 8.9375 10.015625 
Q 3.609375 19.4375 3.609375 32.71875 
M 13.1875 31.5 
Q 13.1875 17.828125 16.546875 9.1875 
Q 19.34375 1.90625 24.859375 1.90625 
Q 27.484375 1.90625 30.3125 4.265625 
Q 33.15625 6.640625 34.625 12.203125 
Q 36.859375 20.609375 36.859375 35.890625 
Q 36.859375 47.21875 34.515625 54.78125 
Q 32.765625 60.40625 29.984375 62.75 
Q 27.984375 64.359375 25.140625 64.359375 
Q 21.828125 64.359375 19.234375 61.375 
Q 15.71875 57.328125 14.453125 48.625 
Q 13.1875 39.9375 13.1875 31.5 
" id="TimesNewRomanPSMT-30"/>
       <path d="M 11.71875 59.71875 
L 27.828125 67.578125 
L 29.4375 67.578125 
L 29.4375 11.671875 
Q 29.4375 6.109375 29.90625 4.734375 
Q 30.375 3.375 31.828125 2.640625 
Q 33.296875 1.90625 37.796875 1.8125 
L 37.796875 0 
L 12.890625 0 
L 12.890625 1.8125 
Q 17.578125 1.90625 18.9375 2.609375 
Q 20.3125 3.328125 20.84375 4.515625 
Q 21.390625 5.71875 21.390625 11.671875 
L 21.390625 47.40625 
Q 21.390625 54.640625 20.90625 56.6875 
Q 20.5625 58.25 19.65625 58.984375 
Q 18.75 59.71875 17.484375 59.71875 
Q 15.671875 59.71875 12.453125 58.203125 
z
" id="TimesNewRomanPSMT-31"/>
       <path d="M 44.828125 67.578125 
L 44.828125 65.765625 
Q 38.375 65.140625 34.296875 63.203125 
Q 30.21875 61.28125 26.234375 57.328125 
Q 22.265625 53.375 19.65625 48.515625 
Q 17.046875 43.65625 15.28125 36.96875 
Q 22.3125 41.796875 29.390625 41.796875 
Q 36.1875 41.796875 41.15625 36.328125 
Q 46.140625 30.859375 46.140625 22.265625 
Q 46.140625 13.96875 41.109375 7.125 
Q 35.0625 -1.171875 25.09375 -1.171875 
Q 18.3125 -1.171875 13.578125 3.328125 
Q 4.296875 12.0625 4.296875 25.984375 
Q 4.296875 34.859375 7.859375 42.859375 
Q 11.421875 50.875 18.03125 57.078125 
Q 24.65625 63.28125 30.703125 65.421875 
Q 36.765625 67.578125 42 67.578125 
z
M 14.453125 33.40625 
Q 13.578125 26.8125 13.578125 22.75 
Q 13.578125 18.0625 15.3125 12.5625 
Q 17.046875 7.078125 20.453125 3.859375 
Q 22.953125 1.5625 26.515625 1.5625 
Q 30.765625 1.5625 34.109375 5.5625 
Q 37.453125 9.578125 37.453125 17 
Q 37.453125 25.34375 34.125 31.4375 
Q 30.8125 37.546875 24.703125 37.546875 
Q 22.859375 37.546875 20.734375 36.765625 
Q 18.609375 35.984375 14.453125 33.40625 
" id="TimesNewRomanPSMT-36"/>
       <path d="M 4.046875 26.125 
L 29.296875 26.125 
L 29.296875 18.75 
L 4.046875 18.75 
z
" id="TimesNewRomanPSMT-2d"/>
      </defs>
      <g transform="translate(89.847506 326.10752)rotate(-45)scale(0.24 -0.24)">
       <use xlink:href="#TimesNewRomanPSMT-32"/>
       <use x="50" xlink:href="#TimesNewRomanPSMT-30"/>
       <use x="100" xlink:href="#TimesNewRomanPSMT-31"/>
       <use x="150" xlink:href="#TimesNewRomanPSMT-36"/>
       <use x="200" xlink:href="#TimesNewRomanPSMT-2d"/>
       <use x="233.300781" xlink:href="#TimesNewRomanPSMT-30"/>
       <use x="283.300781" xlink:href="#TimesNewRomanPSMT-31"/>
       <use x="333.300781" xlink:href="#TimesNewRomanPSMT-2d"/>
       <use x="366.601562" xlink:href="#TimesNewRomanPSMT-31"/>
       <use x="416.601562" xlink:href="#TimesNewRomanPSMT-32"/>
      </g>
     </g>
    </g>
    <g id="xtick_2">
     <g id="line2d_2">
      <g>
       <use style="stroke:#000000;stroke-width:0.8;" x="238.089659" xlink:href="#m20c18801c3" y="228.14"/>
      </g>
     </g>
     <g id="text_2">
      <!-- 2016-02-12 -->
      <g transform="translate(202.574779 326.10752)rotate(-45)scale(0.24 -0.24)">
       <use xlink:href="#TimesNewRomanPSMT-32"/>
       <use x="50" xlink:href="#TimesNewRomanPSMT-30"/>
       <use x="100" xlink:href="#TimesNewRomanPSMT-31"/>
       <use x="150" xlink:href="#TimesNewRomanPSMT-36"/>
       <use x="200" xlink:href="#TimesNewRomanPSMT-2d"/>
       <use x="233.300781" xlink:href="#TimesNewRomanPSMT-30"/>
       <use x="283.300781" xlink:href="#TimesNewRomanPSMT-32"/>
       <use x="333.300781" xlink:href="#TimesNewRomanPSMT-2d"/>
       <use x="366.601562" xlink:href="#TimesNewRomanPSMT-31"/>
       <use x="416.601562" xlink:href="#TimesNewRomanPSMT-32"/>
      </g>
     </g>
    </g>
    <g id="xtick_3">
     <g id="line2d_3">
      <g>
       <use style="stroke:#000000;stroke-width:0.8;" x="350.816932" xlink:href="#m20c18801c3" y="228.14"/>
      </g>
     </g>
     <g id="text_3">
      <!-- 2016-03-12 -->
      <defs>
       <path d="M 5.078125 53.609375 
Q 7.90625 60.296875 12.21875 63.9375 
Q 16.546875 67.578125 23 67.578125 
Q 30.953125 67.578125 35.203125 62.40625 
Q 38.421875 58.546875 38.421875 54.15625 
Q 38.421875 46.921875 29.34375 39.203125 
Q 35.453125 36.8125 38.578125 32.375 
Q 41.703125 27.9375 41.703125 21.921875 
Q 41.703125 13.328125 36.234375 7.03125 
Q 29.109375 -1.171875 15.578125 -1.171875 
Q 8.890625 -1.171875 6.46875 0.484375 
Q 4.046875 2.15625 4.046875 4.046875 
Q 4.046875 5.46875 5.1875 6.546875 
Q 6.34375 7.625 7.953125 7.625 
Q 9.1875 7.625 10.453125 7.234375 
Q 11.28125 6.984375 14.203125 5.4375 
Q 17.140625 3.90625 18.265625 3.609375 
Q 20.0625 3.078125 22.125 3.078125 
Q 27.09375 3.078125 30.78125 6.9375 
Q 34.46875 10.796875 34.46875 16.0625 
Q 34.46875 19.921875 32.765625 23.578125 
Q 31.5 26.3125 29.984375 27.734375 
Q 27.875 29.6875 24.21875 31.265625 
Q 20.5625 32.859375 16.75 32.859375 
L 15.1875 32.859375 
L 15.1875 34.328125 
Q 19.046875 34.8125 22.921875 37.109375 
Q 26.8125 39.40625 28.5625 42.625 
Q 30.328125 45.84375 30.328125 49.703125 
Q 30.328125 54.734375 27.171875 57.828125 
Q 24.03125 60.9375 19.34375 60.9375 
Q 11.765625 60.9375 6.6875 52.828125 
z
" id="TimesNewRomanPSMT-33"/>
      </defs>
      <g transform="translate(315.302052 326.10752)rotate(-45)scale(0.24 -0.24)">
       <use xlink:href="#TimesNewRomanPSMT-32"/>
       <use x="50" xlink:href="#TimesNewRomanPSMT-30"/>
       <use x="100" xlink:href="#TimesNewRomanPSMT-31"/>
       <use x="150" xlink:href="#TimesNewRomanPSMT-36"/>
       <use x="200" xlink:href="#TimesNewRomanPSMT-2d"/>
       <use x="233.300781" xlink:href="#TimesNewRomanPSMT-30"/>
       <use x="283.300781" xlink:href="#TimesNewRomanPSMT-33"/>
       <use x="333.300781" xlink:href="#TimesNewRomanPSMT-2d"/>
       <use x="366.601562" xlink:href="#TimesNewRomanPSMT-31"/>
       <use x="416.601562" xlink:href="#TimesNewRomanPSMT-32"/>
      </g>
     </g>
    </g>
    <g id="xtick_4">
     <g id="line2d_4">
      <g>
       <use style="stroke:#000000;stroke-width:0.8;" x="463.544205" xlink:href="#m20c18801c3" y="228.14"/>
      </g>
     </g>
     <g id="text_4">
      <!-- 2016-04-12 -->
      <defs>
       <path d="M 46.53125 24.421875 
L 46.53125 17.484375 
L 37.640625 17.484375 
L 37.640625 0 
L 29.59375 0 
L 29.59375 17.484375 
L 1.5625 17.484375 
L 1.5625 23.734375 
L 32.28125 67.578125 
L 37.640625 67.578125 
L 37.640625 24.421875 
z
M 29.59375 24.421875 
L 29.59375 57.28125 
L 6.34375 24.421875 
z
" id="TimesNewRomanPSMT-34"/>
      </defs>
      <g transform="translate(428.029325 326.10752)rotate(-45)scale(0.24 -0.24)">
       <use xlink:href="#TimesNewRomanPSMT-32"/>
       <use x="50" xlink:href="#TimesNewRomanPSMT-30"/>
       <use x="100" xlink:href="#TimesNewRomanPSMT-31"/>
       <use x="150" xlink:href="#TimesNewRomanPSMT-36"/>
       <use x="200" xlink:href="#TimesNewRomanPSMT-2d"/>
       <use x="233.300781" xlink:href="#TimesNewRomanPSMT-30"/>
       <use x="283.300781" xlink:href="#TimesNewRomanPSMT-34"/>
       <use x="333.300781" xlink:href="#TimesNewRomanPSMT-2d"/>
       <use x="366.601562" xlink:href="#TimesNewRomanPSMT-31"/>
       <use x="416.601562" xlink:href="#TimesNewRomanPSMT-32"/>
      </g>
     </g>
    </g>
    <g id="xtick_5">
     <g id="line2d_5">
      <g>
       <use style="stroke:#000000;stroke-width:0.8;" x="576.271477" xlink:href="#m20c18801c3" y="228.14"/>
      </g>
     </g>
     <g id="text_5">
      <!-- 2016-05-12 -->
      <defs>
       <path d="M 43.40625 66.21875 
L 39.59375 57.90625 
L 19.671875 57.90625 
L 15.328125 49.03125 
Q 28.265625 47.125 35.84375 39.40625 
Q 42.328125 32.765625 42.328125 23.78125 
Q 42.328125 18.5625 40.203125 14.109375 
Q 38.09375 9.671875 34.859375 6.546875 
Q 31.640625 3.421875 27.6875 1.515625 
Q 22.078125 -1.171875 16.15625 -1.171875 
Q 10.203125 -1.171875 7.484375 0.84375 
Q 4.78125 2.875 4.78125 5.328125 
Q 4.78125 6.6875 5.90625 7.734375 
Q 7.03125 8.796875 8.734375 8.796875 
Q 10.015625 8.796875 10.96875 8.40625 
Q 11.921875 8.015625 14.203125 6.390625 
Q 17.875 3.859375 21.625 3.859375 
Q 27.34375 3.859375 31.65625 8.171875 
Q 35.984375 12.5 35.984375 18.703125 
Q 35.984375 24.703125 32.125 29.90625 
Q 28.265625 35.109375 21.484375 37.9375 
Q 16.15625 40.140625 6.984375 40.484375 
L 19.671875 66.21875 
z
" id="TimesNewRomanPSMT-35"/>
      </defs>
      <g transform="translate(540.756597 326.10752)rotate(-45)scale(0.24 -0.24)">
       <use xlink:href="#TimesNewRomanPSMT-32"/>
       <use x="50" xlink:href="#TimesNewRomanPSMT-30"/>
       <use x="100" xlink:href="#TimesNewRomanPSMT-31"/>
       <use x="150" xlink:href="#TimesNewRomanPSMT-36"/>
       <use x="200" xlink:href="#TimesNewRomanPSMT-2d"/>
       <use x="233.300781" xlink:href="#TimesNewRomanPSMT-30"/>
       <use x="283.300781" xlink:href="#TimesNewRomanPSMT-35"/>
       <use x="333.300781" xlink:href="#TimesNewRomanPSMT-2d"/>
       <use x="366.601562" xlink:href="#TimesNewRomanPSMT-31"/>
       <use x="416.601562" xlink:href="#TimesNewRomanPSMT-32"/>
      </g>
     </g>
    </g>
   </g>
   <g id="matplotlib.axis_2">
    <g id="ytick_1">
     <g id="line2d_6">
      <defs>
       <path d="M 0 0 
L -3.5 0 
" id="m40fd931059" style="stroke:#000000;stroke-width:0.8;"/>
      </defs>
      <g>
       <use style="stroke:#000000;stroke-width:0.8;" x="99.99875" xlink:href="#m40fd931059" y="176.449718"/>
      </g>
     </g>
     <g id="text_6">
      <!-- 10000 -->
      <g transform="translate(32.99875 184.782218)scale(0.24 -0.24)">
       <use xlink:href="#TimesNewRomanPSMT-31"/>
       <use x="50" xlink:href="#TimesNewRomanPSMT-30"/>
       <use x="100" xlink:href="#TimesNewRomanPSMT-30"/>
       <use x="150" xlink:href="#TimesNewRomanPSMT-30"/>
       <use x="200" xlink:href="#TimesNewRomanPSMT-30"/>
      </g>
     </g>
    </g>
    <g id="ytick_2">
     <g id="line2d_7">
      <g>
       <use style="stroke:#000000;stroke-width:0.8;" x="99.99875" xlink:href="#m40fd931059" y="85.565705"/>
      </g>
     </g>
     <g id="text_7">
      <!-- 20000 -->
      <g transform="translate(32.99875 93.898205)scale(0.24 -0.24)">
       <use xlink:href="#TimesNewRomanPSMT-32"/>
       <use x="50" xlink:href="#TimesNewRomanPSMT-30"/>
       <use x="100" xlink:href="#TimesNewRomanPSMT-30"/>
       <use x="150" xlink:href="#TimesNewRomanPSMT-30"/>
       <use x="200" xlink:href="#TimesNewRomanPSMT-30"/>
      </g>
     </g>
    </g>
    <g id="text_8">
     <!-- Wh -->
     <defs>
      <path d="M 93.609375 66.21875 
L 93.609375 64.40625 
Q 91.015625 64.40625 89.40625 63.46875 
Q 87.796875 62.546875 86.328125 60.015625 
Q 85.359375 58.296875 83.25 51.859375 
L 64.796875 -1.515625 
L 62.84375 -1.515625 
L 47.75 40.828125 
L 32.765625 -1.515625 
L 31 -1.515625 
L 11.328125 53.46875 
Q 9.125 59.625 8.546875 60.75 
Q 7.5625 62.59375 5.875 63.5 
Q 4.203125 64.40625 1.3125 64.40625 
L 1.3125 66.21875 
L 25.828125 66.21875 
L 25.828125 64.40625 
L 24.65625 64.40625 
Q 22.078125 64.40625 20.703125 63.234375 
Q 19.34375 62.0625 19.34375 60.40625 
Q 19.34375 58.6875 21.484375 52.546875 
L 34.515625 15.375 
L 45.515625 46.96875 
L 43.5625 52.546875 
L 42 56.984375 
Q 40.96875 59.421875 39.703125 61.28125 
Q 39.0625 62.203125 38.140625 62.84375 
Q 36.921875 63.71875 35.6875 64.109375 
Q 34.765625 64.40625 32.765625 64.40625 
L 32.765625 66.21875 
L 58.546875 66.21875 
L 58.546875 64.40625 
L 56.78125 64.40625 
Q 54.046875 64.40625 52.78125 63.234375 
Q 51.515625 62.0625 51.515625 60.0625 
Q 51.515625 57.5625 53.71875 51.375 
L 66.40625 15.375 
L 79 51.859375 
Q 81.15625 57.90625 81.15625 60.25 
Q 81.15625 61.375 80.4375 62.34375 
Q 79.734375 63.328125 78.65625 63.71875 
Q 76.8125 64.40625 73.828125 64.40625 
L 73.828125 66.21875 
z
" id="TimesNewRomanPSMT-57"/>
      <path d="M 16.265625 69.4375 
L 16.265625 36.71875 
Q 21.6875 42.671875 24.859375 44.359375 
Q 28.03125 46.046875 31.203125 46.046875 
Q 35.015625 46.046875 37.75 43.9375 
Q 40.484375 41.84375 41.796875 37.359375 
Q 42.71875 34.234375 42.71875 25.921875 
L 42.71875 10.109375 
Q 42.71875 5.859375 43.40625 4.296875 
Q 43.890625 3.125 45.0625 2.4375 
Q 46.234375 1.765625 49.359375 1.765625 
L 49.359375 0 
L 27.390625 0 
L 27.390625 1.765625 
L 28.421875 1.765625 
Q 31.546875 1.765625 32.765625 2.703125 
Q 33.984375 3.65625 34.46875 5.515625 
Q 34.625 6.296875 34.625 10.109375 
L 34.625 25.921875 
Q 34.625 33.25 33.859375 35.546875 
Q 33.109375 37.84375 31.4375 38.984375 
Q 29.78125 40.140625 27.4375 40.140625 
Q 25.046875 40.140625 22.453125 38.859375 
Q 19.875 37.59375 16.265625 33.734375 
L 16.265625 10.109375 
Q 16.265625 5.515625 16.765625 4.390625 
Q 17.28125 3.265625 18.671875 2.515625 
Q 20.0625 1.765625 23.484375 1.765625 
L 23.484375 0 
L 1.3125 0 
L 1.3125 1.765625 
Q 4.296875 1.765625 6 2.6875 
Q 6.984375 3.171875 7.5625 4.53125 
Q 8.15625 5.90625 8.15625 10.109375 
L 8.15625 50.59375 
Q 8.15625 58.25 7.78125 60 
Q 7.421875 61.765625 6.65625 62.390625 
Q 5.90625 63.03125 4.640625 63.03125 
Q 3.609375 63.03125 1.3125 62.25 
L 0.640625 63.96875 
L 14.015625 69.4375 
z
" id="TimesNewRomanPSMT-68"/>
     </defs>
     <g transform="translate(23.865 136.746875)rotate(-90)scale(0.24 -0.24)">
      <use xlink:href="#TimesNewRomanPSMT-57"/>
      <use x="94.384766" xlink:href="#TimesNewRomanPSMT-68"/>
     </g>
    </g>
   </g>
   <g id="line2d_8">
    <path clip-path="url(#pe8a7c8347b)" d="M 125.362386 155.182859 
L 129.119962 140.368765 
L 132.877538 69.206583 
L 136.635114 103.288088 
L 140.392689 103.378972 
L 144.150265 80.567085 
L 147.907841 144.367661 
L 151.665417 158.363799 
L 155.422992 117.556878 
L 159.180568 146.094458 
L 162.938144 207.53205 
L 166.69572 145.549154 
L 170.453295 70.660727 
L 174.210871 181.266571 
L 177.968447 173.99585 
L 181.726023 207.622934 
L 185.483598 218.256364 
L 189.241174 204.441994 
L 192.99875 96.562671 
L 196.756326 97.925931 
L 200.513902 63.299122 
L 204.271477 165.361868 
L 208.029053 93.38173 
L 211.786629 136.006332 
L 215.544205 185.447235 
L 219.30178 158.454683 
L 223.059356 163.453304 
L 226.816932 74.477856 
L 230.574508 102.742784 
L 234.332083 141.186721 
L 238.089659 128.281191 
L 241.847235 113.103561 
L 245.604811 141.550257 
L 249.362386 133.279812 
L 253.119962 113.285329 
L 256.877538 145.367386 
L 260.635114 179.90331 
L 264.392689 157.727611 
L 268.150265 111.467649 
L 271.907841 135.461028 
L 275.665417 151.36573 
L 279.422992 145.094734 
L 283.180568 151.274846 
L 286.938144 165.270984 
L 290.69572 103.651624 
L 294.453295 144.185893 
L 298.210871 158.363799 
L 301.968447 197.353041 
L 305.726023 61.66321 
L 309.483598 172.632589 
L 313.241174 145.91269 
L 316.99875 159.999712 
L 320.756326 142.549981 
L 324.513902 147.73037 
L 328.271477 149.911586 
L 332.029053 80.657969 
L 335.786629 169.451649 
L 339.544205 153.728715 
L 343.30178 145.730922 
L 347.059356 174.359386 
L 350.816932 138.278433 
L 354.574508 178.449166 
L 358.332083 52.665693 
L 362.089659 140.005229 
L 365.847235 60.027298 
L 369.604811 153.637831 
L 373.362386 185.356351 
L 377.119962 118.556602 
L 380.877538 120.55605 
L 384.635114 165.543636 
L 388.392689 174.268502 
L 392.150265 156.000815 
L 395.907841 175.540878 
L 399.665417 31.217066 
L 403.422992 124.736715 
L 407.180568 171.723749 
L 410.938144 100.743335 
L 414.69572 147.639486 
L 418.453295 152.547223 
L 422.210871 163.725956 
L 425.968447 189.355248 
L 429.726023 200.988401 
L 433.483598 173.359661 
L 437.241174 20.583636 
L 440.99875 64.662382 
L 444.756326 152.728991 
L 448.513902 177.267674 
L 452.271477 91.382282 
L 456.029053 129.644451 
L 459.786629 170.269605 
L 463.544205 165.452752 
L 467.30178 122.82815 
L 471.059356 144.004125 
L 474.816932 155.091975 
L 478.574508 95.381179 
L 482.332083 91.745818 
L 486.089659 128.735611 
L 489.847235 173.359661 
L 493.604811 172.541705 
L 497.362386 161.817392 
L 501.119962 166.725129 
L 504.877538 44.031712 
L 508.635114 129.917103 
L 512.392689 160.272364 
L 516.150265 168.997229 
L 519.907841 170.451373 
L 523.665417 169.088113 
L 527.422992 141.822909 
L 531.180568 121.374006 
L 534.938144 83.566257 
L 538.69572 139.278157 
L 542.453295 155.273743 
L 546.210871 176.086182 
L 549.968447 163.998608 
L 553.726023 157.364075 
L 557.483598 135.461028 
L 561.241174 140.186997 
L 564.99875 177.63121 
L 568.756326 156.000815 
L 572.513902 180.993918 
L 576.271477 170.360489 
L 580.029053 172.814357 
L 583.786629 46.667348 
L 587.544205 137.006056 
L 591.30178 131.18948 
L 595.059356 136.278984 
L 598.816932 180.903034 
L 602.574508 159.72706 
L 606.332083 175.722646 
L 610.089659 182.629831 
L 613.847235 55.755749 
L 617.604811 123.191687 
L 621.362386 158.636451 
L 625.119962 141.459373 
L 628.877538 157.545843 
L 632.635114 74.932276 
L 632.635114 74.932276 
" style="fill:none;stroke:#000000;stroke-linecap:square;stroke-width:1.5;"/>
   </g>
   <g id="patch_3">
    <path d="M 99.99875 228.14 
L 99.99875 10.7 
" style="fill:none;stroke:#000000;stroke-linecap:square;stroke-linejoin:miter;stroke-width:0.8;"/>
   </g>
   <g id="patch_4">
    <path d="M 657.99875 228.14 
L 657.99875 10.7 
" style="fill:none;stroke:#000000;stroke-linecap:square;stroke-linejoin:miter;stroke-width:0.8;"/>
   </g>
   <g id="patch_5">
    <path d="M 99.99875 228.14 
L 657.99875 228.14 
" style="fill:none;stroke:#000000;stroke-linecap:square;stroke-linejoin:miter;stroke-width:0.8;"/>
   </g>
   <g id="patch_6">
    <path d="M 99.99875 10.7 
L 657.99875 10.7 
" style="fill:none;stroke:#000000;stroke-linecap:square;stroke-linejoin:miter;stroke-width:0.8;"/>
   </g>
  </g>
 </g>
 <defs>
  <clipPath id="pe8a7c8347b">
   <rect height="217.44" width="558" x="99.99875" y="10.7"/>
  </clipPath>
 </defs>
</svg>
