<?xml version="1.0" encoding="utf-8" standalone="no"?>
<!DOCTYPE svg PUBLIC "-//W3C//DTD SVG 1.1//EN"
  "http://www.w3.org/Graphics/SVG/1.1/DTD/svg11.dtd">
<!-- Created with matplotlib (http://matplotlib.org/) -->
<svg height="336pt" version="1.1" viewBox="0 0 656 336" width="656pt" xmlns="http://www.w3.org/2000/svg" xmlns:xlink="http://www.w3.org/1999/xlink">
 <defs>
  <style type="text/css">
*{stroke-linecap:butt;stroke-linejoin:round;}
  </style>
 </defs>
 <g id="figure_1">
  <g id="patch_1">
   <path d="M 0 336.937629 
L 656.69875 336.937629 
L 656.69875 0 
L 0 0 
z
" style="fill:#ffffff;"/>
  </g>
  <g id="axes_1">
   <g id="patch_2">
    <path d="M 87.99875 228.14 
L 645.99875 228.14 
L 645.99875 10.7 
L 87.99875 10.7 
z
" style="fill:#ffffff;"/>
   </g>
   <g id="matplotlib.axis_1">
    <g id="xtick_1">
     <g id="line2d_1">
      <defs>
       <path d="M 0 0 
L 0 3.5 
" id="m569f119bf7" style="stroke:#000000;stroke-width:0.8;"/>
      </defs>
      <g>
       <use style="stroke:#000000;stroke-width:0.8;" x="113.362386" xlink:href="#m569f119bf7" y="228.14"/>
      </g>
     </g>
     <g id="text_1">
      <!-- 2016-01-12 -->
      <defs>
       <path d="M 45.84375 12.75 
L 41.21875 0 
L 2.15625 0 
L 2.15625 1.8125 
Q 19.390625 17.53125 26.421875 27.484375 
Q 33.453125 37.453125 33.453125 45.703125 
Q 33.453125 52 29.59375 56.046875 
Q 25.734375 60.109375 20.359375 60.109375 
Q 15.484375 60.109375 11.59375 57.25 
Q 7.71875 54.390625 5.859375 48.875 
L 4.046875 48.875 
Q 5.28125 57.90625 10.328125 62.734375 
Q 15.375 67.578125 22.953125 67.578125 
Q 31 67.578125 36.390625 62.40625 
Q 41.796875 57.234375 41.796875 50.203125 
Q 41.796875 45.171875 39.453125 40.140625 
Q 35.84375 32.234375 27.734375 23.390625 
Q 15.578125 10.109375 12.546875 7.375 
L 29.828125 7.375 
Q 35.109375 7.375 37.234375 7.765625 
Q 39.359375 8.15625 41.0625 9.34375 
Q 42.78125 10.546875 44.046875 12.75 
z
" id="TimesNewRomanPSMT-32"/>
       <path d="M 3.609375 32.71875 
Q 3.609375 44.046875 7.03125 52.21875 
Q 10.453125 60.40625 16.109375 64.40625 
Q 20.515625 67.578125 25.203125 67.578125 
Q 32.8125 67.578125 38.875 59.8125 
Q 46.4375 50.203125 46.4375 33.734375 
Q 46.4375 22.21875 43.109375 14.15625 
Q 39.796875 6.109375 34.640625 2.46875 
Q 29.5 -1.171875 24.703125 -1.171875 
Q 15.234375 -1.171875 8.9375 10.015625 
Q 3.609375 19.4375 3.609375 32.71875 
M 13.1875 31.5 
Q 13.1875 17.828125 16.546875 9.1875 
Q 19.34375 1.90625 24.859375 1.90625 
Q 27.484375 1.90625 30.3125 4.265625 
Q 33.15625 6.640625 34.625 12.203125 
Q 36.859375 20.609375 36.859375 35.890625 
Q 36.859375 47.21875 34.515625 54.78125 
Q 32.765625 60.40625 29.984375 62.75 
Q 27.984375 64.359375 25.140625 64.359375 
Q 21.828125 64.359375 19.234375 61.375 
Q 15.71875 57.328125 14.453125 48.625 
Q 13.1875 39.9375 13.1875 31.5 
" id="TimesNewRomanPSMT-30"/>
       <path d="M 11.71875 59.71875 
L 27.828125 67.578125 
L 29.4375 67.578125 
L 29.4375 11.671875 
Q 29.4375 6.109375 29.90625 4.734375 
Q 30.375 3.375 31.828125 2.640625 
Q 33.296875 1.90625 37.796875 1.8125 
L 37.796875 0 
L 12.890625 0 
L 12.890625 1.8125 
Q 17.578125 1.90625 18.9375 2.609375 
Q 20.3125 3.328125 20.84375 4.515625 
Q 21.390625 5.71875 21.390625 11.671875 
L 21.390625 47.40625 
Q 21.390625 54.640625 20.90625 56.6875 
Q 20.5625 58.25 19.65625 58.984375 
Q 18.75 59.71875 17.484375 59.71875 
Q 15.671875 59.71875 12.453125 58.203125 
z
" id="TimesNewRomanPSMT-31"/>
       <path d="M 44.828125 67.578125 
L 44.828125 65.765625 
Q 38.375 65.140625 34.296875 63.203125 
Q 30.21875 61.28125 26.234375 57.328125 
Q 22.265625 53.375 19.65625 48.515625 
Q 17.046875 43.65625 15.28125 36.96875 
Q 22.3125 41.796875 29.390625 41.796875 
Q 36.1875 41.796875 41.15625 36.328125 
Q 46.140625 30.859375 46.140625 22.265625 
Q 46.140625 13.96875 41.109375 7.125 
Q 35.0625 -1.171875 25.09375 -1.171875 
Q 18.3125 -1.171875 13.578125 3.328125 
Q 4.296875 12.0625 4.296875 25.984375 
Q 4.296875 34.859375 7.859375 42.859375 
Q 11.421875 50.875 18.03125 57.078125 
Q 24.65625 63.28125 30.703125 65.421875 
Q 36.765625 67.578125 42 67.578125 
z
M 14.453125 33.40625 
Q 13.578125 26.8125 13.578125 22.75 
Q 13.578125 18.0625 15.3125 12.5625 
Q 17.046875 7.078125 20.453125 3.859375 
Q 22.953125 1.5625 26.515625 1.5625 
Q 30.765625 1.5625 34.109375 5.5625 
Q 37.453125 9.578125 37.453125 17 
Q 37.453125 25.34375 34.125 31.4375 
Q 30.8125 37.546875 24.703125 37.546875 
Q 22.859375 37.546875 20.734375 36.765625 
Q 18.609375 35.984375 14.453125 33.40625 
" id="TimesNewRomanPSMT-36"/>
       <path d="M 4.046875 26.125 
L 29.296875 26.125 
L 29.296875 18.75 
L 4.046875 18.75 
z
" id="TimesNewRomanPSMT-2d"/>
      </defs>
      <g transform="translate(77.847506 326.10752)rotate(-45)scale(0.24 -0.24)">
       <use xlink:href="#TimesNewRomanPSMT-32"/>
       <use x="50" xlink:href="#TimesNewRomanPSMT-30"/>
       <use x="100" xlink:href="#TimesNewRomanPSMT-31"/>
       <use x="150" xlink:href="#TimesNewRomanPSMT-36"/>
       <use x="200" xlink:href="#TimesNewRomanPSMT-2d"/>
       <use x="233.300781" xlink:href="#TimesNewRomanPSMT-30"/>
       <use x="283.300781" xlink:href="#TimesNewRomanPSMT-31"/>
       <use x="333.300781" xlink:href="#TimesNewRomanPSMT-2d"/>
       <use x="366.601562" xlink:href="#TimesNewRomanPSMT-31"/>
       <use x="416.601562" xlink:href="#TimesNewRomanPSMT-32"/>
      </g>
     </g>
    </g>
    <g id="xtick_2">
     <g id="line2d_2">
      <g>
       <use style="stroke:#000000;stroke-width:0.8;" x="225.295075" xlink:href="#m569f119bf7" y="228.14"/>
      </g>
     </g>
     <g id="text_2">
      <!-- 2016-02-12 -->
      <g transform="translate(189.780195 326.10752)rotate(-45)scale(0.24 -0.24)">
       <use xlink:href="#TimesNewRomanPSMT-32"/>
       <use x="50" xlink:href="#TimesNewRomanPSMT-30"/>
       <use x="100" xlink:href="#TimesNewRomanPSMT-31"/>
       <use x="150" xlink:href="#TimesNewRomanPSMT-36"/>
       <use x="200" xlink:href="#TimesNewRomanPSMT-2d"/>
       <use x="233.300781" xlink:href="#TimesNewRomanPSMT-30"/>
       <use x="283.300781" xlink:href="#TimesNewRomanPSMT-32"/>
       <use x="333.300781" xlink:href="#TimesNewRomanPSMT-2d"/>
       <use x="366.601562" xlink:href="#TimesNewRomanPSMT-31"/>
       <use x="416.601562" xlink:href="#TimesNewRomanPSMT-32"/>
      </g>
     </g>
    </g>
    <g id="xtick_3">
     <g id="line2d_3">
      <g>
       <use style="stroke:#000000;stroke-width:0.8;" x="337.227764" xlink:href="#m569f119bf7" y="228.14"/>
      </g>
     </g>
     <g id="text_3">
      <!-- 2016-03-12 -->
      <defs>
       <path d="M 5.078125 53.609375 
Q 7.90625 60.296875 12.21875 63.9375 
Q 16.546875 67.578125 23 67.578125 
Q 30.953125 67.578125 35.203125 62.40625 
Q 38.421875 58.546875 38.421875 54.15625 
Q 38.421875 46.921875 29.34375 39.203125 
Q 35.453125 36.8125 38.578125 32.375 
Q 41.703125 27.9375 41.703125 21.921875 
Q 41.703125 13.328125 36.234375 7.03125 
Q 29.109375 -1.171875 15.578125 -1.171875 
Q 8.890625 -1.171875 6.46875 0.484375 
Q 4.046875 2.15625 4.046875 4.046875 
Q 4.046875 5.46875 5.1875 6.546875 
Q 6.34375 7.625 7.953125 7.625 
Q 9.1875 7.625 10.453125 7.234375 
Q 11.28125 6.984375 14.203125 5.4375 
Q 17.140625 3.90625 18.265625 3.609375 
Q 20.0625 3.078125 22.125 3.078125 
Q 27.09375 3.078125 30.78125 6.9375 
Q 34.46875 10.796875 34.46875 16.0625 
Q 34.46875 19.921875 32.765625 23.578125 
Q 31.5 26.3125 29.984375 27.734375 
Q 27.875 29.6875 24.21875 31.265625 
Q 20.5625 32.859375 16.75 32.859375 
L 15.1875 32.859375 
L 15.1875 34.328125 
Q 19.046875 34.8125 22.921875 37.109375 
Q 26.8125 39.40625 28.5625 42.625 
Q 30.328125 45.84375 30.328125 49.703125 
Q 30.328125 54.734375 27.171875 57.828125 
Q 24.03125 60.9375 19.34375 60.9375 
Q 11.765625 60.9375 6.6875 52.828125 
z
" id="TimesNewRomanPSMT-33"/>
      </defs>
      <g transform="translate(301.712884 326.10752)rotate(-45)scale(0.24 -0.24)">
       <use xlink:href="#TimesNewRomanPSMT-32"/>
       <use x="50" xlink:href="#TimesNewRomanPSMT-30"/>
       <use x="100" xlink:href="#TimesNewRomanPSMT-31"/>
       <use x="150" xlink:href="#TimesNewRomanPSMT-36"/>
       <use x="200" xlink:href="#TimesNewRomanPSMT-2d"/>
       <use x="233.300781" xlink:href="#TimesNewRomanPSMT-30"/>
       <use x="283.300781" xlink:href="#TimesNewRomanPSMT-33"/>
       <use x="333.300781" xlink:href="#TimesNewRomanPSMT-2d"/>
       <use x="366.601562" xlink:href="#TimesNewRomanPSMT-31"/>
       <use x="416.601562" xlink:href="#TimesNewRomanPSMT-32"/>
      </g>
     </g>
    </g>
    <g id="xtick_4">
     <g id="line2d_4">
      <g>
       <use style="stroke:#000000;stroke-width:0.8;" x="449.160453" xlink:href="#m569f119bf7" y="228.14"/>
      </g>
     </g>
     <g id="text_4">
      <!-- 2016-04-12 -->
      <defs>
       <path d="M 46.53125 24.421875 
L 46.53125 17.484375 
L 37.640625 17.484375 
L 37.640625 0 
L 29.59375 0 
L 29.59375 17.484375 
L 1.5625 17.484375 
L 1.5625 23.734375 
L 32.28125 67.578125 
L 37.640625 67.578125 
L 37.640625 24.421875 
z
M 29.59375 24.421875 
L 29.59375 57.28125 
L 6.34375 24.421875 
z
" id="TimesNewRomanPSMT-34"/>
      </defs>
      <g transform="translate(413.645573 326.10752)rotate(-45)scale(0.24 -0.24)">
       <use xlink:href="#TimesNewRomanPSMT-32"/>
       <use x="50" xlink:href="#TimesNewRomanPSMT-30"/>
       <use x="100" xlink:href="#TimesNewRomanPSMT-31"/>
       <use x="150" xlink:href="#TimesNewRomanPSMT-36"/>
       <use x="200" xlink:href="#TimesNewRomanPSMT-2d"/>
       <use x="233.300781" xlink:href="#TimesNewRomanPSMT-30"/>
       <use x="283.300781" xlink:href="#TimesNewRomanPSMT-34"/>
       <use x="333.300781" xlink:href="#TimesNewRomanPSMT-2d"/>
       <use x="366.601562" xlink:href="#TimesNewRomanPSMT-31"/>
       <use x="416.601562" xlink:href="#TimesNewRomanPSMT-32"/>
      </g>
     </g>
    </g>
    <g id="xtick_5">
     <g id="line2d_5">
      <g>
       <use style="stroke:#000000;stroke-width:0.8;" x="561.093142" xlink:href="#m569f119bf7" y="228.14"/>
      </g>
     </g>
     <g id="text_5">
      <!-- 2016-05-12 -->
      <defs>
       <path d="M 43.40625 66.21875 
L 39.59375 57.90625 
L 19.671875 57.90625 
L 15.328125 49.03125 
Q 28.265625 47.125 35.84375 39.40625 
Q 42.328125 32.765625 42.328125 23.78125 
Q 42.328125 18.5625 40.203125 14.109375 
Q 38.09375 9.671875 34.859375 6.546875 
Q 31.640625 3.421875 27.6875 1.515625 
Q 22.078125 -1.171875 16.15625 -1.171875 
Q 10.203125 -1.171875 7.484375 0.84375 
Q 4.78125 2.875 4.78125 5.328125 
Q 4.78125 6.6875 5.90625 7.734375 
Q 7.03125 8.796875 8.734375 8.796875 
Q 10.015625 8.796875 10.96875 8.40625 
Q 11.921875 8.015625 14.203125 6.390625 
Q 17.875 3.859375 21.625 3.859375 
Q 27.34375 3.859375 31.65625 8.171875 
Q 35.984375 12.5 35.984375 18.703125 
Q 35.984375 24.703125 32.125 29.90625 
Q 28.265625 35.109375 21.484375 37.9375 
Q 16.15625 40.140625 6.984375 40.484375 
L 19.671875 66.21875 
z
" id="TimesNewRomanPSMT-35"/>
      </defs>
      <g transform="translate(525.578262 326.10752)rotate(-45)scale(0.24 -0.24)">
       <use xlink:href="#TimesNewRomanPSMT-32"/>
       <use x="50" xlink:href="#TimesNewRomanPSMT-30"/>
       <use x="100" xlink:href="#TimesNewRomanPSMT-31"/>
       <use x="150" xlink:href="#TimesNewRomanPSMT-36"/>
       <use x="200" xlink:href="#TimesNewRomanPSMT-2d"/>
       <use x="233.300781" xlink:href="#TimesNewRomanPSMT-30"/>
       <use x="283.300781" xlink:href="#TimesNewRomanPSMT-35"/>
       <use x="333.300781" xlink:href="#TimesNewRomanPSMT-2d"/>
       <use x="366.601562" xlink:href="#TimesNewRomanPSMT-31"/>
       <use x="416.601562" xlink:href="#TimesNewRomanPSMT-32"/>
      </g>
     </g>
    </g>
   </g>
   <g id="matplotlib.axis_2">
    <g id="ytick_1">
     <g id="line2d_6">
      <defs>
       <path d="M 0 0 
L -3.5 0 
" id="mfb4330f720" style="stroke:#000000;stroke-width:0.8;"/>
      </defs>
      <g>
       <use style="stroke:#000000;stroke-width:0.8;" x="87.99875" xlink:href="#mfb4330f720" y="227.91279"/>
      </g>
     </g>
     <g id="text_6">
      <!-- 0 -->
      <g transform="translate(68.99875 236.24529)scale(0.24 -0.24)">
       <use xlink:href="#TimesNewRomanPSMT-30"/>
      </g>
     </g>
    </g>
    <g id="ytick_2">
     <g id="line2d_7">
      <g>
       <use style="stroke:#000000;stroke-width:0.8;" x="87.99875" xlink:href="#mfb4330f720" y="171.110282"/>
      </g>
     </g>
     <g id="text_7">
      <!-- 1000 -->
      <g transform="translate(32.99875 179.442782)scale(0.24 -0.24)">
       <use xlink:href="#TimesNewRomanPSMT-31"/>
       <use x="50" xlink:href="#TimesNewRomanPSMT-30"/>
       <use x="100" xlink:href="#TimesNewRomanPSMT-30"/>
       <use x="150" xlink:href="#TimesNewRomanPSMT-30"/>
      </g>
     </g>
    </g>
    <g id="ytick_3">
     <g id="line2d_8">
      <g>
       <use style="stroke:#000000;stroke-width:0.8;" x="87.99875" xlink:href="#mfb4330f720" y="114.307774"/>
      </g>
     </g>
     <g id="text_8">
      <!-- 2000 -->
      <g transform="translate(32.99875 122.640274)scale(0.24 -0.24)">
       <use xlink:href="#TimesNewRomanPSMT-32"/>
       <use x="50" xlink:href="#TimesNewRomanPSMT-30"/>
       <use x="100" xlink:href="#TimesNewRomanPSMT-30"/>
       <use x="150" xlink:href="#TimesNewRomanPSMT-30"/>
      </g>
     </g>
    </g>
    <g id="ytick_4">
     <g id="line2d_9">
      <g>
       <use style="stroke:#000000;stroke-width:0.8;" x="87.99875" xlink:href="#mfb4330f720" y="57.505266"/>
      </g>
     </g>
     <g id="text_9">
      <!-- 3000 -->
      <g transform="translate(32.99875 65.837766)scale(0.24 -0.24)">
       <use xlink:href="#TimesNewRomanPSMT-33"/>
       <use x="50" xlink:href="#TimesNewRomanPSMT-30"/>
       <use x="100" xlink:href="#TimesNewRomanPSMT-30"/>
       <use x="150" xlink:href="#TimesNewRomanPSMT-30"/>
      </g>
     </g>
    </g>
    <g id="text_10">
     <!-- Wh -->
     <defs>
      <path d="M 93.609375 66.21875 
L 93.609375 64.40625 
Q 91.015625 64.40625 89.40625 63.46875 
Q 87.796875 62.546875 86.328125 60.015625 
Q 85.359375 58.296875 83.25 51.859375 
L 64.796875 -1.515625 
L 62.84375 -1.515625 
L 47.75 40.828125 
L 32.765625 -1.515625 
L 31 -1.515625 
L 11.328125 53.46875 
Q 9.125 59.625 8.546875 60.75 
Q 7.5625 62.59375 5.875 63.5 
Q 4.203125 64.40625 1.3125 64.40625 
L 1.3125 66.21875 
L 25.828125 66.21875 
L 25.828125 64.40625 
L 24.65625 64.40625 
Q 22.078125 64.40625 20.703125 63.234375 
Q 19.34375 62.0625 19.34375 60.40625 
Q 19.34375 58.6875 21.484375 52.546875 
L 34.515625 15.375 
L 45.515625 46.96875 
L 43.5625 52.546875 
L 42 56.984375 
Q 40.96875 59.421875 39.703125 61.28125 
Q 39.0625 62.203125 38.140625 62.84375 
Q 36.921875 63.71875 35.6875 64.109375 
Q 34.765625 64.40625 32.765625 64.40625 
L 32.765625 66.21875 
L 58.546875 66.21875 
L 58.546875 64.40625 
L 56.78125 64.40625 
Q 54.046875 64.40625 52.78125 63.234375 
Q 51.515625 62.0625 51.515625 60.0625 
Q 51.515625 57.5625 53.71875 51.375 
L 66.40625 15.375 
L 79 51.859375 
Q 81.15625 57.90625 81.15625 60.25 
Q 81.15625 61.375 80.4375 62.34375 
Q 79.734375 63.328125 78.65625 63.71875 
Q 76.8125 64.40625 73.828125 64.40625 
L 73.828125 66.21875 
z
" id="TimesNewRomanPSMT-57"/>
      <path d="M 16.265625 69.4375 
L 16.265625 36.71875 
Q 21.6875 42.671875 24.859375 44.359375 
Q 28.03125 46.046875 31.203125 46.046875 
Q 35.015625 46.046875 37.75 43.9375 
Q 40.484375 41.84375 41.796875 37.359375 
Q 42.71875 34.234375 42.71875 25.921875 
L 42.71875 10.109375 
Q 42.71875 5.859375 43.40625 4.296875 
Q 43.890625 3.125 45.0625 2.4375 
Q 46.234375 1.765625 49.359375 1.765625 
L 49.359375 0 
L 27.390625 0 
L 27.390625 1.765625 
L 28.421875 1.765625 
Q 31.546875 1.765625 32.765625 2.703125 
Q 33.984375 3.65625 34.46875 5.515625 
Q 34.625 6.296875 34.625 10.109375 
L 34.625 25.921875 
Q 34.625 33.25 33.859375 35.546875 
Q 33.109375 37.84375 31.4375 38.984375 
Q 29.78125 40.140625 27.4375 40.140625 
Q 25.046875 40.140625 22.453125 38.859375 
Q 19.875 37.59375 16.265625 33.734375 
L 16.265625 10.109375 
Q 16.265625 5.515625 16.765625 4.390625 
Q 17.28125 3.265625 18.671875 2.515625 
Q 20.0625 1.765625 23.484375 1.765625 
L 23.484375 0 
L 1.3125 0 
L 1.3125 1.765625 
Q 4.296875 1.765625 6 2.6875 
Q 6.984375 3.171875 7.5625 4.53125 
Q 8.15625 5.90625 8.15625 10.109375 
L 8.15625 50.59375 
Q 8.15625 58.25 7.78125 60 
Q 7.421875 61.765625 6.65625 62.390625 
Q 5.90625 63.03125 4.640625 63.03125 
Q 3.609375 63.03125 1.3125 62.25 
L 0.640625 63.96875 
L 14.015625 69.4375 
z
" id="TimesNewRomanPSMT-68"/>
     </defs>
     <g transform="translate(23.865 136.746875)rotate(-90)scale(0.24 -0.24)">
      <use xlink:href="#TimesNewRomanPSMT-57"/>
      <use x="94.384766" xlink:href="#TimesNewRomanPSMT-68"/>
     </g>
    </g>
   </g>
   <g id="line2d_10">
    <path clip-path="url(#p0819c6679b)" d="M 113.362386 179.630658 
L 113.517848 170.542257 
L 113.67331 212.576113 
L 113.828773 215.984263 
L 113.984235 212.576113 
L 114.139697 213.144138 
L 114.295159 214.280188 
L 114.450621 208.599937 
L 114.606083 198.375486 
L 114.761545 213.144138 
L 114.917007 149.525329 
L 115.072469 209.167962 
L 115.227931 164.293981 
L 115.538855 181.334734 
L 115.694317 215.416238 
L 115.849779 214.280188 
L 116.005242 153.501505 
L 116.160704 208.031912 
L 116.471628 210.304013 
L 116.62709 213.712163 
L 116.782552 212.008088 
L 116.938014 213.144138 
L 117.093476 217.120313 
L 117.248938 211.440063 
L 117.4044 212.576113 
L 117.559862 217.120313 
L 117.715324 212.576113 
L 117.870786 213.712163 
L 118.026248 205.191787 
L 118.18171 206.327837 
L 118.337173 156.909655 
L 118.492635 152.93348 
L 118.648097 205.191787 
L 118.803559 207.463887 
L 119.114483 215.984263 
L 119.269945 212.576113 
L 119.425407 213.712163 
L 119.736331 194.967335 
L 119.891793 189.85511 
L 120.202717 143.277053 
L 120.358179 121.124075 
L 120.669104 213.712163 
L 120.824566 212.008088 
L 120.980028 215.416238 
L 121.13549 213.144138 
L 121.290952 212.576113 
L 121.446414 215.984263 
L 121.601876 212.576113 
L 121.757338 214.280188 
L 121.9128 150.661379 
L 122.068262 173.382382 
L 122.223724 170.542257 
L 122.379186 44.44069 
L 122.534648 146.685204 
L 122.69011 131.348527 
L 122.845573 204.055737 
L 123.001035 183.606834 
L 123.156497 210.304013 
L 123.467421 89.882696 
L 123.622883 154.06953 
L 123.778345 148.957304 
L 123.933807 190.423135 
L 124.089269 188.151034 
L 124.244731 211.440063 
L 124.400193 214.848213 
L 124.555655 209.735987 
L 124.711117 210.304013 
L 125.022041 213.144138 
L 125.177504 210.872038 
L 125.332966 210.872038 
L 125.488428 212.576113 
L 125.64389 210.304013 
L 125.799352 147.821254 
L 125.954814 157.47768 
L 126.110276 185.310909 
L 126.265738 185.310909 
L 126.4212 156.34163 
L 126.576662 160.885831 
L 126.732124 206.327837 
L 126.887586 208.599937 
L 127.043048 208.599937 
L 127.19851 194.39931 
L 127.353972 133.052602 
L 127.509435 152.93348 
L 127.664897 148.389279 
L 127.820359 149.525329 
L 127.975821 153.501505 
L 128.131283 206.327837 
L 128.286745 214.280188 
L 128.442207 209.735987 
L 128.753131 213.712163 
L 128.908593 210.872038 
L 129.064055 214.280188 
L 129.219517 210.304013 
L 129.374979 143.845078 
L 129.685903 206.895862 
L 129.841366 203.487712 
L 129.996828 209.735987 
L 130.307752 198.375486 
L 130.463214 203.487712 
L 130.618676 156.909655 
L 130.774138 202.351661 
L 131.085062 66.593668 
L 131.240524 94.426897 
L 131.395986 187.583009 
L 131.551448 187.014984 
L 131.70691 169.974232 
L 131.862372 209.167962 
L 132.017835 212.008088 
L 132.173297 210.304013 
L 132.328759 213.144138 
L 132.484221 210.872038 
L 132.639683 210.304013 
L 132.795145 213.144138 
L 132.950607 212.576113 
L 133.106069 109.195549 
L 133.261531 135.324702 
L 133.416993 128.508401 
L 133.572455 197.239436 
L 133.727917 119.42 
L 133.883379 187.583009 
L 134.038841 169.974232 
L 134.194303 180.766708 
L 134.349766 200.079561 
L 134.505228 200.079561 
L 134.66069 72.841944 
L 134.971614 193.26326 
L 135.127076 190.423135 
L 135.282538 183.606834 
L 135.438 209.167962 
L 135.593462 206.327837 
L 135.748924 212.576113 
L 135.904386 213.144138 
L 136.059848 213.144138 
L 136.21531 213.712163 
L 136.370772 212.576113 
L 136.526234 216.552288 
L 136.681697 209.167962 
L 136.837159 209.167962 
L 136.992621 215.984263 
L 137.148083 212.576113 
L 137.303545 217.120313 
L 137.459007 212.576113 
L 137.614469 214.280188 
L 137.769931 214.280188 
L 137.925393 213.712163 
L 138.080855 216.552288 
L 138.236317 212.008088 
L 138.391779 215.984263 
L 138.547241 125.668276 
L 138.702703 161.453856 
L 138.858165 37.624389 
L 139.324552 212.576113 
L 139.480014 212.008088 
L 139.635476 212.576113 
L 139.790938 216.552288 
L 139.9464 212.008088 
L 140.101862 216.552288 
L 140.257324 212.576113 
L 140.412786 212.008088 
L 140.568248 213.712163 
L 140.72371 213.712163 
L 140.879172 216.552288 
L 141.034634 212.576113 
L 141.190097 216.552288 
L 141.345559 213.144138 
L 141.501021 216.552288 
L 141.656483 212.576113 
L 141.811945 214.848213 
L 141.967407 213.712163 
L 142.122869 203.487712 
L 142.278331 168.270157 
L 142.589255 75.114044 
L 142.900179 208.599937 
L 143.211103 215.416238 
L 143.366565 212.576113 
L 143.522028 217.120313 
L 143.67749 213.144138 
L 143.832952 213.712163 
L 143.988414 214.848213 
L 144.143876 188.151034 
L 144.299338 209.735987 
L 144.4548 173.382382 
L 144.610262 205.191787 
L 144.921186 200.079561 
L 145.076648 183.038809 
L 145.387572 209.167962 
L 145.543034 200.647586 
L 145.698496 204.055737 
L 146.164883 93.290846 
L 146.320345 131.348527 
L 146.475807 139.300878 
L 146.786731 210.304013 
L 146.942193 213.712163 
L 147.097655 209.167962 
L 147.253117 213.712163 
L 147.408579 210.872038 
L 147.564041 214.280188 
L 147.719503 210.304013 
L 147.874965 212.576113 
L 148.030427 212.008088 
L 148.18589 217.120313 
L 148.341352 209.735987 
L 148.496814 209.167962 
L 148.652276 210.304013 
L 148.807738 209.735987 
L 148.9632 168.838182 
L 149.118662 206.327837 
L 149.274124 212.576113 
L 149.429586 213.712163 
L 149.585048 215.984263 
L 149.74051 116.01185 
L 149.895972 117.1479 
L 150.206896 155.20558 
L 150.362359 209.167962 
L 150.673283 214.280188 
L 150.828745 215.416238 
L 151.139669 214.280188 
L 151.295131 215.416238 
L 151.450593 214.848213 
L 151.606055 214.848213 
L 151.916979 210.872038 
L 152.072441 192.695235 
L 152.227903 213.144138 
L 152.383365 174.518433 
L 152.538827 217.120313 
L 152.69429 212.576113 
L 152.849752 218.256364 
L 153.005214 213.144138 
L 153.160676 217.120313 
L 153.316138 213.144138 
L 153.4716 218.256364 
L 153.627062 214.848213 
L 153.782524 215.416238 
L 153.937986 216.552288 
L 154.093448 214.848213 
L 154.24891 217.120313 
L 154.404372 213.144138 
L 154.559834 217.120313 
L 154.870758 214.848213 
L 155.026221 217.688339 
L 155.181683 213.144138 
L 155.337145 217.688339 
L 155.492607 214.280188 
L 155.803531 175.654483 
L 155.958993 183.038809 
L 156.114455 183.038809 
L 156.269917 174.518433 
L 156.425379 178.494608 
L 156.580841 169.406207 
L 156.891765 204.055737 
L 157.047227 144.413103 
L 157.202689 196.671411 
L 157.358152 199.511536 
L 157.513614 192.12721 
L 157.669076 194.967335 
L 157.824538 202.919687 
L 157.98 204.055737 
L 158.135462 215.984263 
L 158.290924 213.144138 
L 158.446386 217.120313 
L 158.601848 212.576113 
L 158.75731 217.120313 
L 158.912772 214.280188 
L 159.068234 215.984263 
L 159.223696 203.487712 
L 159.379158 20.583636 
L 159.534621 106.923448 
L 159.845545 127.372351 
L 160.001007 157.47768 
L 160.156469 91.018746 
L 160.467393 198.943511 
L 160.622855 205.759812 
L 160.778317 201.215611 
L 160.933779 205.191787 
L 161.089241 172.246332 
L 161.244703 176.222508 
L 161.400165 200.079561 
L 161.555627 167.702132 
L 161.711089 214.848213 
L 161.866552 211.440063 
L 162.022014 211.440063 
L 162.177476 213.712163 
L 162.332938 211.440063 
L 162.4884 214.848213 
L 162.643862 210.872038 
L 162.954786 213.712163 
L 163.110248 211.440063 
L 163.26571 214.848213 
L 163.421172 210.872038 
L 163.576634 214.848213 
L 163.732096 211.440063 
L 163.887558 210.872038 
L 164.04302 214.848213 
L 164.198483 211.440063 
L 164.353945 210.872038 
L 164.509407 214.280188 
L 164.664869 212.008088 
L 164.975793 152.365455 
L 165.131255 201.215611 
L 165.286717 206.327837 
L 165.442179 159.749781 
L 165.597641 160.885831 
L 165.753103 213.144138 
L 165.908565 212.576113 
L 166.064027 215.984263 
L 166.219489 211.440063 
L 166.374951 212.008088 
L 166.530414 216.552288 
L 166.685876 192.12721 
L 166.9968 213.144138 
L 167.152262 213.712163 
L 167.307724 216.552288 
L 167.463186 212.576113 
L 167.618648 213.712163 
L 167.77411 216.552288 
L 167.929572 213.144138 
L 168.085034 212.576113 
L 168.240496 216.552288 
L 168.395958 213.712163 
L 168.55142 216.552288 
L 168.706883 152.365455 
L 168.862345 205.191787 
L 169.017807 196.103386 
L 169.173269 133.620627 
L 169.328731 212.576113 
L 169.484193 215.984263 
L 169.639655 214.280188 
L 169.795117 217.120313 
L 169.950579 213.712163 
L 170.106041 216.552288 
L 170.261503 214.848213 
L 170.416965 194.39931 
L 170.572427 207.463887 
L 170.727889 175.086458 
L 170.883351 218.256364 
L 171.038814 213.144138 
L 171.194276 217.120313 
L 171.349738 213.712163 
L 171.5052 213.712163 
L 171.660662 217.120313 
L 171.816124 213.712163 
L 171.971586 216.552288 
L 172.127048 214.280188 
L 172.28251 214.280188 
L 172.437972 217.688339 
L 172.593434 213.712163 
L 172.904358 216.552288 
L 173.05982 213.144138 
L 173.215282 217.688339 
L 173.370745 213.712163 
L 173.526207 213.712163 
L 173.681669 216.552288 
L 173.837131 213.712163 
L 173.992593 217.688339 
L 174.148055 214.280188 
L 174.303517 217.120313 
L 174.458979 213.144138 
L 174.614441 217.120313 
L 174.769903 213.712163 
L 174.925365 213.712163 
L 175.080827 216.552288 
L 175.236289 213.144138 
L 175.391751 218.256364 
L 175.547213 213.144138 
L 175.702676 213.712163 
L 175.858138 216.552288 
L 176.0136 214.280188 
L 176.169062 216.552288 
L 176.324524 213.712163 
L 176.479986 218.256364 
L 176.635448 213.712163 
L 176.79091 216.552288 
L 176.946372 213.144138 
L 177.101834 213.712163 
L 177.257296 217.688339 
L 177.412758 214.280188 
L 177.56822 216.552288 
L 177.723682 213.144138 
L 177.879145 218.256364 
L 178.034607 213.712163 
L 178.190069 217.120313 
L 178.345531 213.712163 
L 178.500993 217.688339 
L 178.656455 213.712163 
L 178.811917 217.688339 
L 178.967379 212.576113 
L 179.122841 218.256364 
L 179.589227 198.943511 
L 179.744689 197.807461 
L 179.900151 201.783636 
L 180.055613 200.647586 
L 180.677462 216.552288 
L 180.832924 212.576113 
L 180.988386 215.416238 
L 181.143848 215.984263 
L 181.29931 213.712163 
L 181.454772 213.712163 
L 181.610234 217.120313 
L 181.765696 212.008088 
L 181.921158 213.144138 
L 182.232082 201.783636 
L 182.387544 194.967335 
L 182.543007 116.01185 
L 182.853931 167.134107 
L 183.009393 145.549154 
L 183.164855 33.648213 
L 183.320317 159.749781 
L 183.475779 86.474545 
L 183.631241 194.39931 
L 183.786703 194.967335 
L 184.097627 212.008088 
L 184.253089 212.008088 
L 184.408551 215.984263 
L 184.564013 212.576113 
L 184.719475 212.008088 
L 184.874938 215.416238 
L 185.0304 212.008088 
L 185.185862 213.144138 
L 185.341324 215.984263 
L 185.652248 125.668276 
L 185.80771 131.916552 
L 185.963172 193.831285 
L 186.118634 93.858871 
L 186.429558 194.39931 
L 186.58502 188.71906 
L 186.740482 166.566082 
L 186.895944 176.222508 
L 187.051407 120.55605 
L 187.206869 187.583009 
L 187.362331 175.654483 
L 187.673255 204.055737 
L 187.828717 214.848213 
L 187.984179 212.576113 
L 188.139641 212.008088 
L 188.295103 214.848213 
L 188.450565 211.440063 
L 188.606027 212.576113 
L 188.761489 212.008088 
L 188.916951 215.416238 
L 189.072413 172.246332 
L 189.227875 196.103386 
L 189.383338 188.71906 
L 189.5388 202.351661 
L 189.694262 106.923448 
L 189.849724 130.212476 
L 190.005186 114.875799 
L 190.160648 133.620627 
L 190.31611 92.722821 
L 190.471572 147.821254 
L 190.627034 138.164828 
L 190.782496 164.862006 
L 190.937958 150.661379 
L 191.248882 193.26326 
L 191.404344 190.423135 
L 191.559806 209.735987 
L 191.715269 206.895862 
L 192.026193 212.576113 
L 192.181655 212.008088 
L 192.492579 213.144138 
L 192.648041 212.008088 
L 192.803503 209.167962 
L 192.958965 185.878934 
L 193.114427 206.327837 
L 193.269889 205.191787 
L 193.425351 200.079561 
L 193.580813 208.031912 
L 193.736275 208.031912 
L 193.891737 191.559185 
L 194.0472 207.463887 
L 194.358124 205.191787 
L 194.513586 138.732853 
L 194.669048 185.310909 
L 194.82451 194.39931 
L 194.979972 194.39931 
L 195.135434 197.239436 
L 195.290896 209.735987 
L 195.60182 205.759812 
L 195.757282 205.759812 
L 195.912744 211.440063 
L 196.068206 207.463887 
L 196.379131 208.599937 
L 196.534593 205.191787 
L 196.690055 173.382382 
L 196.845517 167.702132 
L 197.000979 141.572978 
L 197.467365 196.671411 
L 197.622827 158.61373 
L 197.778289 181.902759 
L 197.933751 118.851975 
L 198.089213 158.045705 
L 198.244675 132.484577 
L 198.400137 183.038809 
L 198.5556 183.038809 
L 198.711062 187.583009 
L 199.177448 214.848213 
L 199.33291 212.576113 
L 199.488372 212.008088 
L 199.643834 217.120313 
L 199.799296 212.008088 
L 199.954758 212.008088 
L 200.11022 214.848213 
L 200.421144 206.895862 
L 200.576606 179.630658 
L 200.732068 209.735987 
L 200.887531 204.055737 
L 201.042993 107.491473 
L 201.198455 180.766708 
L 201.509379 204.055737 
L 201.664841 193.831285 
L 201.820303 192.12721 
L 201.975765 133.052602 
L 202.286689 193.831285 
L 202.442151 160.317806 
L 202.597613 205.759812 
L 202.753075 208.599937 
L 202.908537 215.416238 
L 203.219462 211.440063 
L 203.530386 215.984263 
L 203.685848 212.008088 
L 203.84131 212.576113 
L 203.996772 214.280188 
L 204.152234 210.304013 
L 204.307696 211.440063 
L 204.463158 215.416238 
L 204.61862 204.055737 
L 204.774082 204.055737 
L 205.085006 215.416238 
L 205.240468 210.304013 
L 205.395931 210.304013 
L 205.551393 204.623762 
L 205.706855 146.685204 
L 206.017779 196.671411 
L 206.484165 217.120313 
L 206.639627 211.440063 
L 206.950551 212.576113 
L 207.106013 212.576113 
L 207.261475 215.416238 
L 207.416937 212.008088 
L 207.572399 212.576113 
L 207.727862 211.440063 
L 207.883324 212.576113 
L 208.038786 215.416238 
L 208.194248 209.167962 
L 208.34971 209.167962 
L 208.505172 201.783636 
L 208.660634 206.895862 
L 208.816096 206.895862 
L 209.12702 144.981129 
L 209.282482 150.093354 
L 209.593406 194.967335 
L 209.90433 196.103386 
L 210.370717 214.848213 
L 210.526179 213.144138 
L 210.681641 212.576113 
L 210.837103 213.144138 
L 210.992565 212.576113 
L 211.303489 215.416238 
L 211.614413 210.872038 
L 211.769875 209.735987 
L 211.925337 217.688339 
L 212.080799 207.463887 
L 212.236261 207.463887 
L 212.391724 205.759812 
L 212.547186 213.144138 
L 213.324496 150.661379 
L 213.479958 180.198683 
L 213.63542 165.430031 
L 213.790882 203.487712 
L 213.946344 200.647586 
L 214.101806 212.008088 
L 214.257268 212.008088 
L 214.41273 212.576113 
L 214.568193 212.008088 
L 214.723655 212.576113 
L 214.879117 215.984263 
L 215.034579 211.440063 
L 215.190041 212.576113 
L 215.345503 203.487712 
L 215.500965 171.110282 
L 215.656427 198.375486 
L 215.811889 90.450721 
L 215.967351 154.06953 
L 216.122813 105.787398 
L 216.278275 160.885831 
L 216.433737 88.178621 
L 216.589199 168.838182 
L 216.744661 144.413103 
L 216.900124 93.858871 
L 217.055586 178.494608 
L 217.36651 198.943511 
L 217.832896 212.008088 
L 217.988358 211.440063 
L 218.299282 215.416238 
L 218.454744 212.008088 
L 218.610206 212.576113 
L 218.765668 212.008088 
L 218.92113 210.304013 
L 219.076592 211.440063 
L 219.387517 134.188652 
L 219.542979 189.85511 
L 219.698441 102.947273 
L 219.853903 169.406207 
L 220.009365 184.742884 
L 220.164827 160.317806 
L 220.320289 189.85511 
L 220.631213 176.790533 
L 220.786675 112.035674 
L 220.942137 176.790533 
L 221.253061 189.85511 
L 221.408523 204.055737 
L 221.563986 204.055737 
L 221.719448 203.487712 
L 221.87491 205.191787 
L 222.030372 204.623762 
L 222.341296 205.759812 
L 222.496758 204.623762 
L 222.65222 208.599937 
L 222.807682 197.807461 
L 222.963144 197.807461 
L 223.274068 193.26326 
L 223.584992 206.327837 
L 223.740455 200.647586 
L 223.895917 190.423135 
L 224.206841 200.647586 
L 224.362303 117.1479 
L 224.517765 189.85511 
L 224.673227 176.790533 
L 225.295075 212.576113 
L 225.450537 209.735987 
L 225.605999 209.735987 
L 225.761461 213.144138 
L 226.072386 210.872038 
L 226.38331 212.576113 
L 226.538772 187.583009 
L 226.694234 202.919687 
L 226.849696 193.26326 
L 227.005158 169.974232 
L 227.316082 199.511536 
L 227.627006 179.062633 
L 227.782468 190.99116 
L 227.93793 174.518433 
L 228.093392 72.273918 
L 228.248854 184.742884 
L 228.404317 185.310909 
L 228.559779 183.038809 
L 228.870703 208.031912 
L 229.026165 205.191787 
L 229.181627 213.144138 
L 229.337089 209.167962 
L 229.492551 209.167962 
L 229.648013 208.599937 
L 229.803475 214.280188 
L 230.114399 205.191787 
L 230.269861 211.440063 
L 230.425323 177.926583 
L 230.580785 204.623762 
L 230.736248 139.300878 
L 230.89171 139.300878 
L 231.202634 110.331599 
L 231.358096 195.535361 
L 231.513558 196.671411 
L 231.66902 169.974232 
L 231.824482 172.246332 
L 231.979944 190.99116 
L 232.135406 193.26326 
L 232.290868 192.695235 
L 232.44633 206.895862 
L 232.601792 208.599937 
L 232.757254 206.327837 
L 233.068179 214.280188 
L 233.223641 210.304013 
L 233.379103 211.440063 
L 233.534565 210.304013 
L 233.690027 215.416238 
L 234.000951 207.463887 
L 234.156413 176.222508 
L 234.311875 206.895862 
L 234.467337 135.892727 
L 234.778261 190.99116 
L 234.933723 194.39931 
L 235.089185 201.783636 
L 235.244648 198.375486 
L 235.40011 200.647586 
L 235.555572 125.100251 
L 235.866496 200.647586 
L 236.021958 202.919687 
L 236.17742 210.304013 
L 236.332882 208.599937 
L 236.488344 209.735987 
L 236.643806 209.735987 
L 236.799268 209.167962 
L 236.95473 212.008088 
L 237.110192 208.031912 
L 237.265654 208.599937 
L 237.421116 209.735987 
L 237.576579 212.576113 
L 237.732041 200.647586 
L 237.887503 176.222508 
L 238.042965 201.215611 
L 238.198427 156.34163 
L 238.353889 185.310909 
L 238.509351 181.334734 
L 238.664813 193.26326 
L 238.820275 191.559185 
L 238.975737 192.12721 
L 239.131199 189.287085 
L 239.286661 162.021881 
L 239.442123 158.61373 
L 239.753047 182.470784 
L 240.063972 211.440063 
L 240.219434 208.031912 
L 240.374896 210.304013 
L 240.68582 208.031912 
L 240.841282 212.576113 
L 240.996744 208.031912 
L 241.152206 210.872038 
L 241.307668 208.599937 
L 241.46313 181.902759 
L 241.618592 205.191787 
L 241.774054 95.562947 
L 241.929516 176.790533 
L 242.240441 144.413103 
L 242.706827 214.848213 
L 242.862289 202.919687 
L 243.017751 148.389279 
L 243.173213 152.93348 
L 243.328675 173.950408 
L 243.484137 171.678307 
L 243.639599 204.055737 
L 243.795061 210.304013 
L 243.950523 208.031912 
L 244.105985 215.416238 
L 244.261447 212.008088 
L 244.41691 215.416238 
L 244.572372 210.872038 
L 244.727834 215.416238 
L 245.038758 210.872038 
L 245.19422 126.804326 
L 245.349682 156.34163 
L 245.505144 140.436928 
L 245.816068 203.487712 
L 245.97153 204.623762 
L 246.126992 210.872038 
L 246.282454 206.895862 
L 246.437916 211.440063 
L 246.593378 209.735987 
L 246.748841 175.654483 
L 246.904303 175.086458 
L 247.059765 192.12721 
L 247.215227 193.26326 
L 247.370689 206.895862 
L 247.526151 208.031912 
L 247.681613 210.872038 
L 247.837075 206.895862 
L 247.992537 209.167962 
L 248.147999 208.599937 
L 248.303461 206.895862 
L 248.458923 211.440063 
L 248.614385 207.463887 
L 248.769847 206.895862 
L 248.925309 208.599937 
L 249.080772 208.031912 
L 249.236234 201.215611 
L 249.391696 203.487712 
L 249.547158 209.735987 
L 249.70262 202.351661 
L 249.858082 203.487712 
L 250.013544 208.599937 
L 250.169006 201.215611 
L 250.324468 201.215611 
L 250.635392 193.831285 
L 250.790854 201.215611 
L 250.946316 195.535361 
L 251.101778 209.735987 
L 251.257241 210.304013 
L 251.412703 211.440063 
L 251.723627 209.167962 
L 251.879089 214.280188 
L 252.034551 208.599937 
L 252.190013 212.008088 
L 252.500937 208.599937 
L 252.656399 204.623762 
L 252.811861 175.086458 
L 252.967323 202.351661 
L 253.122785 124.532226 
L 253.433709 207.463887 
L 253.589172 214.280188 
L 253.744634 213.712163 
L 254.055558 199.511536 
L 254.21102 166.566082 
L 254.521944 200.647586 
L 254.677406 198.943511 
L 254.98833 212.008088 
L 255.143792 212.576113 
L 255.299254 214.280188 
L 255.454716 212.576113 
L 255.610178 214.848213 
L 255.76564 211.440063 
L 255.921103 214.280188 
L 256.076565 213.712163 
L 256.387489 204.623762 
L 256.542951 180.198683 
L 256.698413 118.851975 
L 256.853875 121.6921 
L 257.009337 76.250094 
L 257.164799 183.606834 
L 257.320261 180.198683 
L 257.475723 142.709028 
L 257.631185 189.85511 
L 257.786647 158.61373 
L 257.942109 171.110282 
L 258.097571 212.576113 
L 258.253034 212.576113 
L 258.408496 215.984263 
L 258.563958 212.008088 
L 258.71942 212.576113 
L 258.874882 214.848213 
L 259.030344 212.008088 
L 259.185806 213.712163 
L 259.341268 213.144138 
L 259.49673 212.008088 
L 259.652192 215.416238 
L 259.807654 211.440063 
L 259.963116 212.008088 
L 260.118578 214.848213 
L 260.27404 211.440063 
L 260.429503 134.756677 
L 260.740427 187.014984 
L 260.895889 108.627524 
L 261.206813 205.759812 
L 261.517737 195.535361 
L 261.673199 155.773605 
L 261.984123 194.39931 
L 262.139585 195.535361 
L 262.450509 213.144138 
L 262.605971 210.304013 
L 262.761434 211.440063 
L 262.916896 215.416238 
L 263.22782 210.872038 
L 263.383282 212.008088 
L 263.538744 215.984263 
L 263.694206 211.440063 
L 263.849668 212.576113 
L 264.00513 212.008088 
L 264.160592 195.535361 
L 264.316054 202.351661 
L 264.471516 199.511536 
L 264.626978 200.079561 
L 264.78244 190.99116 
L 264.937902 192.695235 
L 265.093365 198.943511 
L 265.248827 183.038809 
L 265.559751 137.028777 
L 265.715213 175.086458 
L 265.870675 179.062633 
L 266.026137 206.895862 
L 266.181599 209.167962 
L 266.337061 209.167962 
L 266.492523 208.031912 
L 266.647985 209.167962 
L 266.803447 209.167962 
L 266.958909 212.008088 
L 267.269833 209.167962 
L 267.425296 208.599937 
L 267.580758 202.351661 
L 267.73622 182.470784 
L 267.891682 208.599937 
L 268.047144 135.324702 
L 268.51353 212.008088 
L 268.668992 208.031912 
L 268.824454 212.008088 
L 269.135378 149.525329 
L 269.29084 186.446959 
L 269.446302 176.222508 
L 269.757227 206.895862 
L 269.912689 206.327837 
L 270.068151 204.623762 
L 270.223613 206.895862 
L 270.379075 211.440063 
L 270.689999 208.031912 
L 270.845461 209.167962 
L 271.000923 212.008088 
L 271.311847 206.895862 
L 271.467309 176.790533 
L 271.622771 184.742884 
L 271.778233 182.470784 
L 271.933696 196.103386 
L 272.089158 183.038809 
L 272.24462 208.599937 
L 272.400082 181.902759 
L 272.555544 209.167962 
L 272.711006 209.735987 
L 272.866468 139.300878 
L 273.02193 189.85511 
L 273.177392 189.287085 
L 273.643778 210.304013 
L 273.79924 210.872038 
L 274.110164 213.144138 
L 274.265627 210.872038 
L 274.421089 210.872038 
L 274.732013 214.848213 
L 274.887475 205.759812 
L 275.042937 213.712163 
L 275.198399 202.919687 
L 275.353861 207.463887 
L 275.509323 206.327837 
L 275.664785 210.304013 
L 275.820247 175.654483 
L 275.975709 192.695235 
L 276.131171 166.566082 
L 276.286633 197.807461 
L 276.442095 200.647586 
L 276.597558 193.26326 
L 276.75302 191.559185 
L 276.908482 187.583009 
L 277.063944 190.99116 
L 277.374868 204.055737 
L 277.53033 208.031912 
L 277.685792 215.416238 
L 277.841254 212.576113 
L 277.996716 213.144138 
L 278.152178 213.144138 
L 278.30764 211.440063 
L 278.463102 215.984263 
L 278.618564 206.895862 
L 278.929489 168.838182 
L 279.084951 187.014984 
L 279.240413 86.474545 
L 279.395875 165.430031 
L 279.551337 94.994922 
L 279.706799 168.270157 
L 279.862261 171.678307 
L 280.017723 201.215611 
L 280.173185 198.375486 
L 280.328647 133.620627 
L 280.484109 190.99116 
L 280.639571 185.878934 
L 280.795033 204.055737 
L 281.105958 208.599937 
L 281.26142 214.848213 
L 281.416882 211.440063 
L 281.727806 214.848213 
L 281.883268 211.440063 
L 282.03873 211.440063 
L 282.194192 215.984263 
L 282.349654 210.304013 
L 282.660578 142.141003 
L 282.971502 210.872038 
L 283.126964 76.250094 
L 283.282426 199.511536 
L 283.593351 211.440063 
L 283.748813 211.440063 
L 283.904275 210.872038 
L 284.059737 181.334734 
L 284.215199 183.038809 
L 284.370661 195.535361 
L 284.526123 192.12721 
L 284.837047 215.984263 
L 284.992509 212.008088 
L 285.147971 212.008088 
L 285.303433 215.416238 
L 285.458895 213.144138 
L 285.614358 213.144138 
L 285.76982 213.712163 
L 285.925282 212.008088 
L 286.080744 213.712163 
L 286.236206 207.463887 
L 286.391668 179.062633 
L 286.54713 186.446959 
L 286.702592 179.062633 
L 286.858054 195.535361 
L 287.013516 164.293981 
L 287.168978 165.430031 
L 287.32444 206.327837 
L 287.479902 209.735987 
L 288.101751 192.12721 
L 288.257213 193.26326 
L 288.412675 205.759812 
L 288.568137 202.919687 
L 288.723599 211.440063 
L 288.879061 212.576113 
L 289.034523 209.735987 
L 289.189985 213.712163 
L 289.500909 209.167962 
L 289.656371 213.144138 
L 289.967295 207.463887 
L 290.122757 200.647586 
L 290.433682 214.848213 
L 290.589144 209.735987 
L 290.744606 213.144138 
L 290.900068 210.304013 
L 291.05553 210.304013 
L 291.210992 214.280188 
L 291.366454 209.735987 
L 291.521916 212.576113 
L 291.677378 211.440063 
L 291.83284 197.239436 
L 291.988302 196.671411 
L 292.299226 213.712163 
L 292.454688 208.599937 
L 292.610151 213.712163 
L 292.765613 209.735987 
L 292.921075 214.848213 
L 293.076537 209.735987 
L 293.231999 212.576113 
L 293.387461 209.167962 
L 293.542923 211.440063 
L 293.698385 151.797429 
L 293.853847 204.055737 
L 294.009309 107.491473 
L 294.164771 145.549154 
L 294.320233 102.379248 
L 294.475695 138.164828 
L 294.78662 107.491473 
L 294.942082 154.637555 
L 295.097544 160.317806 
L 295.253006 109.195549 
L 295.408468 195.535361 
L 295.56393 190.99116 
L 295.719392 193.831285 
L 296.030316 212.008088 
L 296.185778 206.895862 
L 296.496702 214.280188 
L 296.652164 212.576113 
L 296.807626 215.416238 
L 296.963088 212.576113 
L 297.118551 214.280188 
L 297.274013 209.735987 
L 297.429475 200.647586 
L 297.740399 210.872038 
L 297.895861 190.423135 
L 298.051323 201.783636 
L 298.206785 176.222508 
L 298.362247 212.576113 
L 298.517709 212.008088 
L 298.673171 212.576113 
L 298.828633 210.872038 
L 298.984095 138.164828 
L 299.139557 196.103386 
L 299.295019 194.39931 
L 299.450482 195.535361 
L 299.761406 214.280188 
L 299.916868 212.008088 
L 300.07233 211.440063 
L 300.227792 214.848213 
L 300.538716 211.440063 
L 300.694178 214.280188 
L 300.84964 214.848213 
L 301.005102 207.463887 
L 301.160564 168.270157 
L 301.316026 172.814357 
L 301.782413 204.055737 
L 301.937875 198.375486 
L 302.093337 204.623762 
L 302.248799 204.055737 
L 302.404261 198.943511 
L 302.559723 181.334734 
L 302.715185 141.572978 
L 303.181571 192.695235 
L 303.492495 211.440063 
L 303.647957 211.440063 
L 303.803419 212.008088 
L 303.958882 215.984263 
L 304.114344 210.872038 
L 304.58073 214.848213 
L 304.891654 205.759812 
L 305.047116 189.287085 
L 305.202578 201.783636 
L 305.35804 205.191787 
L 305.513502 190.423135 
L 305.668964 146.117179 
L 305.979888 208.031912 
L 306.290813 176.790533 
L 306.446275 196.671411 
L 306.601737 193.26326 
L 306.757199 196.671411 
L 307.223585 211.440063 
L 307.379047 211.440063 
L 307.534509 210.872038 
L 307.689971 212.008088 
L 307.845433 215.984263 
L 308.000895 212.008088 
L 308.156357 211.440063 
L 308.311819 212.576113 
L 308.467281 215.984263 
L 308.622744 209.735987 
L 308.933668 215.416238 
L 309.244592 209.735987 
L 309.710978 129.076426 
L 309.86644 146.685204 
L 310.177364 195.535361 
L 310.332826 168.838182 
L 310.488288 187.583009 
L 310.64375 188.71906 
L 310.954675 213.144138 
L 311.110137 211.440063 
L 311.265599 215.416238 
L 311.421061 211.440063 
L 311.576523 212.008088 
L 311.731985 212.008088 
L 311.887447 215.984263 
L 312.042909 212.576113 
L 312.198371 212.008088 
L 312.353833 212.576113 
L 312.509295 212.576113 
L 312.820219 201.783636 
L 312.975681 201.215611 
L 313.131144 201.783636 
L 313.286606 144.981129 
L 313.442068 143.277053 
L 313.59753 125.668276 
L 313.752992 206.327837 
L 313.908454 162.021881 
L 314.219378 201.783636 
L 314.530302 196.671411 
L 314.685764 213.144138 
L 314.841226 213.712163 
L 314.996688 212.008088 
L 315.307612 214.280188 
L 315.463075 211.440063 
L 315.773999 214.848213 
L 315.929461 212.008088 
L 316.084923 213.144138 
L 316.395847 209.167962 
L 316.706771 197.807461 
L 316.862233 200.079561 
L 317.017695 207.463887 
L 317.173157 201.783636 
L 317.328619 202.919687 
L 317.484081 201.783636 
L 317.639543 97.267022 
L 317.795006 156.34163 
L 317.950468 146.117179 
L 318.416854 208.031912 
L 318.572316 213.712163 
L 318.727778 211.440063 
L 319.038702 214.280188 
L 319.194164 213.144138 
L 319.349626 215.416238 
L 319.66055 209.735987 
L 319.816012 182.470784 
L 319.971474 201.215611 
L 320.126937 80.22627 
L 320.282399 62.049467 
L 320.437861 141.572978 
L 320.593323 121.124075 
L 320.748785 148.957304 
L 320.904247 136.460752 
L 321.215171 205.191787 
L 321.370633 198.375486 
L 321.526095 151.797429 
L 321.681557 188.151034 
L 321.992481 201.783636 
L 322.147943 206.895862 
L 322.303406 206.895862 
L 322.458868 208.031912 
L 322.769792 213.712163 
L 323.080716 212.008088 
L 323.236178 214.280188 
L 323.39164 208.599937 
L 323.547102 210.304013 
L 323.702564 216.552288 
L 323.858026 211.440063 
L 324.013488 210.872038 
L 324.16895 180.198683 
L 324.324412 183.606834 
L 324.479874 213.712163 
L 324.635337 213.144138 
L 324.790799 211.440063 
L 324.946261 211.440063 
L 325.101723 114.307774 
L 325.257185 185.878934 
L 325.412647 192.695235 
L 325.568109 192.695235 
L 325.879033 215.416238 
L 326.034495 210.872038 
L 326.189957 212.008088 
L 326.345419 214.848213 
L 326.500881 210.872038 
L 326.656343 212.576113 
L 326.811805 215.984263 
L 327.12273 209.167962 
L 327.278192 163.725956 
L 327.589116 175.086458 
L 327.744578 212.008088 
L 327.90004 210.872038 
L 328.366426 189.287085 
L 328.521888 192.695235 
L 328.67735 193.26326 
L 328.832812 180.198683 
L 329.143736 183.606834 
L 329.299199 189.85511 
L 329.454661 208.599937 
L 329.610123 208.031912 
L 329.765585 206.895862 
L 330.076509 212.008088 
L 330.231971 213.712163 
L 330.387433 213.712163 
L 330.542895 211.440063 
L 330.698357 215.984263 
L 330.853819 210.304013 
L 331.009281 209.167962 
L 331.320205 196.671411 
L 331.475668 202.351661 
L 331.63113 201.215611 
L 331.786592 198.943511 
L 331.942054 210.872038 
L 332.097516 208.031912 
L 332.252978 196.103386 
L 332.563902 78.522194 
L 332.719364 180.766708 
L 332.874826 180.198683 
L 333.341212 214.280188 
L 333.496674 210.872038 
L 333.652136 211.440063 
L 333.807599 214.280188 
L 333.963061 210.872038 
L 334.118523 214.280188 
L 334.273985 210.872038 
L 334.429447 213.712163 
L 334.584909 207.463887 
L 334.740371 154.06953 
L 335.206757 213.712163 
L 335.362219 206.327837 
L 335.517681 213.144138 
L 335.673143 210.304013 
L 335.828605 214.848213 
L 336.13953 209.735987 
L 336.294992 185.310909 
L 336.450454 179.062633 
L 336.91684 212.008088 
L 337.072302 210.872038 
L 337.227764 214.280188 
L 337.383226 211.440063 
L 337.69415 213.712163 
L 337.849612 210.304013 
L 338.005074 214.848213 
L 338.160536 212.008088 
L 338.315998 212.576113 
L 338.471461 208.031912 
L 338.626923 210.304013 
L 338.937847 189.287085 
L 339.093309 150.093354 
L 339.404233 194.39931 
L 339.715157 204.055737 
L 339.870619 198.943511 
L 340.026081 181.334734 
L 340.181543 132.484577 
L 340.492467 164.293981 
L 340.803392 211.440063 
L 340.958854 210.304013 
L 341.114316 210.304013 
L 341.269778 212.576113 
L 341.42524 209.167962 
L 341.580702 213.144138 
L 341.736164 208.599937 
L 341.891626 212.576113 
L 342.358012 203.487712 
L 342.513474 189.287085 
L 342.824398 205.759812 
L 342.979861 205.759812 
L 343.135323 210.304013 
L 343.290785 206.327837 
L 343.446247 207.463887 
L 343.601709 205.759812 
L 343.757171 191.559185 
L 344.068095 188.151034 
L 344.379019 210.872038 
L 344.534481 211.440063 
L 344.689943 215.416238 
L 344.845405 211.440063 
L 345.000867 212.008088 
L 345.156329 214.280188 
L 345.311792 210.872038 
L 345.467254 215.416238 
L 345.622716 210.872038 
L 345.778178 212.576113 
L 345.93364 148.389279 
L 346.089102 174.518433 
L 346.244564 62.617492 
L 346.555488 196.671411 
L 346.71095 98.971097 
L 346.866412 113.171724 
L 347.021874 158.045705 
L 347.177336 71.705893 
L 347.332798 143.845078 
L 347.48826 116.01185 
L 347.643723 194.39931 
L 347.799185 190.99116 
L 347.954647 190.99116 
L 348.265571 206.895862 
L 348.421033 214.280188 
L 348.576495 211.440063 
L 348.731957 211.440063 
L 348.887419 215.416238 
L 349.198343 210.304013 
L 349.353805 213.144138 
L 349.509267 176.222508 
L 349.664729 208.599937 
L 349.820192 192.695235 
L 349.975654 208.031912 
L 350.131116 211.440063 
L 350.286578 187.014984 
L 350.597502 209.735987 
L 350.752964 208.031912 
L 350.908426 181.902759 
L 351.063888 180.198683 
L 351.21935 127.940376 
L 351.685736 180.198683 
L 351.841198 206.895862 
L 351.99666 206.895862 
L 352.152123 207.463887 
L 352.463047 210.304013 
L 352.618509 215.984263 
L 352.773971 210.304013 
L 353.084895 214.280188 
L 353.240357 174.518433 
L 353.395819 199.511536 
L 353.551281 80.22627 
L 353.706743 167.702132 
L 353.862205 191.559185 
L 354.017667 189.287085 
L 354.173129 190.99116 
L 354.328591 79.658245 
L 354.484054 175.654483 
L 354.639516 166.566082 
L 354.95044 35.920313 
L 355.105902 160.885831 
L 355.572288 210.872038 
L 355.72775 212.576113 
L 355.883212 209.735987 
L 356.038674 210.872038 
L 356.194136 215.416238 
L 356.349598 210.304013 
L 356.50506 210.872038 
L 356.660522 213.144138 
L 356.815985 212.576113 
L 356.971447 206.327837 
L 357.126909 168.270157 
L 357.282371 202.919687 
L 357.437833 168.270157 
L 357.593295 210.304013 
L 357.748757 197.239436 
L 357.904219 210.304013 
L 358.059681 209.735987 
L 358.526067 196.671411 
L 358.681529 131.348527 
L 358.836991 184.742884 
L 358.992454 181.902759 
L 359.303378 204.055737 
L 359.45884 206.327837 
L 359.614302 214.848213 
L 359.769764 210.304013 
L 359.925226 210.304013 
L 360.080688 215.416238 
L 360.23615 210.872038 
L 360.547074 212.008088 
L 360.702536 207.463887 
L 361.01346 213.144138 
L 361.168922 209.735987 
L 361.324385 210.872038 
L 361.479847 199.511536 
L 361.635309 208.599937 
L 361.946233 210.872038 
L 362.101695 208.599937 
L 362.257157 200.079561 
L 362.412619 176.790533 
L 362.723543 194.39931 
L 363.034467 211.440063 
L 363.189929 209.735987 
L 363.345391 209.735987 
L 363.656316 213.144138 
L 363.811778 209.735987 
L 363.96724 211.440063 
L 364.122702 214.848213 
L 364.433626 208.599937 
L 364.589088 205.759812 
L 364.74455 161.453856 
L 364.900012 190.423135 
L 365.055474 72.841944 
L 365.210936 143.845078 
L 365.366398 129.644451 
L 365.52186 188.71906 
L 365.677322 200.079561 
L 365.832784 193.26326 
L 365.988247 197.239436 
L 366.143709 175.654483 
L 366.299171 189.287085 
L 366.454633 190.99116 
L 366.610095 194.39931 
L 366.921019 213.144138 
L 367.076481 208.031912 
L 367.231943 208.599937 
L 367.387405 211.440063 
L 367.698329 208.599937 
L 368.009253 210.872038 
L 368.164716 209.735987 
L 368.47564 169.974232 
L 368.631102 187.014984 
L 368.786564 123.964201 
L 369.097488 188.151034 
L 369.25295 185.878934 
L 369.408412 197.807461 
L 369.563874 169.974232 
L 369.719336 192.695235 
L 369.874798 131.348527 
L 370.03026 184.174859 
L 370.185722 184.742884 
L 370.341184 185.878934 
L 370.496647 206.327837 
L 370.652109 212.008088 
L 370.807571 208.031912 
L 370.963033 210.304013 
L 371.118495 208.599937 
L 371.273957 212.576113 
L 371.429419 209.735987 
L 371.584881 209.167962 
L 371.740343 187.583009 
L 371.895805 206.327837 
L 372.051267 169.974232 
L 372.206729 208.599937 
L 372.362191 210.872038 
L 372.517653 206.327837 
L 372.828578 209.167962 
L 372.98404 213.144138 
L 373.139502 209.167962 
L 373.294964 208.599937 
L 373.450426 212.008088 
L 373.605888 156.34163 
L 373.76135 180.766708 
L 373.916812 183.606834 
L 374.072274 188.71906 
L 374.227736 208.599937 
L 374.383198 208.031912 
L 374.53866 208.031912 
L 374.849584 212.008088 
L 375.005046 213.144138 
L 375.471433 208.031912 
L 375.626895 212.008088 
L 375.782357 210.304013 
L 375.937819 210.872038 
L 376.093281 214.848213 
L 376.248743 210.304013 
L 376.404205 209.735987 
L 376.559667 209.735987 
L 376.715129 212.576113 
L 376.870591 213.144138 
L 377.181515 206.327837 
L 377.336978 150.093354 
L 377.49244 160.885831 
L 377.647902 182.470784 
L 377.803364 183.606834 
L 377.958826 208.599937 
L 378.114288 209.735987 
L 378.425212 209.735987 
L 378.580674 215.416238 
L 378.736136 210.304013 
L 378.891598 209.735987 
L 379.04706 210.872038 
L 379.202522 175.086458 
L 379.357984 188.71906 
L 379.513446 177.358558 
L 379.668909 202.919687 
L 379.824371 201.215611 
L 379.979833 201.783636 
L 380.135295 210.872038 
L 380.446219 196.103386 
L 380.601681 201.783636 
L 380.757143 190.99116 
L 380.912605 193.26326 
L 381.068067 179.062633 
L 381.223529 183.606834 
L 381.378991 183.606834 
L 381.689915 206.327837 
L 381.845377 212.008088 
L 382.00084 210.304013 
L 382.311764 210.304013 
L 382.467226 210.872038 
L 382.622688 215.416238 
L 382.933612 207.463887 
L 383.244536 213.144138 
L 383.399998 206.895862 
L 383.55546 206.895862 
L 383.710922 211.440063 
L 383.866384 212.008088 
L 384.177308 210.872038 
L 384.332771 212.576113 
L 384.488233 186.446959 
L 384.643695 193.26326 
L 384.799157 144.413103 
L 384.954619 194.967335 
L 385.110081 195.535361 
L 385.265543 194.967335 
L 385.576467 210.872038 
L 385.731929 209.735987 
L 385.887391 213.144138 
L 386.198315 209.167962 
L 386.353777 209.735987 
L 386.664702 213.144138 
L 386.820164 205.759812 
L 386.975626 191.559185 
L 387.131088 138.732853 
L 387.28655 173.950408 
L 387.442012 50.688966 
L 387.597474 173.382382 
L 387.752936 93.290846 
L 388.06386 119.988025 
L 388.219322 103.515298 
L 388.374784 146.685204 
L 388.530246 94.426897 
L 388.685708 126.804326 
L 388.841171 182.470784 
L 389.307557 209.735987 
L 389.463019 209.167962 
L 389.618481 209.167962 
L 389.773943 210.304013 
L 389.929405 213.712163 
L 390.084867 209.167962 
L 390.240329 210.872038 
L 390.706715 205.191787 
L 390.862177 206.895862 
L 391.173102 128.508401 
L 391.328564 141.572978 
L 391.484026 195.535361 
L 391.639488 203.487712 
L 391.79495 204.055737 
L 391.950412 199.511536 
L 392.105874 190.423135 
L 392.261336 191.559185 
L 392.416798 159.181755 
L 392.57226 160.317806 
L 392.727722 187.014984 
L 392.883184 154.06953 
L 393.038646 209.167962 
L 393.194108 213.712163 
L 393.34957 205.759812 
L 393.505033 206.895862 
L 393.815957 206.895862 
L 393.971419 209.167962 
L 394.126881 206.895862 
L 394.282343 209.735987 
L 394.437805 209.735987 
L 394.748729 195.535361 
L 395.059653 203.487712 
L 395.215115 204.623762 
L 395.370577 207.463887 
L 395.526039 204.623762 
L 395.681502 205.191787 
L 395.836964 197.807461 
L 395.992426 174.518433 
L 396.30335 202.919687 
L 396.458812 198.375486 
L 396.614274 198.943511 
L 396.769736 206.327837 
L 396.925198 207.463887 
L 397.236122 207.463887 
L 397.391584 206.895862 
L 397.85797 210.872038 
L 398.324357 198.375486 
L 398.635281 155.20558 
L 398.790743 190.423135 
L 398.946205 147.253229 
L 399.101667 138.164828 
L 399.257129 147.821254 
L 399.412591 180.766708 
L 399.568053 119.988025 
L 399.878977 166.566082 
L 400.034439 162.589906 
L 400.189901 200.079561 
L 400.500826 212.576113 
L 400.656288 208.599937 
L 400.967212 207.463887 
L 401.122674 209.735987 
L 401.278136 206.895862 
L 401.433598 207.463887 
L 401.58906 212.576113 
L 402.055446 198.375486 
L 402.210908 200.079561 
L 402.36637 206.895862 
L 402.521832 192.695235 
L 402.677295 189.85511 
L 402.832757 190.99116 
L 402.988219 190.99116 
L 403.143681 186.446959 
L 403.299143 127.940376 
L 403.454605 190.99116 
L 403.610067 184.174859 
L 403.765529 183.038809 
L 404.076453 206.895862 
L 404.231915 204.055737 
L 404.542839 208.599937 
L 404.698301 206.895862 
L 405.164688 209.735987 
L 405.32015 206.895862 
L 405.475612 208.031912 
L 405.631074 199.511536 
L 405.786536 199.511536 
L 405.941998 194.39931 
L 406.09746 193.831285 
L 406.252922 192.12721 
L 406.719308 197.807461 
L 406.87477 206.895862 
L 407.030232 198.375486 
L 407.185695 161.453856 
L 407.341157 172.814357 
L 407.496619 160.885831 
L 407.652081 204.623762 
L 407.963005 208.599937 
L 408.118467 214.848213 
L 408.273929 210.304013 
L 408.584853 209.167962 
L 408.740315 211.440063 
L 408.895777 211.440063 
L 409.517626 203.487712 
L 409.82855 196.103386 
L 409.984012 192.12721 
L 410.139474 194.967335 
L 410.294936 191.559185 
L 410.450398 192.695235 
L 410.60586 197.239436 
L 410.761322 158.61373 
L 410.916784 193.831285 
L 411.072246 190.423135 
L 411.227708 190.99116 
L 411.38317 213.144138 
L 411.538632 209.167962 
L 411.694094 209.735987 
L 411.849557 209.167962 
L 412.005019 214.848213 
L 412.160481 209.735987 
L 412.315943 209.735987 
L 412.471405 210.304013 
L 412.626867 214.848213 
L 412.937791 205.759812 
L 413.093253 192.12721 
L 413.248715 194.39931 
L 413.404177 160.885831 
L 413.559639 211.440063 
L 413.715101 214.280188 
L 413.870563 209.735987 
L 414.026026 210.304013 
L 414.33695 212.576113 
L 414.492412 212.576113 
L 414.803336 210.304013 
L 414.958798 214.848213 
L 415.11426 210.872038 
L 415.425184 210.872038 
L 415.580646 213.712163 
L 415.89157 209.167962 
L 416.202494 213.144138 
L 416.357957 210.872038 
L 416.513419 210.304013 
L 416.668881 215.416238 
L 416.824343 210.304013 
L 416.979805 210.304013 
L 417.135267 213.712163 
L 417.290729 212.576113 
L 417.601653 208.031912 
L 417.757115 212.576113 
L 417.912577 206.895862 
L 418.068039 207.463887 
L 418.378963 212.008088 
L 418.534425 207.463887 
L 418.689888 209.167962 
L 418.84535 208.599937 
L 419.000812 211.440063 
L 419.156274 208.599937 
L 419.311736 208.599937 
L 419.467198 212.008088 
L 419.62266 206.895862 
L 419.778122 209.735987 
L 419.933584 207.463887 
L 420.089046 212.008088 
L 420.244508 208.031912 
L 420.39997 208.599937 
L 420.555432 212.576113 
L 420.710894 207.463887 
L 420.866356 208.599937 
L 421.177281 206.895862 
L 421.332743 203.487712 
L 421.488205 197.239436 
L 421.643667 198.375486 
L 421.799129 198.375486 
L 422.110053 189.85511 
L 422.265515 193.831285 
L 422.420977 187.583009 
L 422.887363 206.327837 
L 423.35375 212.008088 
L 423.509212 208.599937 
L 423.664674 208.031912 
L 423.820136 208.599937 
L 423.975598 208.031912 
L 424.13106 174.518433 
L 424.286522 204.055737 
L 424.441984 91.018746 
L 424.597446 149.525329 
L 424.752908 92.154796 
L 424.90837 85.338495 
L 425.063832 141.572978 
L 425.374756 59.777367 
L 425.530219 63.753542 
L 425.841143 178.494608 
L 426.152067 196.103386 
L 426.307529 206.327837 
L 426.462991 202.919687 
L 426.773915 208.599937 
L 426.929377 207.463887 
L 427.084839 208.599937 
L 427.240301 206.895862 
L 427.395763 209.167962 
L 427.551225 207.463887 
L 427.706687 207.463887 
L 428.017612 116.01185 
L 428.173074 198.943511 
L 428.328536 201.215611 
L 428.483998 158.61373 
L 428.63946 184.742884 
L 428.794922 76.818119 
L 428.950384 172.814357 
L 429.105846 164.293981 
L 429.261308 143.845078 
L 429.41677 78.522194 
L 429.572232 91.586771 
L 429.883156 198.943511 
L 430.194081 210.872038 
L 430.349543 209.167962 
L 430.505005 210.304013 
L 430.660467 209.735987 
L 430.971391 210.872038 
L 431.126853 209.167962 
L 431.282315 211.440063 
L 431.593239 202.351661 
L 431.748701 184.742884 
L 431.904163 202.919687 
L 432.059625 199.511536 
L 432.215087 204.623762 
L 432.37055 192.695235 
L 432.526012 192.12721 
L 432.681474 190.99116 
L 432.836936 197.807461 
L 432.992398 193.26326 
L 433.14786 184.174859 
L 433.303322 142.141003 
L 433.458784 181.334734 
L 433.614246 186.446959 
L 433.769708 210.304013 
L 433.92517 210.304013 
L 434.080632 209.167962 
L 434.236094 209.167962 
L 434.391556 210.304013 
L 434.547018 209.167962 
L 434.702481 212.576113 
L 435.013405 209.735987 
L 435.168867 205.191787 
L 435.479791 171.110282 
L 435.635253 180.198683 
L 435.790715 212.008088 
L 435.946177 209.735987 
L 436.101639 212.576113 
L 436.257101 213.144138 
L 436.412563 210.304013 
L 436.568025 210.304013 
L 436.723487 211.440063 
L 436.878949 210.872038 
L 437.034412 208.599937 
L 437.189874 189.85511 
L 437.345336 187.014984 
L 437.811722 214.848213 
L 437.967184 208.031912 
L 438.122646 210.304013 
L 438.278108 209.735987 
L 438.43357 209.735987 
L 438.589032 213.144138 
L 439.055418 205.191787 
L 439.21088 198.943511 
L 439.366343 187.014984 
L 439.521805 146.685204 
L 439.677267 177.358558 
L 439.832729 164.293981 
L 440.143653 197.807461 
L 440.299115 101.243197 
L 440.454577 118.851975 
L 440.610039 58.641317 
L 440.765501 164.862006 
L 440.920963 181.334734 
L 441.076425 184.174859 
L 441.231887 206.327837 
L 441.387349 212.576113 
L 441.542812 213.144138 
L 441.698274 210.304013 
L 441.853736 210.304013 
L 442.009198 210.872038 
L 442.16466 209.735987 
L 442.320122 210.872038 
L 442.631046 210.872038 
L 442.786508 211.440063 
L 442.94197 181.334734 
L 443.097432 201.215611 
L 443.252894 175.654483 
L 443.408356 201.783636 
L 443.563818 194.967335 
L 443.71928 164.293981 
L 443.874743 188.151034 
L 444.030205 172.246332 
L 444.185667 114.875799 
L 444.341129 188.71906 
L 444.496591 129.644451 
L 444.652053 191.559185 
L 445.118439 212.576113 
L 445.273901 209.167962 
L 445.429363 210.872038 
L 445.584825 209.167962 
L 445.740287 210.304013 
L 445.895749 209.735987 
L 446.051211 213.712163 
L 446.206674 210.304013 
L 446.362136 209.735987 
L 446.517598 208.599937 
L 446.67306 186.446959 
L 446.828522 199.511536 
L 446.983984 165.430031 
L 447.139446 208.031912 
L 447.294908 208.599937 
L 447.45037 206.895862 
L 447.761294 210.872038 
L 447.916756 208.599937 
L 448.072218 198.375486 
L 448.22768 179.062633 
L 448.694067 198.943511 
L 448.849529 212.008088 
L 449.160453 210.304013 
L 449.315915 210.872038 
L 449.471377 208.599937 
L 449.626839 210.304013 
L 449.782301 210.304013 
L 449.937763 205.759812 
L 450.093225 212.008088 
L 450.248687 209.167962 
L 450.404149 210.304013 
L 450.559611 209.167962 
L 450.870536 195.535361 
L 451.025998 201.215611 
L 451.18146 200.647586 
L 451.336922 200.647586 
L 451.492384 198.375486 
L 451.647846 197.807461 
L 451.803308 152.365455 
L 451.95877 193.831285 
L 452.114232 186.446959 
L 452.269694 191.559185 
L 452.580618 206.895862 
L 452.73608 209.167962 
L 452.891542 209.167962 
L 453.047005 211.440063 
L 453.202467 209.167962 
L 453.513391 210.304013 
L 453.668853 210.304013 
L 453.979777 203.487712 
L 454.290701 208.599937 
L 454.446163 206.895862 
L 454.601625 212.008088 
L 454.757087 207.463887 
L 454.912549 206.895862 
L 455.223473 208.031912 
L 455.378936 185.878934 
L 455.534398 94.994922 
L 455.68986 80.22627 
L 455.845322 142.141003 
L 456.000784 123.396176 
L 456.156246 193.831285 
L 456.311708 206.327837 
L 456.46717 205.759812 
L 456.622632 209.735987 
L 456.778094 209.167962 
L 456.933556 210.872038 
L 457.089018 208.599937 
L 457.24448 210.872038 
L 457.399942 176.790533 
L 457.555405 179.630658 
L 457.710867 200.647586 
L 457.866329 205.759812 
L 458.021791 206.895862 
L 458.177253 204.623762 
L 458.332715 208.599937 
L 458.488177 208.599937 
L 458.643639 196.671411 
L 458.799101 202.351661 
L 458.954563 200.079561 
L 459.110025 187.583009 
L 459.420949 142.709028 
L 459.576411 144.413103 
L 459.887336 210.304013 
L 460.042798 211.440063 
L 460.353722 209.167962 
L 460.509184 209.735987 
L 460.97557 209.735987 
L 461.131032 210.872038 
L 461.441956 201.215611 
L 461.597418 200.647586 
L 461.75288 205.759812 
L 461.908342 201.215611 
L 462.063804 200.079561 
L 462.374729 209.735987 
L 462.685653 196.671411 
L 462.841115 200.079561 
L 462.996577 131.348527 
L 463.618425 208.599937 
L 463.773887 210.872038 
L 463.929349 209.735987 
L 464.084811 210.304013 
L 464.240273 210.304013 
L 464.395735 208.599937 
L 464.551198 211.440063 
L 464.70666 209.167962 
L 464.862122 209.735987 
L 465.017584 101.243197 
L 465.173046 144.413103 
L 465.328508 116.01185 
L 465.48397 144.413103 
L 465.639432 108.059498 
L 465.950356 201.783636 
L 466.105818 206.327837 
L 466.26128 203.487712 
L 466.416742 205.191787 
L 466.572204 199.511536 
L 466.727667 200.647586 
L 466.883129 156.34163 
L 467.038591 185.878934 
L 467.504977 200.079561 
L 467.660439 208.599937 
L 467.815901 209.735987 
L 467.971363 209.167962 
L 468.126825 210.872038 
L 468.282287 208.599937 
L 468.437749 211.440063 
L 468.593211 209.735987 
L 468.748673 209.735987 
L 468.904135 205.759812 
L 469.21506 179.630658 
L 469.370522 128.508401 
L 469.525984 127.940376 
L 469.681446 190.99116 
L 469.836908 148.389279 
L 469.99237 145.549154 
L 470.147832 189.287085 
L 470.303294 77.386144 
L 470.614218 181.334734 
L 470.925142 193.26326 
L 471.080604 195.535361 
L 471.236066 206.327837 
L 471.546991 210.304013 
L 471.702453 209.167962 
L 471.857915 211.440063 
L 472.013377 208.031912 
L 472.168839 211.440063 
L 472.324301 210.304013 
L 472.479763 210.872038 
L 472.635225 206.327837 
L 472.790687 180.198683 
L 472.946149 192.695235 
L 473.101611 76.250094 
L 473.257073 188.151034 
L 473.412535 179.062633 
L 473.567997 203.487712 
L 473.72346 204.055737 
L 473.878922 195.535361 
L 474.189846 146.685204 
L 474.345308 186.446959 
L 474.50077 185.878934 
L 474.811694 201.215611 
L 474.967156 209.735987 
L 475.122618 208.599937 
L 475.27808 208.599937 
L 475.433542 205.191787 
L 475.744466 212.008088 
L 475.899929 212.008088 
L 476.055391 209.735987 
L 476.210853 209.167962 
L 476.366315 210.872038 
L 476.521777 209.735987 
L 476.677239 210.872038 
L 476.832701 210.304013 
L 476.988163 200.079561 
L 477.143625 211.440063 
L 477.299087 209.735987 
L 477.454549 214.280188 
L 477.765473 204.055737 
L 477.920935 138.164828 
L 478.076397 183.038809 
L 478.23186 188.151034 
L 478.387322 185.310909 
L 478.698246 213.712163 
L 478.853708 210.304013 
L 479.00917 209.735987 
L 479.164632 214.848213 
L 479.320094 209.735987 
L 479.631018 210.872038 
L 479.78648 189.85511 
L 479.941942 201.215611 
L 480.097404 182.470784 
L 480.252866 211.440063 
L 480.408328 209.735987 
L 480.563791 214.848213 
L 480.719253 210.304013 
L 480.874715 210.304013 
L 481.030177 212.576113 
L 481.341101 210.872038 
L 481.496563 210.304013 
L 481.652025 143.277053 
L 481.807487 184.174859 
L 481.962949 188.71906 
L 482.273873 207.463887 
L 482.584797 214.280188 
L 482.740259 209.167962 
L 483.051184 212.576113 
L 483.362108 210.304013 
L 483.51757 210.872038 
L 483.673032 205.191787 
L 483.983956 209.735987 
L 484.139418 206.327837 
L 484.29488 205.759812 
L 484.450342 212.576113 
L 484.605804 212.008088 
L 484.761266 209.735987 
L 484.916728 168.838182 
L 485.072191 201.215611 
L 485.227653 203.487712 
L 485.538577 130.780502 
L 485.694039 187.014984 
L 485.849501 190.99116 
L 486.160425 209.735987 
L 486.315887 213.712163 
L 486.471349 210.304013 
L 486.626811 209.735987 
L 486.937735 214.280188 
L 487.248659 204.623762 
L 487.404122 206.895862 
L 487.559584 213.144138 
L 487.715046 210.304013 
L 488.02597 210.304013 
L 488.181432 209.167962 
L 488.336894 210.872038 
L 488.492356 206.895862 
L 488.647818 206.895862 
L 488.80328 206.327837 
L 488.958742 198.375486 
L 489.114204 159.181755 
L 489.269666 166.566082 
L 489.425128 184.174859 
L 489.58059 168.270157 
L 489.736053 204.623762 
L 489.891515 204.055737 
L 490.046977 204.623762 
L 490.202439 206.895862 
L 490.357901 206.895862 
L 490.513363 204.623762 
L 490.668825 205.191787 
L 490.824287 205.191787 
L 490.979749 204.055737 
L 491.135211 205.191787 
L 491.290673 169.406207 
L 491.446135 170.542257 
L 491.601597 97.835047 
L 491.757059 92.154796 
L 491.912521 137.596803 
L 492.067984 110.331599 
L 492.223446 132.484577 
L 492.378908 197.807461 
L 492.53437 133.620627 
L 492.689832 128.508401 
L 492.845294 97.835047 
L 493.156218 192.12721 
L 493.31168 192.12721 
L 493.622604 209.167962 
L 493.778066 209.167962 
L 493.933528 208.599937 
L 494.08899 210.872038 
L 494.244453 208.599937 
L 494.399915 210.304013 
L 494.555377 209.167962 
L 494.710839 210.872038 
L 494.866301 208.599937 
L 495.021763 208.599937 
L 495.177225 206.895862 
L 495.332687 159.181755 
L 495.488149 186.446959 
L 495.643611 118.28395 
L 495.954535 183.606834 
L 496.420921 204.055737 
L 496.576384 202.351661 
L 496.731846 134.188652 
L 496.887308 188.151034 
L 497.04277 188.71906 
L 497.353694 206.327837 
L 497.975542 210.872038 
L 498.286466 207.463887 
L 498.441928 209.735987 
L 498.59739 209.735987 
L 498.908315 198.943511 
L 499.063777 164.862006 
L 499.219239 196.671411 
L 499.374701 173.382382 
L 499.530163 204.623762 
L 499.685625 208.031912 
L 499.841087 206.895862 
L 500.152011 201.783636 
L 500.307473 190.99116 
L 500.462935 190.99116 
L 500.618397 194.967335 
L 500.773859 190.99116 
L 501.084783 202.919687 
L 501.240246 203.487712 
L 501.395708 203.487712 
L 501.55117 204.623762 
L 501.706632 206.895862 
L 502.017556 205.759812 
L 502.173018 202.351661 
L 502.32848 209.167962 
L 502.483942 208.031912 
L 502.639404 205.759812 
L 502.794866 208.031912 
L 503.261252 205.191787 
L 503.416715 210.304013 
L 503.572177 205.759812 
L 503.727639 205.759812 
L 503.883101 202.919687 
L 504.038563 163.725956 
L 504.349487 193.831285 
L 504.504949 190.99116 
L 504.660411 205.191787 
L 504.971335 206.327837 
L 505.126797 210.304013 
L 505.282259 209.735987 
L 505.593183 212.008088 
L 505.748646 212.008088 
L 505.904108 188.71906 
L 506.05957 204.055737 
L 506.215032 183.606834 
L 506.370494 211.440063 
L 506.525956 208.599937 
L 506.681418 214.280188 
L 506.992342 209.167962 
L 507.147804 210.872038 
L 507.303266 214.280188 
L 507.458728 209.735987 
L 507.61419 200.647586 
L 507.769652 139.300878 
L 507.925114 196.671411 
L 508.080577 186.446959 
L 508.546963 213.144138 
L 508.857887 209.167962 
L 509.013349 213.144138 
L 509.479735 209.735987 
L 509.635197 213.144138 
L 509.790659 205.759812 
L 509.946121 205.191787 
L 510.101583 207.463887 
L 510.257045 200.647586 
L 510.412508 199.511536 
L 510.56797 211.440063 
L 510.723432 205.759812 
L 510.878894 194.967335 
L 511.034356 202.919687 
L 511.189818 195.535361 
L 511.34528 195.535361 
L 511.500742 193.26326 
L 511.656204 172.246332 
L 511.811666 192.695235 
L 511.967128 190.99116 
L 512.12259 205.759812 
L 512.278052 203.487712 
L 512.433514 205.191787 
L 512.588977 212.008088 
L 512.899901 209.735987 
L 513.055363 214.280188 
L 513.210825 210.304013 
L 513.366287 189.287085 
L 513.521749 204.623762 
L 513.677211 172.814357 
L 513.832673 202.351661 
L 513.988135 205.191787 
L 514.143597 201.215611 
L 514.454521 214.280188 
L 514.609983 209.167962 
L 514.765445 210.872038 
L 514.920908 206.327837 
L 515.387294 94.426897 
L 515.542756 187.014984 
L 515.698218 192.12721 
L 515.85368 209.167962 
L 516.009142 210.304013 
L 516.164604 210.304013 
L 516.320066 213.712163 
L 516.475528 209.735987 
L 516.63099 209.735987 
L 516.786452 213.144138 
L 516.941914 212.008088 
L 517.097376 209.735987 
L 517.252839 200.647586 
L 517.408301 104.651348 
L 517.563763 190.423135 
L 517.874687 214.848213 
L 518.030149 130.212476 
L 518.185611 160.885831 
L 518.341073 165.430031 
L 518.496535 159.181755 
L 518.651997 209.167962 
L 518.807459 201.215611 
L 518.962921 163.725956 
L 519.58477 205.191787 
L 519.740232 210.872038 
L 519.895694 209.167962 
L 520.051156 210.304013 
L 520.206618 213.144138 
L 520.36208 212.576113 
L 520.517542 210.304013 
L 520.673004 210.304013 
L 520.828466 209.167962 
L 520.983928 214.280188 
L 521.13939 206.895862 
L 521.294852 116.579875 
L 521.450314 142.141003 
L 521.605776 64.889592 
L 521.761239 174.518433 
L 521.916701 113.171724 
L 522.227625 195.535361 
L 522.538549 118.851975 
L 522.694011 137.596803 
L 522.849473 204.055737 
L 523.004935 207.463887 
L 523.160397 203.487712 
L 523.315859 204.055737 
L 523.471321 202.919687 
L 523.626783 213.712163 
L 523.937707 209.167962 
L 524.248632 213.712163 
L 524.404094 209.735987 
L 524.559556 210.304013 
L 524.715018 209.735987 
L 524.87048 208.031912 
L 525.025942 198.943511 
L 525.181404 197.239436 
L 525.336866 206.327837 
L 525.492328 196.671411 
L 525.64779 194.967335 
L 525.803252 201.215611 
L 525.958714 190.99116 
L 526.114176 192.12721 
L 526.425101 124.532226 
L 526.580563 135.324702 
L 526.736025 188.151034 
L 526.891487 191.559185 
L 527.357873 211.440063 
L 527.513335 209.167962 
L 527.668797 210.304013 
L 527.824259 214.280188 
L 527.979721 209.735987 
L 528.135183 210.304013 
L 528.290645 192.695235 
L 528.446107 201.783636 
L 528.601569 169.974232 
L 528.757032 209.735987 
L 528.912494 209.167962 
L 529.223418 210.304013 
L 529.37888 200.079561 
L 529.534342 200.079561 
L 529.689804 200.647586 
L 529.845266 200.079561 
L 530.000728 192.12721 
L 530.15619 137.596803 
L 530.311652 184.742884 
L 530.467114 181.902759 
L 530.622576 190.423135 
L 530.778038 209.735987 
L 530.933501 205.759812 
L 531.088963 209.167962 
L 531.244425 209.167962 
L 531.399887 214.848213 
L 531.555349 209.735987 
L 531.710811 209.735987 
L 531.866273 210.872038 
L 532.021735 210.304013 
L 532.177197 204.623762 
L 532.332659 210.872038 
L 532.488121 209.167962 
L 532.643583 214.280188 
L 532.799045 210.304013 
L 532.954507 209.735987 
L 533.109969 209.735987 
L 533.265432 214.280188 
L 533.420894 208.599937 
L 533.576356 210.872038 
L 533.731818 205.759812 
L 533.88728 144.413103 
L 534.042742 182.470784 
L 534.198204 180.766708 
L 534.353666 187.583009 
L 534.509128 208.599937 
L 534.66459 209.167962 
L 534.820052 213.712163 
L 534.975514 210.304013 
L 535.286438 209.167962 
L 535.4419 214.848213 
L 535.752825 205.191787 
L 535.908287 188.71906 
L 536.063749 207.463887 
L 536.219211 168.270157 
L 536.374673 203.487712 
L 536.530135 199.511536 
L 536.685597 201.783636 
L 536.841059 205.759812 
L 536.996521 204.055737 
L 537.151983 204.055737 
L 537.307445 204.623762 
L 537.462907 200.079561 
L 537.773831 182.470784 
L 538.39568 209.167962 
L 538.551142 209.167962 
L 538.706604 214.280188 
L 538.862066 208.599937 
L 539.017528 210.304013 
L 539.17299 209.167962 
L 539.328452 210.304013 
L 539.483914 214.848213 
L 539.639376 208.031912 
L 539.794838 171.110282 
L 539.9503 168.838182 
L 540.105763 198.943511 
L 540.261225 194.967335 
L 540.416687 197.807461 
L 540.572149 192.695235 
L 540.727611 213.712163 
L 540.883073 209.167962 
L 541.038535 208.031912 
L 541.193997 210.304013 
L 541.349459 158.61373 
L 541.815845 194.39931 
L 542.126769 208.599937 
L 542.282231 209.167962 
L 542.437694 213.712163 
L 542.593156 208.031912 
L 542.748618 210.872038 
L 542.90408 208.031912 
L 543.059542 210.872038 
L 543.215004 210.304013 
L 543.370466 202.919687 
L 543.525928 143.845078 
L 543.68139 195.535361 
L 543.836852 134.756677 
L 543.992314 197.239436 
L 544.303238 180.766708 
L 544.4587 200.647586 
L 544.614162 173.382382 
L 544.769625 202.351661 
L 544.925087 204.055737 
L 545.080549 196.103386 
L 545.236011 167.702132 
L 545.391473 184.742884 
L 545.546935 188.151034 
L 545.857859 209.735987 
L 546.013321 208.031912 
L 546.168783 210.304013 
L 546.324245 208.599937 
L 546.479707 209.735987 
L 546.635169 209.167962 
L 546.790631 209.167962 
L 546.946093 210.304013 
L 547.101556 209.735987 
L 547.257018 177.358558 
L 547.41248 186.446959 
L 547.723404 167.134107 
L 547.878866 172.814357 
L 548.034328 198.375486 
L 548.18979 202.351661 
L 548.500714 192.695235 
L 548.811638 199.511536 
L 548.9671 130.780502 
L 549.122562 187.014984 
L 549.433487 208.599937 
L 549.588949 208.031912 
L 549.744411 208.599937 
L 549.899873 208.031912 
L 550.055335 210.304013 
L 550.366259 208.599937 
L 550.521721 210.872038 
L 550.677183 208.599937 
L 550.832645 210.872038 
L 550.988107 207.463887 
L 551.143569 165.430031 
L 551.299031 179.062633 
L 551.454493 181.902759 
L 551.609956 210.872038 
L 551.765418 208.599937 
L 552.076342 208.599937 
L 552.231804 210.872038 
L 552.542728 208.599937 
L 552.69819 210.872038 
L 552.853652 207.463887 
L 553.009114 201.215611 
L 553.320038 208.031912 
L 553.4755 209.735987 
L 553.630962 209.167962 
L 553.786424 208.031912 
L 554.097349 209.735987 
L 554.252811 208.599937 
L 554.408273 205.759812 
L 554.563735 209.167962 
L 554.719197 208.599937 
L 555.030121 205.191787 
L 555.185583 209.167962 
L 555.341045 206.895862 
L 555.651969 168.838182 
L 555.807431 197.807461 
L 555.962893 204.055737 
L 556.118355 201.215611 
L 556.273818 136.460752 
L 556.42928 187.014984 
L 556.740204 195.535361 
L 556.895666 203.487712 
L 557.051128 203.487712 
L 557.362052 210.304013 
L 557.672976 208.599937 
L 557.828438 208.599937 
L 557.9839 210.872038 
L 558.139362 203.487712 
L 558.450287 207.463887 
L 558.761211 209.167962 
L 558.916673 209.735987 
L 559.227597 208.031912 
L 559.383059 209.735987 
L 559.538521 209.735987 
L 559.693983 208.599937 
L 559.849445 206.327837 
L 560.004907 184.742884 
L 560.160369 193.26326 
L 560.315831 192.12721 
L 560.471293 195.535361 
L 560.782218 208.031912 
L 560.93768 208.599937 
L 561.093142 210.304013 
L 561.248604 208.599937 
L 561.404066 208.599937 
L 561.71499 210.304013 
L 561.870452 204.623762 
L 562.025914 190.423135 
L 562.181376 201.783636 
L 562.336838 172.814357 
L 562.4923 205.759812 
L 562.647762 206.327837 
L 562.803224 209.167962 
L 562.958686 208.599937 
L 563.269611 200.647586 
L 563.580535 202.351661 
L 563.891459 193.26326 
L 564.202383 198.943511 
L 564.513307 209.167962 
L 564.668769 208.599937 
L 565.135155 208.599937 
L 565.290617 210.872038 
L 565.601542 206.895862 
L 565.757004 211.440063 
L 565.912466 208.031912 
L 566.22339 211.440063 
L 566.378852 208.031912 
L 566.534314 210.872038 
L 566.845238 208.599937 
L 567.0007 208.599937 
L 567.156162 204.623762 
L 567.311624 187.583009 
L 567.467086 156.909655 
L 567.622549 192.12721 
L 567.778011 185.878934 
L 568.244397 207.463887 
L 568.555321 209.167962 
L 568.710783 209.735987 
L 568.866245 208.031912 
L 569.021707 208.031912 
L 569.177169 210.872038 
L 569.332631 208.031912 
L 569.799017 112.603699 
L 569.95448 196.103386 
L 570.109942 202.919687 
L 570.265404 106.923448 
L 570.576328 136.460752 
L 570.73179 119.42 
L 570.887252 159.181755 
L 571.042714 108.059498 
L 571.198176 148.957304 
L 571.353638 109.195549 
L 571.664562 187.014984 
L 571.820024 206.327837 
L 571.975486 209.167962 
L 572.130948 206.895862 
L 572.286411 208.031912 
L 572.441873 206.327837 
L 572.597335 207.463887 
L 572.908259 207.463887 
L 573.063721 208.599937 
L 573.219183 206.327837 
L 573.530107 182.470784 
L 573.685569 187.583009 
L 573.841031 173.950408 
L 573.996493 194.967335 
L 574.151955 188.151034 
L 574.307417 189.287085 
L 574.462879 191.559185 
L 574.618342 183.606834 
L 574.773804 189.85511 
L 574.929266 145.549154 
L 575.24019 197.239436 
L 575.395652 198.375486 
L 575.862038 211.440063 
L 576.172962 209.167962 
L 576.328424 210.304013 
L 576.483886 214.280188 
L 576.794811 208.599937 
L 576.950273 210.304013 
L 577.261197 187.583009 
L 577.416659 193.26326 
L 577.572121 190.99116 
L 577.727583 192.12721 
L 577.883045 194.967335 
L 578.038507 181.334734 
L 578.193969 197.807461 
L 578.349431 196.103386 
L 578.504893 179.062633 
L 578.660355 147.253229 
L 578.815817 194.39931 
L 578.971279 194.967335 
L 579.126742 143.845078 
L 579.282204 158.61373 
L 579.437666 198.375486 
L 579.593128 199.511536 
L 579.904052 209.735987 
L 580.059514 208.599937 
L 580.214976 209.735987 
L 580.370438 209.167962 
L 580.5259 210.304013 
L 580.681362 209.735987 
L 580.836824 206.895862 
L 580.992286 197.807461 
L 581.147748 204.055737 
L 581.30321 177.358558 
L 581.458673 192.695235 
L 581.769597 137.028777 
L 581.925059 197.807461 
L 582.080521 189.85511 
L 582.235983 197.807461 
L 582.391445 144.981129 
L 582.702369 188.71906 
L 583.013293 204.623762 
L 583.168755 212.008088 
L 583.324217 207.463887 
L 583.479679 210.872038 
L 583.635141 209.167962 
L 583.790604 210.304013 
L 583.946066 209.735987 
L 584.101528 209.735987 
L 584.25699 208.031912 
L 584.412452 208.599937 
L 584.567914 205.759812 
L 584.878838 210.304013 
L 585.0343 209.735987 
L 585.189762 210.304013 
L 585.345224 209.735987 
L 585.500686 213.712163 
L 585.656148 209.735987 
L 585.81161 210.304013 
L 585.967073 205.191787 
L 586.122535 175.654483 
L 586.277997 193.831285 
L 586.433459 185.878934 
L 586.588921 187.583009 
L 586.899845 212.008088 
L 587.055307 209.167962 
L 587.210769 210.304013 
L 587.521693 209.167962 
L 587.677155 210.304013 
L 587.832617 210.304013 
L 588.143541 204.055737 
L 588.299004 209.735987 
L 588.609928 205.759812 
L 588.76539 208.031912 
L 588.920852 204.055737 
L 589.076314 208.599937 
L 589.231776 198.375486 
L 589.387238 200.079561 
L 589.5427 199.511536 
L 589.853624 187.583009 
L 590.009086 167.134107 
L 590.164548 179.062633 
L 590.32001 151.797429 
L 590.475472 200.079561 
L 590.630935 210.304013 
L 590.786397 208.599937 
L 590.941859 210.304013 
L 591.097321 210.304013 
L 591.252783 210.872038 
L 591.408245 210.304013 
L 591.563707 208.599937 
L 591.719169 209.167962 
L 591.874631 208.031912 
L 592.030093 210.872038 
L 592.185555 209.735987 
L 592.341017 215.416238 
L 592.496479 209.167962 
L 592.651941 210.304013 
L 592.807403 209.167962 
L 592.962866 210.872038 
L 593.429252 197.239436 
L 593.584714 156.909655 
L 593.740176 187.014984 
L 593.895638 194.39931 
L 594.0511 187.583009 
L 594.362024 210.872038 
L 594.517486 208.599937 
L 594.672948 210.304013 
L 594.82841 210.304013 
L 594.983872 215.416238 
L 595.139335 208.031912 
L 595.294797 210.304013 
L 595.761183 200.647586 
L 595.916645 184.742884 
L 596.072107 202.919687 
L 596.227569 200.079561 
L 596.383031 202.919687 
L 596.538493 203.487712 
L 596.693955 206.895862 
L 596.849417 207.463887 
L 597.004879 212.008088 
L 597.160341 211.440063 
L 597.315803 202.351661 
L 597.471266 201.215611 
L 597.626728 205.759812 
L 597.78219 204.055737 
L 597.937652 205.759812 
L 598.248576 212.576113 
L 598.714962 208.599937 
L 598.870424 211.440063 
L 599.025886 208.599937 
L 599.181348 210.304013 
L 599.33681 207.463887 
L 599.492272 208.599937 
L 599.803197 122.260125 
L 600.114121 80.794295 
L 600.269583 150.093354 
L 600.425045 110.899624 
L 600.580507 124.532226 
L 600.735969 104.651348 
L 600.891431 193.831285 
L 601.046893 195.535361 
L 601.202355 185.310909 
L 601.513279 195.535361 
L 601.668741 181.902759 
L 601.824203 202.919687 
L 601.979665 177.358558 
L 602.135128 207.463887 
L 602.446052 210.304013 
L 602.756976 209.167962 
L 602.912438 210.872038 
L 603.223362 206.327837 
L 603.378824 163.157931 
L 603.534286 189.287085 
L 603.84521 110.899624 
L 604.000672 184.742884 
L 604.156134 192.695235 
L 604.311597 191.559185 
L 604.622521 197.807461 
L 604.777983 137.596803 
L 604.933445 187.014984 
L 605.088907 194.967335 
L 605.244369 188.151034 
L 605.555293 201.215611 
L 605.710755 207.463887 
L 605.866217 208.031912 
L 606.021679 210.304013 
L 606.177141 208.031912 
L 606.332603 210.304013 
L 606.488065 210.872038 
L 606.643528 205.191787 
L 606.954452 208.599937 
L 607.109914 210.304013 
L 607.265376 209.167962 
L 607.420838 210.304013 
L 607.731762 206.895862 
L 607.887224 208.599937 
L 608.042686 208.031912 
L 608.198148 202.919687 
L 608.35361 174.518433 
L 608.509072 98.403072 
L 608.664534 185.878934 
L 608.819996 187.014984 
L 608.975459 192.12721 
L 609.130921 204.623762 
L 609.597307 210.872038 
L 609.752769 208.599937 
L 610.063693 209.735987 
L 610.219155 209.735987 
L 610.374617 191.559185 
L 610.530079 203.487712 
L 610.685541 172.814357 
L 610.841003 208.599937 
L 610.996465 214.848213 
L 611.462852 184.174859 
L 611.618314 187.583009 
L 611.773776 176.790533 
L 611.929238 179.630658 
L 612.0847 179.630658 
L 612.240162 158.61373 
L 612.395624 181.334734 
L 612.551086 185.878934 
L 613.017472 206.895862 
L 613.483859 209.735987 
L 613.639321 208.599937 
L 613.794783 211.440063 
L 613.950245 209.167962 
L 614.261169 209.167962 
L 614.416631 205.759812 
L 614.727555 197.239436 
L 614.883017 201.215611 
L 615.038479 210.872038 
L 615.504865 200.647586 
L 615.660327 200.647586 
L 615.81579 148.957304 
L 615.971252 187.583009 
L 616.126714 174.518433 
L 616.282176 187.583009 
L 616.437638 163.157931 
L 616.5931 208.599937 
L 616.748562 209.735987 
L 617.059486 209.735987 
L 617.214948 209.167962 
L 617.37041 210.872038 
L 617.525872 208.599937 
L 617.681334 210.872038 
L 617.992258 206.895862 
L 618.303183 174.518433 
L 618.458645 133.620627 
L 618.614107 137.596803 
L 618.925031 152.365455 
L 619.080493 202.351661 
L 619.391417 206.895862 
L 619.546879 59.209342 
L 619.702341 77.954169 
L 619.857803 154.637555 
L 620.013265 151.797429 
L 620.168727 196.671411 
L 620.479652 204.055737 
L 620.635114 205.759812 
L 620.635114 205.759812 
" style="fill:none;stroke:#000000;stroke-linecap:square;stroke-width:1.5;"/>
   </g>
   <g id="patch_3">
    <path d="M 87.99875 228.14 
L 87.99875 10.7 
" style="fill:none;stroke:#000000;stroke-linecap:square;stroke-linejoin:miter;stroke-width:0.8;"/>
   </g>
   <g id="patch_4">
    <path d="M 645.99875 228.14 
L 645.99875 10.7 
" style="fill:none;stroke:#000000;stroke-linecap:square;stroke-linejoin:miter;stroke-width:0.8;"/>
   </g>
   <g id="patch_5">
    <path d="M 87.99875 228.14 
L 645.99875 228.14 
" style="fill:none;stroke:#000000;stroke-linecap:square;stroke-linejoin:miter;stroke-width:0.8;"/>
   </g>
   <g id="patch_6">
    <path d="M 87.99875 10.7 
L 645.99875 10.7 
" style="fill:none;stroke:#000000;stroke-linecap:square;stroke-linejoin:miter;stroke-width:0.8;"/>
   </g>
  </g>
 </g>
 <defs>
  <clipPath id="p0819c6679b">
   <rect height="217.44" width="558" x="87.99875" y="10.7"/>
  </clipPath>
 </defs>
</svg>
